Kavoon.ufo
<glyph name="exclam" format="1">
  <advance width="681"/>
  <unicode hex="0021"/>
  <outline>
    <contour>
      <point x="192" y="579" type="line"/>
      <point x="228" y="543"/>
      <point x="277" y="527"/>
      <point x="326" y="527" type="curve" smooth="yes"/>
      <point x="392" y="527"/>
      <point x="457" y="557"/>
      <point x="486" y="606" type="curve"/>
      <point x="520" y="956"/>
      <point x="558" y="1359"/>
      <point x="558" y="1600" type="curve"/>
      <point x="525" y="1616"/>
      <point x="482" y="1623"/>
      <point x="436" y="1623" type="curve" smooth="yes"/>
      <point x="313" y="1623"/>
      <point x="163" y="1576"/>
      <point x="97" y="1530" type="curve"/>
    </contour>
    <contour>
      <point x="88" y="199" type="curve" smooth="yes"/>
      <point x="88" y="80"/>
      <point x="214" y="-20"/>
      <point x="341" y="-20" type="curve" smooth="yes"/>
      <point x="468" y="-20"/>
      <point x="594" y="80"/>
      <point x="594" y="199" type="curve" smooth="yes"/>
      <point x="594" y="302"/>
      <point x="530" y="401"/>
      <point x="341" y="401" type="curve" smooth="yes"/>
      <point x="152" y="401"/>
      <point x="88" y="302"/>
    </contour>
  </outline>
</glyph>
<glyph name="numbersign" format="1">
  <advance width="1451"/>
  <unicode hex="0023"/>
  <outline>
    <contour>
      <point x="205" y="-62" type="line"/>
      <point x="296" y="-109"/>
      <point x="394" y="-134"/>
      <point x="501" y="-139" type="curve"/>
      <point x="558" y="189" type="line"/>
      <point x="627" y="187"/>
      <point x="694" y="183"/>
      <point x="763" y="181" type="curve"/>
      <point x="713" y="-62" type="line"/>
      <point x="809" y="-113"/>
      <point x="895" y="-140"/>
      <point x="1000" y="-138" type="curve"/>
      <point x="1065" y="175" type="line"/>
      <point x="1331" y="162" type="line"/>
      <point x="1356" y="215"/>
      <point x="1372" y="279"/>
      <point x="1372" y="341" type="curve" smooth="yes"/>
      <point x="1372" y="373"/>
      <point x="1368" y="406"/>
      <point x="1357" y="436" type="curve"/>
      <point x="1129" y="436" type="line"/>
      <point x="1183" y="738" type="line"/>
      <point x="1407" y="738" type="line"/>
      <point x="1431" y="790"/>
      <point x="1441" y="839"/>
      <point x="1441" y="889" type="curve" smooth="yes"/>
      <point x="1441" y="920"/>
      <point x="1437" y="952"/>
      <point x="1429" y="986" type="curve"/>
      <point x="1232" y="986" type="line"/>
      <point x="1281" y="1213" type="line"/>
      <point x="1205" y="1270"/>
      <point x="1129" y="1296"/>
      <point x="1043" y="1296" type="curve" smooth="yes"/>
      <point x="1016" y="1296"/>
      <point x="986" y="1293"/>
      <point x="951" y="1287" type="curve"/>
      <point x="904" y="986" type="line"/>
      <point x="692" y="986" type="line"/>
      <point x="740" y="1213" type="line"/>
      <point x="661" y="1261"/>
      <point x="577" y="1294"/>
      <point x="477" y="1294" type="curve" smooth="yes"/>
      <point x="455" y="1294"/>
      <point x="432" y="1293"/>
      <point x="402" y="1288" type="curve"/>
      <point x="387" y="1188"/>
      <point x="370" y="1086"/>
      <point x="355" y="986" type="curve"/>
      <point x="110" y="986" type="line"/>
      <point x="88" y="929"/>
      <point x="78" y="890"/>
      <point x="78" y="849" type="curve" smooth="yes"/>
      <point x="78" y="819"/>
      <point x="83" y="786"/>
      <point x="95" y="743" type="curve"/>
      <point x="322" y="732" type="line"/>
      <point x="309" y="632"/>
      <point x="295" y="536"/>
      <point x="282" y="436" type="curve"/>
      <point x="74" y="436" type="line"/>
      <point x="47" y="386"/>
      <point x="37" y="344"/>
      <point x="37" y="292" type="curve" smooth="yes"/>
      <point x="37" y="268"/>
      <point x="38" y="243"/>
      <point x="41" y="218" type="curve"/>
      <point x="248" y="199" type="line"/>
    </contour>
    <contour>
      <point x="609" y="436" type="line"/>
      <point x="663" y="728" type="line"/>
      <point x="861" y="728" type="line"/>
      <point x="813" y="436" type="line"/>
    </contour>
  </outline>
</glyph>
<glyph name="ampersand" format="1">
  <advance width="1411"/>
  <unicode hex="0026"/>
  <outline>
    <contour>
      <point x="69" y="417" type="curve" smooth="yes"/>
      <point x="69" y="132"/>
      <point x="329" y="-19"/>
      <point x="605" y="-19" type="curve" smooth="yes"/>
      <point x="913" y="-19"/>
      <point x="1130" y="160"/>
      <point x="1130" y="436" type="curve" smooth="yes"/>
      <point x="1130" y="557"/>
      <point x="1070" y="671"/>
      <point x="880" y="807" type="curve"/>
      <point x="954" y="831"/>
      <point x="1028" y="853"/>
      <point x="1094" y="851" type="curve"/>
      <point x="1117" y="664" type="line"/>
      <point x="1269" y="664" type="line"/>
      <point x="1319" y="687"/>
      <point x="1385" y="867"/>
      <point x="1385" y="999" type="curve" smooth="yes"/>
      <point x="1385" y="1035"/>
      <point x="1380" y="1068"/>
      <point x="1368" y="1093" type="curve" smooth="yes"/>
      <point x="1354" y="1121"/>
      <point x="1267" y="1169"/>
      <point x="1194" y="1169" type="curve" smooth="yes"/>
      <point x="1085" y="1169"/>
      <point x="750" y="1018"/>
      <point x="656" y="958" type="curve" smooth="yes"/>
      <point x="647" y="952" type="line"/>
      <point x="572" y="998"/>
      <point x="495" y="1056"/>
      <point x="464" y="1115" type="curve"/>
      <point x="464" y="1147"/>
      <point x="470" y="1204"/>
      <point x="484" y="1224" type="curve"/>
      <point x="517" y="1240"/>
      <point x="563" y="1249"/>
      <point x="609" y="1249" type="curve" smooth="yes"/>
      <point x="649" y="1249"/>
      <point x="803" y="1234"/>
      <point x="942" y="1169" type="curve"/>
      <point x="990" y="1237"/>
      <point x="1021" y="1310"/>
      <point x="1021" y="1390" type="curve" smooth="yes"/>
      <point x="1021" y="1408"/>
      <point x="1019" y="1426"/>
      <point x="1016" y="1445" type="curve"/>
      <point x="949" y="1525"/>
      <point x="791" y="1551"/>
      <point x="602" y="1551" type="curve" smooth="yes"/>
      <point x="335" y="1551"/>
      <point x="108" y="1425"/>
      <point x="108" y="1117" type="curve" smooth="yes"/>
      <point x="108" y="958"/>
      <point x="235" y="828"/>
      <point x="326" y="771" type="curve"/>
      <point x="204" y="695"/>
      <point x="69" y="607"/>
    </contour>
    <contour>
      <point x="469" y="262" type="curve"/>
      <point x="420" y="297"/>
      <point x="383" y="381"/>
      <point x="378" y="446" type="curve"/>
      <point x="402" y="519"/>
      <point x="478" y="586"/>
      <point x="538" y="623" type="curve"/>
      <point x="652" y="569"/>
      <point x="729" y="494"/>
      <point x="774" y="430" type="curve"/>
      <point x="774" y="399"/>
      <point x="768" y="310"/>
      <point x="755" y="284" type="curve"/>
      <point x="716" y="253"/>
      <point x="660" y="241"/>
      <point x="604" y="241" type="curve" smooth="yes"/>
      <point x="554" y="241"/>
      <point x="505" y="250"/>
    </contour>
  </outline>
</glyph>
<glyph name="quotesingle" format="1">
  <advance width="499"/>
  <unicode hex="0027"/>
  <outline>
    <contour>
      <point x="164" y="984" type="curve"/>
      <point x="335" y="984" type="line"/>
      <point x="379" y="1122"/>
      <point x="428" y="1374"/>
      <point x="439" y="1533" type="curve"/>
      <point x="395" y="1589"/>
      <point x="332" y="1612"/>
      <point x="268" y="1610" type="curve"/>
      <point x="192" y="1606"/>
      <point x="114" y="1571"/>
      <point x="60" y="1518" type="curve"/>
      <point x="87" y="1330"/>
      <point x="121" y="1153"/>
    </contour>
  </outline>
</glyph>
<glyph name="asterisk" format="1">
  <advance width="1153"/>
  <unicode hex="002A"/>
  <outline>
    <contour>
      <point x="407" y="568" type="curve"/>
      <point x="468" y="689"/>
      <point x="510" y="818"/>
      <point x="536" y="957" type="curve"/>
      <point x="550" y="955" type="line"/>
      <point x="593" y="821"/>
      <point x="659" y="679"/>
      <point x="715" y="585" type="curve"/>
      <point x="841" y="582"/>
      <point x="951" y="653"/>
      <point x="1016" y="769" type="curve"/>
      <point x="913" y="874"/>
      <point x="806" y="961"/>
      <point x="692" y="1026" type="curve"/>
      <point x="697" y="1037" type="line"/>
      <point x="757" y="1028"/>
      <point x="845" y="1017"/>
      <point x="922" y="1017" type="curve" smooth="yes"/>
      <point x="969" y="1017"/>
      <point x="1029" y="1021"/>
      <point x="1081" y="1033" type="curve"/>
      <point x="1094" y="1073"/>
      <point x="1101" y="1117"/>
      <point x="1101" y="1161" type="curve" smooth="yes"/>
      <point x="1101" y="1251"/>
      <point x="1073" y="1339"/>
      <point x="1019" y="1389" type="curve"/>
      <point x="894" y="1309"/>
      <point x="796" y="1241"/>
      <point x="686" y="1153" type="curve"/>
      <point x="673" y="1164" type="line"/>
      <point x="818" y="1644" type="line"/>
      <point x="772" y="1667"/>
      <point x="699" y="1677"/>
      <point x="653" y="1677" type="curve" smooth="yes"/>
      <point x="571" y="1677"/>
      <point x="493" y="1645"/>
      <point x="437" y="1594" type="curve"/>
      <point x="432" y="1576"/>
      <point x="430" y="1551"/>
      <point x="430" y="1524" type="curve" smooth="yes"/>
      <point x="430" y="1415"/>
      <point x="464" y="1251"/>
      <point x="514" y="1172" type="curve"/>
      <point x="500" y="1164" type="line"/>
      <point x="423" y="1270"/>
      <point x="323" y="1352"/>
      <point x="211" y="1418" type="curve"/>
      <point x="118" y="1329"/>
      <point x="78" y="1186"/>
      <point x="60" y="1078" type="curve"/>
      <point x="164" y="1045"/>
      <point x="281" y="1032"/>
      <point x="397" y="1032" type="curve" smooth="yes"/>
      <point x="409" y="1032"/>
      <point x="437" y="1034"/>
      <point x="449" y="1034" type="curve"/>
      <point x="451" y="1022" type="line"/>
      <point x="331" y="954"/>
      <point x="220" y="865"/>
      <point x="127" y="751" type="curve"/>
      <point x="161" y="659"/>
      <point x="268" y="559"/>
    </contour>
  </outline>
</glyph>
<glyph name="comma" format="1">
  <advance width="641"/>
  <unicode hex="002C"/>
  <outline>
    <contour>
      <point x="18" y="-206" type="line"/>
      <point x="168" y="-301" type="line"/>
      <point x="311" y="-204"/>
      <point x="505" y="31"/>
      <point x="576" y="197" type="curve"/>
      <point x="554" y="331"/>
      <point x="432" y="398"/>
      <point x="300" y="401" type="curve" smooth="yes"/>
      <point x="263" y="402"/>
      <point x="226" y="398"/>
      <point x="189" y="389" type="curve"/>
    </contour>
  </outline>
</glyph>
<glyph name="period" format="1">
  <advance width="682"/>
  <unicode hex="002E"/>
  <outline>
    <contour>
      <point x="88" y="199" type="curve" smooth="yes"/>
      <point x="88" y="80"/>
      <point x="214" y="-20"/>
      <point x="341" y="-20" type="curve" smooth="yes"/>
      <point x="468" y="-20"/>
      <point x="594" y="80"/>
      <point x="594" y="199" type="curve" smooth="yes"/>
      <point x="594" y="302"/>
      <point x="530" y="401"/>
      <point x="341" y="401" type="curve" smooth="yes"/>
      <point x="152" y="401"/>
      <point x="88" y="302"/>
    </contour>
  </outline>
</glyph>
<glyph name="two" format="1">
  <advance width="1102"/>
  <unicode hex="0032"/>
  <outline>
    <contour>
      <point x="187" y="-10" type="curve"/>
      <point x="310" y="-1"/>
      <point x="382" y="63"/>
      <point x="438" y="160" type="curve"/>
      <point x="550" y="67"/>
      <point x="695" y="-20"/>
      <point x="833" y="-20" type="curve" smooth="yes"/>
      <point x="968" y="-20"/>
      <point x="1070" y="97"/>
      <point x="1070" y="238" type="curve" smooth="yes"/>
      <point x="1070" y="307"/>
      <point x="1048" y="372"/>
      <point x="1027" y="426" type="curve"/>
      <point x="863" y="439" type="line"/>
      <point x="803" y="327" type="line"/>
      <point x="558" y="355" type="line"/>
      <point x="558" y="370" type="line"/>
      <point x="667" y="426"/>
      <point x="990" y="582"/>
      <point x="990" y="857" type="curve" smooth="yes"/>
      <point x="990" y="1111"/>
      <point x="735" y="1185"/>
      <point x="486" y="1185" type="curve" smooth="yes"/>
      <point x="205" y="1185"/>
      <point x="73" y="1044"/>
      <point x="68" y="1039" type="curve"/>
      <point x="67" y="1030"/>
      <point x="67" y="1021"/>
      <point x="67" y="1012" type="curve" smooth="yes"/>
      <point x="67" y="901"/>
      <point x="112" y="800"/>
      <point x="164" y="739" type="curve"/>
      <point x="269" y="786"/>
      <point x="378" y="820"/>
      <point x="463" y="820" type="curve" smooth="yes"/>
      <point x="492" y="820"/>
      <point x="518" y="818"/>
      <point x="547" y="812" type="curve"/>
      <point x="569" y="793"/>
      <point x="573" y="767"/>
      <point x="576" y="750" type="curve"/>
      <point x="549" y="650"/>
      <point x="429" y="501"/>
      <point x="353" y="438" type="curve"/>
      <point x="304" y="452"/>
      <point x="215" y="480"/>
      <point x="186" y="480" type="curve"/>
      <point x="77" y="417"/>
      <point x="35" y="326"/>
      <point x="35" y="235" type="curve" smooth="yes"/>
      <point x="35" y="119"/>
      <point x="96" y="14"/>
    </contour>
  </outline>
</glyph>
<glyph name="four" format="1">
  <advance width="1221"/>
  <unicode hex="0034"/>
  <outline>
    <contour>
      <point x="155" y="5" type="curve"/>
      <point x="245" y="9"/>
      <point x="313" y="57"/>
      <point x="362" y="129" type="curve"/>
      <point x="737" y="33" type="line"/>
      <point x="728" y="-234" type="line"/>
      <point x="777" y="-254"/>
      <point x="823" y="-265"/>
      <point x="880" y="-265" type="curve" smooth="yes"/>
      <point x="942" y="-265"/>
      <point x="985" y="-251"/>
      <point x="1040" y="-221" type="curve"/>
      <point x="1095" y="127"/>
      <point x="1117" y="529"/>
      <point x="1129" y="795" type="curve"/>
      <point x="1075" y="831"/>
      <point x="1006" y="847"/>
      <point x="937" y="847" type="curve" smooth="yes"/>
      <point x="859" y="847"/>
      <point x="780" y="825"/>
      <point x="718" y="786" type="curve"/>
      <point x="721" y="637"/>
      <point x="731" y="494"/>
      <point x="742" y="344" type="curve"/>
      <point x="441" y="366" type="line"/>
      <point x="499" y="488"/>
      <point x="554" y="621"/>
      <point x="602" y="768" type="curve" smooth="yes"/>
      <point x="640" y="884"/>
      <point x="670" y="1018"/>
      <point x="685" y="1187" type="curve"/>
      <point x="646" y="1246"/>
      <point x="571" y="1279"/>
      <point x="477" y="1279" type="curve" smooth="yes"/>
      <point x="378" y="1279"/>
      <point x="279" y="1227"/>
      <point x="220" y="1135" type="curve"/>
      <point x="224" y="1050"/>
      <point x="226" y="974"/>
      <point x="226" y="904" type="curve" smooth="yes"/>
      <point x="226" y="715"/>
      <point x="212" y="574"/>
      <point x="191" y="438" type="curve"/>
      <point x="137" y="449"/>
      <point x="80" y="460"/>
      <point x="65" y="460" type="curve"/>
      <point x="5" y="407"/>
      <point x="-6" y="317"/>
      <point x="-6" y="235" type="curve" smooth="yes"/>
      <point x="-6" y="130"/>
      <point x="73" y="27"/>
    </contour>
  </outline>
</glyph>
<glyph name="five" format="1">
  <advance width="1086"/>
  <unicode hex="0035"/>
  <outline>
    <contour>
      <point x="14" y="-79" type="curve"/>
      <point x="60" y="-282"/>
      <point x="308" y="-315"/>
      <point x="432" y="-315" type="curve" smooth="yes"/>
      <point x="741" y="-315"/>
      <point x="1029" y="-127"/>
      <point x="1029" y="188" type="curve" smooth="yes"/>
      <point x="1029" y="485"/>
      <point x="809" y="612"/>
      <point x="597" y="612" type="curve" smooth="yes"/>
      <point x="542" y="612"/>
      <point x="489" y="602"/>
      <point x="438" y="581" type="curve"/>
      <point x="455" y="870" type="line"/>
      <point x="555" y="780"/>
      <point x="653" y="746"/>
      <point x="773" y="746" type="curve" smooth="yes"/>
      <point x="821" y="746"/>
      <point x="870" y="756"/>
      <point x="919" y="776" type="curve"/>
      <point x="965" y="819"/>
      <point x="986" y="885"/>
      <point x="986" y="962" type="curve" smooth="yes"/>
      <point x="986" y="1055"/>
      <point x="955" y="1148"/>
      <point x="902" y="1185" type="curve"/>
      <point x="541" y="1120" type="line"/>
      <point x="414" y="1152"/>
      <point x="342" y="1165"/>
      <point x="279" y="1165" type="curve" smooth="yes"/>
      <point x="225" y="1165"/>
      <point x="163" y="1156"/>
      <point x="103" y="1132" type="curve"/>
      <point x="91" y="1091"/>
      <point x="86" y="1049"/>
      <point x="86" y="1008" type="curve" smooth="yes"/>
      <point x="86" y="865"/>
      <point x="141" y="692"/>
      <point x="200" y="539" type="curve"/>
      <point x="198" y="539" type="line"/>
      <point x="175" y="508"/>
      <point x="150" y="473"/>
      <point x="150" y="409" type="curve" smooth="yes"/>
      <point x="150" y="340"/>
      <point x="209" y="264"/>
      <point x="290" y="240" type="curve"/>
      <point x="333" y="248"/>
      <point x="389" y="286"/>
      <point x="436" y="332" type="curve"/>
      <point x="520" y="319"/>
      <point x="594" y="295"/>
      <point x="648" y="252" type="curve"/>
      <point x="653" y="235"/>
      <point x="659" y="192"/>
      <point x="659" y="154" type="curve" smooth="yes"/>
      <point x="659" y="117"/>
      <point x="654" y="28"/>
      <point x="640" y="-12" type="curve"/>
      <point x="615" y="-20"/>
      <point x="573" y="-26"/>
      <point x="535" y="-26" type="curve" smooth="yes"/>
      <point x="451" y="-26"/>
      <point x="328" y="5"/>
      <point x="141" y="117" type="curve"/>
      <point x="79" y="78"/>
      <point x="36" y="-2"/>
    </contour>
  </outline>
</glyph>
<glyph name="six" format="1">
  <advance width="1258"/>
  <unicode hex="0036"/>
  <outline>
    <contour>
      <point x="652" y="-20" type="curve" smooth="yes"/>
      <point x="1000" y="-20"/>
      <point x="1171" y="247"/>
      <point x="1171" y="583" type="curve" smooth="yes"/>
      <point x="1171" y="860"/>
      <point x="1072" y="1004"/>
      <point x="825" y="1004" type="curve" smooth="yes"/>
      <point x="696" y="1004"/>
      <point x="562" y="954"/>
      <point x="466" y="744" type="curve"/>
      <point x="451" y="744" type="line"/>
      <point x="456" y="918"/>
      <point x="474" y="1039"/>
      <point x="536" y="1197" type="curve"/>
      <point x="571" y="1208"/>
      <point x="609" y="1213"/>
      <point x="648" y="1213" type="curve" smooth="yes"/>
      <point x="773" y="1213"/>
      <point x="888" y="1181"/>
      <point x="982" y="1126" type="curve"/>
      <point x="1053" y="1166"/>
      <point x="1115" y="1289"/>
      <point x="1122" y="1364" type="curve"/>
      <point x="1055" y="1543"/>
      <point x="848" y="1550"/>
      <point x="724" y="1550" type="curve" smooth="yes"/>
      <point x="210" y="1550"/>
      <point x="98" y="1144"/>
      <point x="98" y="719" type="curve" smooth="yes"/>
      <point x="98" y="274"/>
      <point x="229" y="-20"/>
    </contour>
    <contour>
      <point x="541" y="303" type="curve"/>
      <point x="494" y="357"/>
      <point x="470" y="421"/>
      <point x="466" y="525" type="curve"/>
      <point x="526" y="610"/>
      <point x="649" y="690"/>
      <point x="752" y="690" type="curve" smooth="yes"/>
      <point x="765" y="690"/>
      <point x="777" y="689"/>
      <point x="789" y="686" type="curve"/>
      <point x="799" y="647"/>
      <point x="804" y="594"/>
      <point x="804" y="538" type="curve" smooth="yes"/>
      <point x="804" y="450"/>
      <point x="792" y="354"/>
      <point x="770" y="297" type="curve"/>
      <point x="751" y="283"/>
      <point x="709" y="274"/>
      <point x="662" y="274" type="curve" smooth="yes"/>
      <point x="611" y="274"/>
      <point x="563" y="288"/>
    </contour>
  </outline>
</glyph>
<glyph name="seven" format="1">
  <advance width="1111"/>
  <unicode hex="0037"/>
  <outline>
    <contour>
      <point x="136" y="-92" type="curve"/>
      <point x="153" y="-205"/>
      <point x="294" y="-286"/>
      <point x="372" y="-315" type="curve"/>
      <point x="691" y="-273"/>
      <point x="880" y="421"/>
      <point x="939" y="765" type="curve"/>
      <point x="988" y="757"/>
      <point x="1052" y="753"/>
      <point x="1083" y="754" type="curve"/>
      <point x="1098" y="774"/>
      <point x="1124" y="853"/>
      <point x="1124" y="932" type="curve" smooth="yes"/>
      <point x="1124" y="1039"/>
      <point x="1086" y="1136"/>
      <point x="997" y="1185" type="curve"/>
      <point x="919" y="1179"/>
      <point x="841" y="1129"/>
      <point x="798" y="1077" type="curve"/>
      <point x="657" y="1138"/>
      <point x="464" y="1185"/>
      <point x="349" y="1185" type="curve" smooth="yes"/>
      <point x="195" y="1185"/>
      <point x="52" y="1090"/>
      <point x="52" y="912" type="curve" smooth="yes"/>
      <point x="52" y="756"/>
      <point x="102" y="608"/>
      <point x="180" y="505" type="curve"/>
      <point x="365" y="545" type="line"/>
      <point x="408" y="840" type="line"/>
      <point x="665" y="809" type="line"/>
      <point x="561" y="457"/>
      <point x="395" y="180"/>
    </contour>
  </outline>
</glyph>
<glyph name="eight" format="1">
  <advance width="1199"/>
  <unicode hex="0038"/>
  <outline>
    <contour>
      <point x="78" y="416" type="curve" smooth="yes"/>
      <point x="78" y="131"/>
      <point x="338" y="-20"/>
      <point x="614" y="-20" type="curve" smooth="yes"/>
      <point x="922" y="-20"/>
      <point x="1139" y="159"/>
      <point x="1139" y="435" type="curve" smooth="yes"/>
      <point x="1139" y="591"/>
      <point x="1038" y="731"/>
      <point x="868" y="818" type="curve"/>
      <point x="967" y="880"/>
      <point x="1101" y="997"/>
      <point x="1101" y="1167" type="curve" smooth="yes"/>
      <point x="1101" y="1428"/>
      <point x="915" y="1550"/>
      <point x="611" y="1550" type="curve" smooth="yes"/>
      <point x="344" y="1550"/>
      <point x="117" y="1424"/>
      <point x="117" y="1116" type="curve" smooth="yes"/>
      <point x="117" y="957"/>
      <point x="244" y="827"/>
      <point x="335" y="770" type="curve"/>
      <point x="213" y="694"/>
      <point x="78" y="606"/>
    </contour>
    <contour>
      <point x="694" y="929" type="curve"/>
      <point x="609" y="976"/>
      <point x="509" y="1045"/>
      <point x="473" y="1114" type="curve"/>
      <point x="473" y="1146"/>
      <point x="479" y="1233"/>
      <point x="493" y="1253" type="curve"/>
      <point x="526" y="1269"/>
      <point x="572" y="1278"/>
      <point x="618" y="1278" type="curve" smooth="yes"/>
      <point x="673" y="1278"/>
      <point x="727" y="1265"/>
      <point x="761" y="1238" type="curve"/>
      <point x="764" y="1222"/>
      <point x="765" y="1205"/>
      <point x="765" y="1186" type="curve" smooth="yes"/>
      <point x="765" y="1107"/>
      <point x="731" y="981"/>
    </contour>
    <contour>
      <point x="478" y="261" type="curve"/>
      <point x="429" y="296"/>
      <point x="392" y="380"/>
      <point x="387" y="445" type="curve"/>
      <point x="411" y="518"/>
      <point x="457" y="585"/>
      <point x="517" y="622" type="curve"/>
      <point x="631" y="568"/>
      <point x="738" y="493"/>
      <point x="783" y="429" type="curve"/>
      <point x="783" y="398"/>
      <point x="777" y="309"/>
      <point x="764" y="283" type="curve"/>
      <point x="725" y="252"/>
      <point x="669" y="240"/>
      <point x="613" y="240" type="curve" smooth="yes"/>
      <point x="563" y="240"/>
      <point x="514" y="249"/>
    </contour>
  </outline>
</glyph>
<glyph name="nine" format="1">
  <advance width="1244"/>
  <unicode hex="0039"/>
  <outline>
    <contour>
      <point x="135" y="-102" type="curve"/>
      <point x="189" y="-287"/>
      <point x="396" y="-315"/>
      <point x="553" y="-315" type="curve" smooth="yes"/>
      <point x="986" y="-315"/>
      <point x="1152" y="23"/>
      <point x="1152" y="536" type="curve" smooth="yes"/>
      <point x="1152" y="901"/>
      <point x="1026" y="1185"/>
      <point x="603" y="1185" type="curve" smooth="yes"/>
      <point x="268" y="1185"/>
      <point x="87" y="1011"/>
      <point x="87" y="691" type="curve" smooth="yes"/>
      <point x="87" y="429"/>
      <point x="189" y="225"/>
      <point x="440" y="211" type="curve" smooth="yes"/>
      <point x="556" y="205"/>
      <point x="697" y="256"/>
      <point x="795" y="413" type="curve"/>
      <point x="802" y="409" type="line"/>
      <point x="795" y="291"/>
      <point x="770" y="113"/>
      <point x="735" y="26" type="curve"/>
      <point x="714" y="1"/>
      <point x="665" y="-12"/>
      <point x="582" y="-12" type="curve" smooth="yes"/>
      <point x="478" y="-12"/>
      <point x="390" y="21"/>
      <point x="262" y="104" type="curve"/>
      <point x="200" y="65"/>
      <point x="157" y="-25"/>
    </contour>
    <contour>
      <point x="466" y="529" type="curve"/>
      <point x="456" y="565"/>
      <point x="452" y="604"/>
      <point x="452" y="644" type="curve" smooth="yes"/>
      <point x="452" y="715"/>
      <point x="466" y="789"/>
      <point x="489" y="849" type="curve"/>
      <point x="508" y="863"/>
      <point x="550" y="872"/>
      <point x="597" y="872" type="curve" smooth="yes"/>
      <point x="648" y="872"/>
      <point x="717" y="861"/>
      <point x="739" y="846" type="curve"/>
      <point x="769" y="809"/>
      <point x="785" y="684"/>
      <point x="789" y="630" type="curve"/>
      <point x="736" y="555"/>
      <point x="635" y="521"/>
      <point x="541" y="521" type="curve" smooth="yes"/>
      <point x="515" y="521"/>
      <point x="490" y="524"/>
    </contour>
  </outline>
</glyph>
<glyph name="less" format="1">
  <advance width="894"/>
  <unicode hex="003C"/>
  <outline>
    <contour>
      <point x="139" y="321" type="curve"/>
      <point x="720" y="-12" type="line"/>
      <point x="777" y="22"/>
      <point x="852" y="123"/>
      <point x="871" y="202" type="curve"/>
      <point x="455" y="504" type="line"/>
      <point x="851" y="852" type="line"/>
      <point x="833" y="922"/>
      <point x="734" y="1069"/>
      <point x="674" y="1093" type="curve"/>
      <point x="83" y="669" type="line"/>
      <point x="79" y="650"/>
      <point x="78" y="630"/>
      <point x="78" y="608" type="curve" smooth="yes"/>
      <point x="78" y="507"/>
      <point x="105" y="360"/>
    </contour>
  </outline>
</glyph>
<glyph name="at" format="1">
  <advance width="1708"/>
  <unicode hex="0040"/>
  <outline>
    <contour>
      <point x="130" y="424" type="curve" smooth="yes"/>
      <point x="130" y="-32"/>
      <point x="429" y="-244"/>
      <point x="934" y="-244" type="curve" smooth="yes"/>
      <point x="951" y="-244"/>
      <point x="968" y="-244"/>
      <point x="985" y="-243" type="curve"/>
      <point x="1250" y="-236"/>
      <point x="1551" y="-136"/>
      <point x="1645" y="-45" type="curve"/>
      <point x="1652" y="-16"/>
      <point x="1656" y="13"/>
      <point x="1656" y="42" type="curve" smooth="yes"/>
      <point x="1656" y="106"/>
      <point x="1639" y="168"/>
      <point x="1605" y="233" type="curve"/>
      <point x="1389" y="77"/>
      <point x="1173" y="60"/>
      <point x="1065" y="60" type="curve" smooth="yes"/>
      <point x="979" y="60"/>
      <point x="937" y="114"/>
      <point x="937" y="186" type="curve" smooth="yes"/>
      <point x="937" y="191"/>
      <point x="937" y="197"/>
      <point x="938" y="203" type="curve" smooth="yes"/>
      <point x="940" y="225"/>
      <point x="967" y="355"/>
      <point x="977" y="381" type="curve"/>
      <point x="950" y="388" type="line"/>
      <point x="877" y="194"/>
      <point x="780" y="60"/>
      <point x="647" y="60" type="curve" smooth="yes"/>
      <point x="450" y="60"/>
      <point x="396" y="253"/>
      <point x="396" y="445" type="curve" smooth="yes"/>
      <point x="396" y="687"/>
      <point x="493" y="1036"/>
      <point x="773" y="1036" type="curve" smooth="yes"/>
      <point x="851" y="1036"/>
      <point x="962" y="970"/>
      <point x="1016" y="829" type="curve"/>
      <point x="1022" y="1003" type="line"/>
      <point x="1056" y="1018"/>
      <point x="1095" y="1025"/>
      <point x="1133" y="1025" type="curve" smooth="yes"/>
      <point x="1195" y="1025"/>
      <point x="1255" y="1006"/>
      <point x="1295" y="970" type="curve"/>
      <point x="1273" y="767"/>
      <point x="1233" y="486"/>
      <point x="1186" y="310" type="curve"/>
      <point x="1210" y="306"/>
      <point x="1241" y="304"/>
      <point x="1275" y="304" type="curve" smooth="yes"/>
      <point x="1331" y="304"/>
      <point x="1394" y="316"/>
      <point x="1436" y="334" type="curve"/>
      <point x="1502" y="434"/>
      <point x="1548" y="672"/>
      <point x="1548" y="820" type="curve" smooth="yes"/>
      <point x="1548" y="1116"/>
      <point x="1380" y="1326"/>
      <point x="888" y="1326" type="curve" smooth="yes"/>
      <point x="359" y="1326"/>
      <point x="130" y="900"/>
    </contour>
    <contour>
      <point x="744" y="309" type="curve" smooth="yes"/>
      <point x="771" y="309"/>
      <point x="900" y="450"/>
      <point x="957" y="558" type="curve"/>
      <point x="966" y="594"/>
      <point x="969" y="646"/>
      <point x="969" y="680" type="curve" smooth="yes"/>
      <point x="969" y="692"/>
      <point x="969" y="701"/>
      <point x="968" y="707" type="curve"/>
      <point x="908" y="742"/>
      <point x="859" y="750"/>
      <point x="824" y="750" type="curve" smooth="yes"/>
      <point x="804" y="750"/>
      <point x="788" y="747"/>
      <point x="778" y="745" type="curve"/>
      <point x="744" y="715"/>
      <point x="722" y="578"/>
      <point x="722" y="468" type="curve" smooth="yes"/>
      <point x="722" y="430"/>
      <point x="729" y="309"/>
    </contour>
  </outline>
</glyph>
<glyph name="A" format="1">
  <advance width="1405"/>
  <unicode hex="0041"/>
  <outline>
    <contour>
      <point x="-21" y="92" type="curve"/>
      <point x="30" y="32"/>
      <point x="164" y="-21"/>
      <point x="289" y="-21" type="curve" smooth="yes"/>
      <point x="491" y="-21"/>
      <point x="503" y="87"/>
      <point x="578" y="423" type="curve"/>
      <point x="633" y="419"/>
      <point x="693" y="417"/>
      <point x="754" y="417" type="curve" smooth="yes"/>
      <point x="806" y="417"/>
      <point x="858" y="418"/>
      <point x="907" y="421" type="curve"/>
      <point x="932" y="287" type="line"/>
      <point x="920" y="29" type="line"/>
      <point x="949" y="-8"/>
      <point x="1050" y="-20"/>
      <point x="1110" y="-20" type="curve" smooth="yes"/>
      <point x="1206" y="-20"/>
      <point x="1267" y="-5"/>
      <point x="1313" y="13" type="curve"/>
      <point x="1359" y="53"/>
      <point x="1373" y="101"/>
      <point x="1373" y="149" type="curve" smooth="yes"/>
      <point x="1373" y="190"/>
      <point x="1362" y="231"/>
      <point x="1354" y="267" type="curve" smooth="yes"/>
      <point x="1267" y="662"/>
      <point x="1147" y="1146"/>
      <point x="1013" y="1514" type="curve"/>
      <point x="950" y="1550" type="line"/>
      <point x="901" y="1551"/>
      <point x="852" y="1551"/>
      <point x="803" y="1551" type="curve" smooth="yes"/>
      <point x="668" y="1551"/>
      <point x="361" y="1540"/>
      <point x="143" y="1498" type="curve"/>
      <point x="134" y="1461"/>
      <point x="129" y="1420"/>
      <point x="129" y="1379" type="curve" smooth="yes"/>
      <point x="129" y="1330"/>
      <point x="136" y="1280"/>
      <point x="152" y="1236" type="curve"/>
      <point x="393" y="1210" type="line"/>
      <point x="312" y="863"/>
      <point x="225" y="502"/>
      <point x="172" y="289" type="curve"/>
      <point x="125" y="300"/>
      <point x="100" y="308"/>
      <point x="61" y="321" type="curve"/>
      <point x="8" y="283"/>
      <point x="-21" y="183"/>
    </contour>
    <contour>
      <point x="644" y="708" type="line"/>
      <point x="716" y="1201" type="line"/>
      <point x="762" y="1201" type="line"/>
      <point x="868" y="708" type="line"/>
    </contour>
    <contour>
      <point x="679" y="0" type="move" name="top"/>
    </contour>
  </outline>
</glyph>
<glyph name="B" format="1">
  <advance width="1310"/>
  <unicode hex="0042"/>
  <outline>
    <contour>
      <point x="202" y="1" type="curve"/>
      <point x="318" y="-17"/>
      <point x="453" y="-20"/>
      <point x="593" y="-20" type="curve" smooth="yes"/>
      <point x="778" y="-20"/>
      <point x="950" y="11"/>
      <point x="1073" y="93" type="curve" smooth="yes"/>
      <point x="1184" y="167"/>
      <point x="1254" y="283"/>
      <point x="1254" y="452" type="curve" smooth="yes"/>
      <point x="1254" y="645"/>
      <point x="1107" y="746"/>
      <point x="965" y="771" type="curve"/>
      <point x="1089" y="848"/>
      <point x="1209" y="1043"/>
      <point x="1209" y="1175" type="curve" smooth="yes"/>
      <point x="1209" y="1526"/>
      <point x="929" y="1550"/>
      <point x="687" y="1550" type="curve" smooth="yes"/>
      <point x="465" y="1550"/>
      <point x="163" y="1521"/>
      <point x="-8" y="1464" type="curve"/>
      <point x="-11" y="1441"/>
      <point x="-13" y="1417"/>
      <point x="-13" y="1394" type="curve" smooth="yes"/>
      <point x="-13" y="1340"/>
      <point x="-4" y="1277"/>
      <point x="14" y="1226" type="curve"/>
      <point x="167" y="1205" type="line"/>
      <point x="168" y="1205" type="line"/>
      <point x="160" y="1061"/>
      <point x="159" y="893"/>
      <point x="159" y="740" type="curve" smooth="yes"/>
      <point x="159" y="438"/>
      <point x="170" y="174"/>
    </contour>
    <contour>
      <point x="524" y="787" type="curve"/>
      <point x="536" y="924"/>
      <point x="544" y="1083"/>
      <point x="548" y="1191" type="curve"/>
      <point x="566" y="1192"/>
      <point x="603" y="1194"/>
      <point x="625" y="1194" type="curve" smooth="yes"/>
      <point x="728" y="1194"/>
      <point x="789" y="1183"/>
      <point x="795" y="1172" type="curve"/>
      <point x="791" y="1094"/>
      <point x="766" y="910"/>
      <point x="728" y="803" type="curve"/>
      <point x="688" y="799"/>
      <point x="596" y="793"/>
    </contour>
    <contour>
      <point x="505" y="250" type="curve"/>
      <point x="506" y="329"/>
      <point x="510" y="418"/>
      <point x="511" y="512" type="curve"/>
      <point x="536" y="513"/>
      <point x="621" y="524"/>
      <point x="703" y="524" type="curve" smooth="yes"/>
      <point x="787" y="524"/>
      <point x="868" y="513"/>
      <point x="882" y="472" type="curve"/>
      <point x="882" y="403"/>
      <point x="852" y="280"/>
      <point x="798" y="249" type="curve"/>
      <point x="767" y="243"/>
      <point x="719" y="242"/>
      <point x="678" y="242" type="curve" smooth="yes"/>
      <point x="668" y="242"/>
      <point x="658" y="242"/>
      <point x="649" y="242" type="curve" smooth="yes"/>
      <point x="598" y="242"/>
      <point x="538" y="246"/>
    </contour>
    <contour>
      <point x="718" y="0" type="move" name="top"/>
    </contour>
  </outline>
</glyph>
<glyph name="C" format="1">
  <advance width="1220"/>
  <unicode hex="0043"/>
  <outline>
    <contour>
      <point x="669" y="-20" type="curve" smooth="yes"/>
      <point x="975" y="-20"/>
      <point x="1162" y="163"/>
      <point x="1186" y="211" type="curve"/>
      <point x="1173" y="316"/>
      <point x="1117" y="373"/>
      <point x="1066" y="429" type="curve"/>
      <point x="950" y="363"/>
      <point x="840" y="313"/>
      <point x="693" y="313" type="curve" smooth="yes"/>
      <point x="537" y="313"/>
      <point x="522" y="380"/>
      <point x="500" y="511" type="curve" smooth="yes"/>
      <point x="489" y="576"/>
      <point x="486" y="651"/>
      <point x="486" y="728" type="curve" smooth="yes"/>
      <point x="486" y="756"/>
      <point x="486" y="785"/>
      <point x="487" y="813" type="curve" smooth="yes"/>
      <point x="490" y="953"/>
      <point x="505" y="1088"/>
      <point x="535" y="1184" type="curve"/>
      <point x="551" y="1185"/>
      <point x="568" y="1185"/>
      <point x="585" y="1185" type="curve" smooth="yes"/>
      <point x="653" y="1185"/>
      <point x="722" y="1182"/>
      <point x="782" y="1165" type="curve"/>
      <point x="817" y="828" type="line"/>
      <point x="846" y="811"/>
      <point x="907" y="802"/>
      <point x="967" y="802" type="curve" smooth="yes"/>
      <point x="1022" y="802"/>
      <point x="1037" y="809"/>
      <point x="1067" y="824" type="curve"/>
      <point x="1123" y="887"/>
      <point x="1188" y="1222"/>
      <point x="1188" y="1363" type="curve"/>
      <point x="1135" y="1434"/>
      <point x="1079" y="1475"/>
      <point x="1016" y="1513" type="curve"/>
      <point x="892" y="1542"/>
      <point x="793" y="1552"/>
      <point x="699" y="1552" type="curve" smooth="yes"/>
      <point x="242" y="1552"/>
      <point x="56" y="1200"/>
      <point x="56" y="764" type="curve" smooth="yes"/>
      <point x="56" y="287"/>
      <point x="216" y="-20"/>
    </contour>
    <contour>
      <point x="628" y="0" type="move" name="btm"/>
    </contour>
    <contour>
      <point x="738" y="0" type="move" name="top"/>
    </contour>
  </outline>
</glyph>
<glyph name="E" format="1">
  <advance width="1202"/>
  <unicode hex="0045"/>
  <outline>
    <contour>
      <point x="187" y="-20" type="curve"/>
      <point x="310" y="-11"/>
      <point x="372" y="53"/>
      <point x="428" y="150" type="curve"/>
      <point x="524" y="72"/>
      <point x="813" y="-20"/>
      <point x="936" y="-20" type="curve" smooth="yes"/>
      <point x="1054" y="-20"/>
      <point x="1165" y="80"/>
      <point x="1165" y="245" type="curve" smooth="yes"/>
      <point x="1165" y="313"/>
      <point x="1149" y="375"/>
      <point x="1129" y="393" type="curve"/>
      <point x="496" y="356" type="line"/>
      <point x="505" y="425"/>
      <point x="518" y="501"/>
      <point x="530" y="581" type="curve"/>
      <point x="626" y="547"/>
      <point x="738" y="530"/>
      <point x="836" y="530" type="curve" smooth="yes"/>
      <point x="872" y="530"/>
      <point x="906" y="532"/>
      <point x="936" y="537" type="curve"/>
      <point x="959" y="562"/>
      <point x="987" y="641"/>
      <point x="987" y="724" type="curve" smooth="yes"/>
      <point x="987" y="776"/>
      <point x="976" y="829"/>
      <point x="947" y="873" type="curve"/>
      <point x="825" y="860"/>
      <point x="705" y="842"/>
      <point x="568" y="819" type="curve"/>
      <point x="589" y="960"/>
      <point x="606" y="1099"/>
      <point x="609" y="1214" type="curve"/>
      <point x="625" y="1216"/>
      <point x="641" y="1217"/>
      <point x="657" y="1217" type="curve" smooth="yes"/>
      <point x="718" y="1217"/>
      <point x="769" y="1213"/>
      <point x="807" y="1207" type="curve"/>
      <point x="841" y="989" type="line"/>
      <point x="870" y="972"/>
      <point x="902" y="963"/>
      <point x="951" y="963" type="curve" smooth="yes"/>
      <point x="1006" y="963"/>
      <point x="1041" y="970"/>
      <point x="1071" y="985" type="curve"/>
      <point x="1127" y="1048"/>
      <point x="1172" y="1243"/>
      <point x="1172" y="1384" type="curve"/>
      <point x="1119" y="1455"/>
      <point x="1063" y="1495"/>
      <point x="1000" y="1533" type="curve"/>
      <point x="926" y="1548"/>
      <point x="806" y="1550"/>
      <point x="729" y="1550" type="curve" smooth="yes"/>
      <point x="504" y="1550"/>
      <point x="196" y="1530"/>
      <point x="23" y="1464" type="curve"/>
      <point x="20" y="1441"/>
      <point x="18" y="1417"/>
      <point x="18" y="1394" type="curve" smooth="yes"/>
      <point x="18" y="1340"/>
      <point x="27" y="1277"/>
      <point x="45" y="1226" type="curve"/>
      <point x="199" y="1205" type="line"/>
      <point x="193" y="1091"/>
      <point x="191" y="965"/>
      <point x="191" y="838" type="curve" smooth="yes"/>
      <point x="191" y="685"/>
      <point x="194" y="530"/>
      <point x="197" y="395" type="curve"/>
      <point x="142" y="409"/>
      <point x="89" y="418"/>
      <point x="67" y="418" type="curve"/>
      <point x="41" y="359"/>
      <point x="30" y="300"/>
      <point x="30" y="245" type="curve" smooth="yes"/>
      <point x="30" y="106"/>
      <point x="101" y="-6"/>
    </contour>
    <contour>
      <point x="598" y="0" type="move" name="top"/>
    </contour>
  </outline>
</glyph>
<glyph name="I" format="1">
  <advance width="722"/>
  <unicode hex="0049"/>
  <outline>
    <contour>
      <point x="196" y="10" type="curve"/>
      <point x="245" y="-10"/>
      <point x="301" y="-21"/>
      <point x="358" y="-21" type="curve" smooth="yes"/>
      <point x="420" y="-21"/>
      <point x="484" y="-7"/>
      <point x="538" y="23" type="curve"/>
      <point x="556" y="278"/>
      <point x="607" y="907"/>
      <point x="607" y="1249" type="curve" smooth="yes"/>
      <point x="607" y="1285"/>
      <point x="606" y="1319"/>
      <point x="605" y="1348" type="curve" smooth="yes"/>
      <point x="599" y="1483"/>
      <point x="486" y="1550"/>
      <point x="338" y="1550" type="curve" smooth="yes"/>
      <point x="201" y="1550"/>
      <point x="44" y="1479"/>
      <point x="5" y="1430" type="curve"/>
      <point x="3" y="1357"/>
      <point x="10" y="1313"/>
      <point x="29" y="1235" type="curve"/>
      <point x="192" y="1214" type="line"/>
      <point x="186" y="1099"/>
      <point x="184" y="970"/>
      <point x="184" y="840" type="curve" smooth="yes"/>
      <point x="184" y="522"/>
      <point x="196" y="197"/>
      <point x="196" y="49" type="curve" smooth="yes"/>
      <point x="196" y="34"/>
      <point x="196" y="21"/>
    </contour>
    <contour>
      <point x="332" y="0" type="move" name="top"/>
    </contour>
  </outline>
</glyph>
<glyph name="J" format="1">
  <advance width="1117"/>
  <unicode hex="004A"/>
  <outline>
    <contour>
      <point x="57" y="-45" type="curve" smooth="yes"/>
      <point x="154" y="-341"/>
      <point x="318" y="-432"/>
      <point x="601" y="-432" type="curve" smooth="yes"/>
      <point x="710" y="-432"/>
      <point x="811" y="-402"/>
      <point x="868" y="-326" type="curve" smooth="yes"/>
      <point x="915" y="-263"/>
      <point x="930" y="-178"/>
      <point x="940" y="-87" type="curve" smooth="yes"/>
      <point x="960" y="88"/>
      <point x="975" y="705"/>
      <point x="984" y="904" type="curve" smooth="yes"/>
      <point x="988" y="1000"/>
      <point x="998" y="1307"/>
      <point x="1002" y="1444" type="curve"/>
      <point x="949" y="1506" type="line"/>
      <point x="836" y="1525"/>
      <point x="695" y="1538"/>
      <point x="568" y="1538" type="curve" smooth="yes"/>
      <point x="511" y="1538"/>
      <point x="456" y="1535"/>
      <point x="408" y="1529" type="curve" smooth="yes"/>
      <point x="331" y="1520"/>
      <point x="267" y="1510"/>
      <point x="218" y="1484" type="curve"/>
      <point x="131" y="1448"/>
      <point x="88" y="1366"/>
      <point x="88" y="1247" type="curve" smooth="yes"/>
      <point x="88" y="1110"/>
      <point x="159" y="943"/>
      <point x="208" y="904" type="curve"/>
      <point x="281" y="902"/>
      <point x="335" y="909"/>
      <point x="413" y="928" type="curve"/>
      <point x="416" y="1209" type="line"/>
      <point x="474" y="1214"/>
      <point x="539" y="1217"/>
      <point x="591" y="1219" type="curve"/>
      <point x="587" y="1170"/>
      <point x="585" y="1097"/>
      <point x="585" y="1011" type="curve" smooth="yes"/>
      <point x="585" y="897"/>
      <point x="588" y="761"/>
      <point x="592" y="628" type="curve" smooth="yes"/>
      <point x="598" y="428"/>
      <point x="602" y="220"/>
      <point x="602" y="57" type="curve" smooth="yes"/>
      <point x="602" y="-23"/>
      <point x="601" y="-92"/>
      <point x="599" y="-145" type="curve"/>
      <point x="582" y="-143"/>
      <point x="553" y="-146"/>
      <point x="522" y="-146" type="curve" smooth="yes"/>
      <point x="501" y="-146"/>
      <point x="479" y="-145"/>
      <point x="460" y="-140" type="curve"/>
      <point x="390" y="82"/>
      <point x="394" y="252"/>
      <point x="391" y="415" type="curve"/>
      <point x="348" y="434"/>
      <point x="302" y="441"/>
      <point x="258" y="441" type="curve" smooth="yes"/>
      <point x="201" y="441"/>
      <point x="148" y="428"/>
      <point x="112" y="409" type="curve"/>
      <point x="48" y="333"/>
      <point x="27" y="237"/>
      <point x="27" y="148" type="curve" smooth="yes"/>
      <point x="27" y="74"/>
      <point x="41" y="5"/>
    </contour>
    <contour>
      <point x="589" y="0" type="move" name="top"/>
    </contour>
  </outline>
</glyph>
<glyph name="K" format="1">
  <advance width="1313"/>
  <unicode hex="004B"/>
  <outline>
    <contour>
      <point x="136" y="10" type="curve"/>
      <point x="185" y="-10"/>
      <point x="241" y="-21"/>
      <point x="298" y="-21" type="curve" smooth="yes"/>
      <point x="360" y="-21"/>
      <point x="423" y="-7"/>
      <point x="478" y="23" type="curve"/>
      <point x="484" y="115"/>
      <point x="493" y="256"/>
      <point x="501" y="414" type="curve"/>
      <point x="546" y="417"/>
      <point x="589" y="421"/>
      <point x="632" y="431" type="curve"/>
      <point x="654" y="257"/>
      <point x="732" y="47"/>
      <point x="891" y="-2" type="curve" smooth="yes"/>
      <point x="926" y="-13"/>
      <point x="965" y="-19"/>
      <point x="1005" y="-19" type="curve" smooth="yes"/>
      <point x="1229" y="-19"/>
      <point x="1325" y="134"/>
      <point x="1325" y="334" type="curve" smooth="yes"/>
      <point x="1325" y="356" type="line"/>
      <point x="1202" y="449" type="line"/>
      <point x="1162" y="407"/>
      <point x="1128" y="365"/>
      <point x="1088" y="345" type="curve"/>
      <point x="1030" y="407"/>
      <point x="949" y="539"/>
      <point x="884" y="673" type="curve"/>
      <point x="1042" y="862"/>
      <point x="1246" y="1144"/>
      <point x="1246" y="1331" type="curve" smooth="yes"/>
      <point x="1246" y="1484"/>
      <point x="1127" y="1552"/>
      <point x="990" y="1552" type="curve" smooth="yes"/>
      <point x="853" y="1552"/>
      <point x="707" y="1481"/>
      <point x="668" y="1432" type="curve"/>
      <point x="668" y="1409" type="line" smooth="yes"/>
      <point x="668" y="1349"/>
      <point x="675" y="1306"/>
      <point x="692" y="1237" type="curve"/>
      <point x="816" y="1216" type="line"/>
      <point x="783" y="1076"/>
      <point x="655" y="778"/>
      <point x="574" y="634" type="curve"/>
      <point x="512" y="620" type="line"/>
      <point x="525" y="896"/>
      <point x="536" y="1185"/>
      <point x="536" y="1348" type="curve" smooth="yes"/>
      <point x="536" y="1493"/>
      <point x="426" y="1550"/>
      <point x="278" y="1550" type="curve" smooth="yes"/>
      <point x="141" y="1550"/>
      <point x="14" y="1479"/>
      <point x="-25" y="1430" type="curve"/>
      <point x="-25" y="1407" type="line" smooth="yes"/>
      <point x="-25" y="1347"/>
      <point x="-18" y="1304"/>
      <point x="-1" y="1235" type="curve"/>
      <point x="132" y="1214" type="line"/>
      <point x="124" y="1104"/>
      <point x="122" y="994"/>
      <point x="122" y="884" type="curve" smooth="yes"/>
      <point x="122" y="623"/>
      <point x="137" y="363"/>
      <point x="137" y="103" type="curve" smooth="yes"/>
      <point x="137" y="72"/>
      <point x="136" y="41"/>
    </contour>
    <contour>
      <point x="628" y="0" type="move" name="btm"/>
    </contour>
  </outline>
</glyph>
<glyph name="L" format="1">
  <advance width="1145"/>
  <unicode hex="004C"/>
  <outline>
    <contour>
      <point x="197" y="-20" type="curve"/>
      <point x="320" y="-11"/>
      <point x="392" y="53"/>
      <point x="448" y="150" type="curve"/>
      <point x="544" y="72"/>
      <point x="743" y="-20"/>
      <point x="866" y="-20" type="curve" smooth="yes"/>
      <point x="936" y="-20"/>
      <point x="1054" y="16"/>
      <point x="1105" y="84" type="curve" smooth="yes"/>
      <point x="1140" y="132"/>
      <point x="1153" y="219"/>
      <point x="1153" y="313" type="curve" smooth="yes"/>
      <point x="1153" y="453"/>
      <point x="1125" y="607"/>
      <point x="1104" y="663" type="curve"/>
      <point x="1044" y="685"/>
      <point x="952" y="697"/>
      <point x="892" y="695" type="curve"/>
      <point x="788" y="363" type="line"/>
      <point x="533" y="377" type="line"/>
      <point x="576" y="647"/>
      <point x="640" y="1031"/>
      <point x="640" y="1275" type="curve" smooth="yes"/>
      <point x="640" y="1306"/>
      <point x="639" y="1334"/>
      <point x="637" y="1360" type="curve" smooth="yes"/>
      <point x="625" y="1496"/>
      <point x="532" y="1550"/>
      <point x="384" y="1550" type="curve" smooth="yes"/>
      <point x="268" y="1550"/>
      <point x="89" y="1506"/>
      <point x="22" y="1430" type="curve"/>
      <point x="20" y="1357"/>
      <point x="27" y="1313"/>
      <point x="46" y="1235" type="curve"/>
      <point x="209" y="1214" type="line"/>
      <point x="209" y="1210"/>
      <point x="208" y="1206"/>
      <point x="208" y="1202" type="curve"/>
      <point x="209" y="1202" type="line"/>
      <point x="203" y="1085"/>
      <point x="201" y="955"/>
      <point x="201" y="825" type="curve" smooth="yes"/>
      <point x="201" y="680"/>
      <point x="203" y="534"/>
      <point x="206" y="405" type="curve"/>
      <point x="152" y="419"/>
      <point x="99" y="428"/>
      <point x="77" y="428" type="curve"/>
      <point x="51" y="369"/>
      <point x="40" y="309"/>
      <point x="40" y="253" type="curve" smooth="yes"/>
      <point x="40" y="111"/>
      <point x="111" y="-6"/>
    </contour>
  </outline>
</glyph>
<glyph name="O" format="1">
  <advance width="1387"/>
  <unicode hex="004F"/>
  <outline>
    <contour>
      <point x="691" y="-20" type="curve" smooth="yes"/>
      <point x="1170" y="-20"/>
      <point x="1320" y="325"/>
      <point x="1320" y="756" type="curve" smooth="yes"/>
      <point x="1320" y="1194"/>
      <point x="1210" y="1550"/>
      <point x="691" y="1550" type="curve" smooth="yes"/>
      <point x="209" y="1550"/>
      <point x="67" y="1194"/>
      <point x="67" y="756" type="curve" smooth="yes"/>
      <point x="67" y="321"/>
      <point x="209" y="-20"/>
    </contour>
    <contour>
      <point x="548" y="330" type="curve"/>
      <point x="520" y="423"/>
      <point x="496" y="624"/>
      <point x="496" y="811" type="curve" smooth="yes"/>
      <point x="496" y="961"/>
      <point x="511" y="1101"/>
      <point x="552" y="1171" type="curve"/>
      <point x="568" y="1180"/>
      <point x="608" y="1185"/>
      <point x="653" y="1185" type="curve" smooth="yes"/>
      <point x="725" y="1184"/>
      <point x="800" y="1172"/>
      <point x="835" y="1144" type="curve"/>
      <point x="868" y="1076"/>
      <point x="886" y="889"/>
      <point x="886" y="707" type="curve" smooth="yes"/>
      <point x="886" y="536"/>
      <point x="870" y="369"/>
      <point x="835" y="308" type="curve"/>
      <point x="827" y="302"/>
      <point x="788" y="299"/>
      <point x="741" y="299" type="curve" smooth="yes"/>
      <point x="665" y="299"/>
      <point x="568" y="308"/>
    </contour>
    <contour>
      <point x="691" y="0" type="move" name="top"/>
    </contour>
  </outline>
</glyph>
<glyph name="P" format="1">
  <advance width="1300"/>
  <unicode hex="0050"/>
  <outline>
    <contour>
      <point x="193" y="211" type="curve"/>
      <point x="193" y="29"/>
      <point x="286" y="-19"/>
      <point x="398" y="-19" type="curve" smooth="yes"/>
      <point x="611" y="-19"/>
      <point x="730" y="126"/>
      <point x="730" y="126" type="curve"/>
      <point x="727" y="191"/>
      <point x="711" y="252"/>
      <point x="679" y="304" type="curve"/>
      <point x="530" y="294" type="line"/>
      <point x="529" y="341"/>
      <point x="531" y="390"/>
      <point x="533" y="442" type="curve"/>
      <point x="591" y="442"/>
      <point x="729" y="444"/>
      <point x="880" y="468" type="curve" smooth="yes"/>
      <point x="952" y="480"/>
      <point x="1012" y="524"/>
      <point x="1060" y="582" type="curve" smooth="yes"/>
      <point x="1168" y="711"/>
      <point x="1295" y="989"/>
      <point x="1295" y="1165" type="curve" smooth="yes"/>
      <point x="1295" y="1525"/>
      <point x="1015" y="1550"/>
      <point x="773" y="1550" type="curve" smooth="yes"/>
      <point x="548" y="1550"/>
      <point x="198" y="1528"/>
      <point x="18" y="1464" type="curve"/>
      <point x="15" y="1441"/>
      <point x="13" y="1417"/>
      <point x="13" y="1394" type="curve" smooth="yes"/>
      <point x="13" y="1340"/>
      <point x="22" y="1276"/>
      <point x="40" y="1225" type="curve"/>
      <point x="183" y="1204" type="line"/>
      <point x="184" y="1204" type="line"/>
      <point x="176" y="1060"/>
      <point x="175" y="893"/>
      <point x="175" y="740" type="curve"/>
      <point x="176" y="739" type="line"/>
      <point x="176" y="546"/>
      <point x="181" y="358"/>
    </contour>
    <contour>
      <point x="550" y="706" type="line"/>
      <point x="562" y="850"/>
      <point x="570" y="1053"/>
      <point x="574" y="1191" type="curve"/>
      <point x="612" y="1193"/>
      <point x="663" y="1195"/>
      <point x="701" y="1195" type="curve" smooth="yes"/>
      <point x="804" y="1195"/>
      <point x="865" y="1183"/>
      <point x="871" y="1172" type="curve"/>
      <point x="868" y="1048"/>
      <point x="842" y="868"/>
      <point x="808" y="723" type="curve"/>
    </contour>
    <contour>
      <point x="758" y="0" type="move" name="top"/>
    </contour>
  </outline>
</glyph>
<glyph name="R" format="1">
  <advance width="1409"/>
  <unicode hex="0052"/>
  <outline>
    <contour>
      <point x="209" y="1" type="curve"/>
      <point x="254" y="-12"/>
      <point x="306" y="-20"/>
      <point x="360" y="-20" type="curve" smooth="yes"/>
      <point x="449" y="-20"/>
      <point x="542" y="0"/>
      <point x="605" y="38" type="curve"/>
      <point x="592" y="131"/>
      <point x="562" y="283"/>
      <point x="543" y="433" type="curve"/>
      <point x="771" y="423" type="line"/>
      <point x="781" y="332"/>
      <point x="806" y="192"/>
      <point x="861" y="97" type="curve" smooth="yes"/>
      <point x="915" y="4"/>
      <point x="1002" y="-20"/>
      <point x="1090" y="-20" type="curve" smooth="yes"/>
      <point x="1303" y="-20"/>
      <point x="1432" y="175"/>
      <point x="1432" y="175" type="curve"/>
      <point x="1424" y="246"/>
      <point x="1395" y="307"/>
      <point x="1341" y="353" type="curve"/>
      <point x="1201" y="294" type="line"/>
      <point x="1103" y="430"/>
      <point x="1071" y="519"/>
      <point x="1046" y="584" type="curve"/>
      <point x="1112" y="650"/>
      <point x="1175" y="745"/>
      <point x="1222" y="846" type="curve" smooth="yes"/>
      <point x="1273" y="955"/>
      <point x="1305" y="1071"/>
      <point x="1305" y="1165" type="curve" smooth="yes"/>
      <point x="1305" y="1525"/>
      <point x="1025" y="1550"/>
      <point x="783" y="1550" type="curve" smooth="yes"/>
      <point x="558" y="1550"/>
      <point x="210" y="1531"/>
      <point x="17" y="1464" type="curve"/>
      <point x="14" y="1441"/>
      <point x="12" y="1417"/>
      <point x="12" y="1394" type="curve" smooth="yes"/>
      <point x="12" y="1340"/>
      <point x="21" y="1276"/>
      <point x="39" y="1225" type="curve"/>
      <point x="174" y="1204" type="line"/>
      <point x="169" y="1092"/>
      <point x="166" y="947"/>
      <point x="166" y="794" type="curve" smooth="yes"/>
      <point x="166" y="475"/>
      <point x="178" y="127"/>
    </contour>
    <contour>
      <point x="540" y="657" type="line"/>
      <point x="552" y="801"/>
      <point x="560" y="1052"/>
      <point x="564" y="1190" type="curve"/>
      <point x="604" y="1194"/>
      <point x="662" y="1195"/>
      <point x="714" y="1195" type="curve" smooth="yes"/>
      <point x="770" y="1195"/>
      <point x="841" y="1187"/>
      <point x="881" y="1172" type="curve"/>
      <point x="862" y="993"/>
      <point x="840" y="821"/>
      <point x="788" y="674" type="curve"/>
    </contour>
    <contour>
      <point x="712" y="0" type="move" name="btm"/>
    </contour>
    <contour>
      <point x="746" y="0" type="move" name="top"/>
    </contour>
  </outline>
</glyph>
<glyph name="S" format="1">
  <advance width="1110"/>
  <unicode hex="0053"/>
  <outline>
    <contour>
      <point x="60" y="173" type="curve"/>
      <point x="156" y="18"/>
      <point x="360" y="-19"/>
      <point x="475" y="-19" type="curve" smooth="yes"/>
      <point x="606" y="-19"/>
      <point x="704" y="-6"/>
      <point x="790" y="28" type="curve" smooth="yes"/>
      <point x="936" y="85"/>
      <point x="1054" y="220"/>
      <point x="1054" y="417" type="curve" smooth="yes"/>
      <point x="1054" y="676"/>
      <point x="853" y="782"/>
      <point x="636" y="896" type="curve" smooth="yes"/>
      <point x="550" y="941"/>
      <point x="418" y="982"/>
      <point x="418" y="1096" type="curve" smooth="yes"/>
      <point x="418" y="1144"/>
      <point x="429" y="1191"/>
      <point x="482" y="1216" type="curve"/>
      <point x="502" y="1217"/>
      <point x="604" y="1210"/>
      <point x="693" y="1186" type="curve"/>
      <point x="724" y="978" type="line"/>
      <point x="753" y="961"/>
      <point x="784" y="952"/>
      <point x="844" y="952" type="curve" smooth="yes"/>
      <point x="899" y="952"/>
      <point x="934" y="959"/>
      <point x="964" y="974" type="curve"/>
      <point x="1020" y="1037"/>
      <point x="1065" y="1232"/>
      <point x="1065" y="1373" type="curve"/>
      <point x="1012" y="1444"/>
      <point x="956" y="1485"/>
      <point x="893" y="1523" type="curve"/>
      <point x="758" y="1551"/>
      <point x="593" y="1550"/>
      <point x="540" y="1550" type="curve" smooth="yes"/>
      <point x="172" y="1550"/>
      <point x="40" y="1342"/>
      <point x="40" y="1078" type="curve" smooth="yes"/>
      <point x="40" y="764"/>
      <point x="270" y="646"/>
      <point x="496" y="531" type="curve" smooth="yes"/>
      <point x="566" y="495"/>
      <point x="706" y="446"/>
      <point x="702" y="356" type="curve" smooth="yes"/>
      <point x="701" y="343"/>
      <point x="698" y="318"/>
      <point x="691" y="303" type="curve"/>
      <point x="673" y="294"/>
      <point x="639" y="288"/>
      <point x="612" y="288" type="curve" smooth="yes"/>
      <point x="441" y="288"/>
      <point x="284" y="354"/>
      <point x="134" y="420" type="curve"/>
      <point x="78" y="356"/>
      <point x="56" y="282"/>
      <point x="56" y="219" type="curve" smooth="yes"/>
      <point x="56" y="203"/>
      <point x="57" y="187"/>
    </contour>
    <contour>
      <point x="577" y="0" type="move" name="top"/>
    </contour>
  </outline>
</glyph>
<glyph name="U" format="1">
  <advance width="1442"/>
  <unicode hex="0055"/>
  <outline>
    <contour>
      <point x="165" y="378" type="curve" smooth="yes"/>
      <point x="165" y="187"/>
      <point x="219" y="-20"/>
      <point x="452" y="-20" type="curve" smooth="yes"/>
      <point x="669" y="-20"/>
      <point x="793" y="167"/>
      <point x="885" y="349" type="curve"/>
      <point x="915" y="339" type="line"/>
      <point x="905" y="315"/>
      <point x="891" y="190"/>
      <point x="891" y="169" type="curve" smooth="yes"/>
      <point x="891" y="64"/>
      <point x="952" y="-20"/>
      <point x="1075" y="-20" type="curve" smooth="yes"/>
      <point x="1250" y="-20"/>
      <point x="1391" y="138"/>
      <point x="1416" y="189" type="curve"/>
      <point x="1406" y="280"/>
      <point x="1365" y="344"/>
      <point x="1330" y="380" type="curve"/>
      <point x="1207" y="326" type="line"/>
      <point x="1256" y="512"/>
      <point x="1312" y="1103"/>
      <point x="1312" y="1273" type="curve" smooth="yes"/>
      <point x="1312" y="1355"/>
      <point x="1305" y="1443"/>
      <point x="1281" y="1496" type="curve"/>
      <point x="1225" y="1537"/>
      <point x="1146" y="1550"/>
      <point x="1077" y="1550" type="curve" smooth="yes"/>
      <point x="993" y="1550"/>
      <point x="884" y="1521"/>
      <point x="820" y="1458" type="curve"/>
      <point x="870" y="1239"/>
      <point x="895" y="890"/>
      <point x="907" y="660" type="curve"/>
      <point x="840" y="533"/>
      <point x="606" y="344"/>
      <point x="578" y="355" type="curve"/>
      <point x="562" y="359"/>
      <point x="546" y="368"/>
      <point x="533" y="382" type="curve"/>
      <point x="550" y="556"/>
      <point x="621" y="1090"/>
      <point x="621" y="1273" type="curve" smooth="yes"/>
      <point x="621" y="1458"/>
      <point x="527" y="1550"/>
      <point x="344" y="1550" type="curve" smooth="yes"/>
      <point x="218" y="1550"/>
      <point x="129" y="1523"/>
      <point x="20" y="1462" type="curve"/>
      <point x="20" y="1355"/>
      <point x="24" y="1343"/>
      <point x="56" y="1244" type="curve"/>
      <point x="186" y="1228" type="line"/>
      <point x="169" y="1058"/>
      <point x="165" y="559"/>
    </contour>
    <contour>
      <point x="696" y="0" type="move" name="top"/>
    </contour>
  </outline>
</glyph>
<glyph name="V" format="1">
  <advance width="1281"/>
  <unicode hex="0056"/>
  <outline>
    <contour>
      <point x="338" y="103" type="line"/>
      <point x="376" y="29"/>
      <point x="509" y="-20"/>
      <point x="623" y="-20" type="curve" smooth="yes"/>
      <point x="673" y="-20"/>
      <point x="734" y="-9"/>
      <point x="775" y="18" type="curve"/>
      <point x="908" y="170"/>
      <point x="1097" y="583"/>
      <point x="1162" y="776" type="curve" smooth="yes"/>
      <point x="1227" y="972"/>
      <point x="1264" y="1164"/>
      <point x="1261" y="1292" type="curve" smooth="yes"/>
      <point x="1258" y="1465"/>
      <point x="1175" y="1551"/>
      <point x="996" y="1551" type="curve" smooth="yes"/>
      <point x="852" y="1551"/>
      <point x="710" y="1480"/>
      <point x="669" y="1431" type="curve"/>
      <point x="670" y="1421"/>
      <point x="669" y="1412"/>
      <point x="669" y="1403" type="curve" smooth="yes"/>
      <point x="670" y="1345"/>
      <point x="677" y="1301"/>
      <point x="696" y="1234" type="curve"/>
      <point x="828" y="1215" type="line"/>
      <point x="829" y="1018"/>
      <point x="718" y="458"/>
      <point x="664" y="341" type="curve"/>
      <point x="641" y="337" type="line"/>
      <point x="630" y="505"/>
      <point x="598" y="708"/>
      <point x="561" y="900" type="curve"/>
      <point x="524" y="1101"/>
      <point x="481" y="1293"/>
      <point x="410" y="1415" type="curve" smooth="yes"/>
      <point x="350" y="1519"/>
      <point x="259" y="1552"/>
      <point x="167" y="1549" type="curve" smooth="yes"/>
      <point x="39" y="1546"/>
      <point x="-52" y="1483"/>
      <point x="-97" y="1371" type="curve"/>
      <point x="-97" y="1316"/>
      <point x="-83" y="1253"/>
      <point x="-60" y="1184" type="curve"/>
      <point x="27" y="1177" type="line"/>
      <point x="98" y="1080"/>
      <point x="314" y="427"/>
      <point x="375" y="226" type="curve"/>
    </contour>
  </outline>
</glyph>
<glyph name="Y" format="1">
  <advance width="1237"/>
  <unicode hex="0059"/>
  <outline>
    <contour>
      <point x="404" y="224" type="line" smooth="yes"/>
      <point x="402" y="31"/>
      <point x="509" y="-19"/>
      <point x="623" y="-19" type="curve" smooth="yes"/>
      <point x="836" y="-19"/>
      <point x="965" y="176"/>
      <point x="965" y="176" type="curve"/>
      <point x="957" y="247"/>
      <point x="928" y="308"/>
      <point x="874" y="354" type="curve"/>
      <point x="726" y="292" type="line"/>
      <point x="724" y="294" type="line"/>
      <point x="738" y="356"/>
      <point x="750" y="424"/>
      <point x="762" y="496" type="curve"/>
      <point x="890" y="635"/>
      <point x="1255" y="1096"/>
      <point x="1255" y="1331" type="curve" smooth="yes"/>
      <point x="1255" y="1353"/>
      <point x="1252" y="1377"/>
      <point x="1244" y="1404" type="curve" smooth="yes"/>
      <point x="1215" y="1503"/>
      <point x="1136" y="1552"/>
      <point x="1009" y="1552" type="curve" smooth="yes"/>
      <point x="872" y="1552"/>
      <point x="726" y="1481"/>
      <point x="687" y="1432" type="curve"/>
      <point x="685" y="1359"/>
      <point x="692" y="1315"/>
      <point x="711" y="1237" type="curve"/>
      <point x="833" y="1216" type="line"/>
      <point x="835" y="1216" type="line"/>
      <point x="807" y="1097"/>
      <point x="712" y="867"/>
      <point x="634" y="712" type="curve"/>
      <point x="583" y="997"/>
      <point x="460" y="1343"/>
      <point x="431" y="1410" type="curve"/>
      <point x="400" y="1503"/>
      <point x="321" y="1550"/>
      <point x="198" y="1550" type="curve" smooth="yes"/>
      <point x="61" y="1550"/>
      <point x="-85" y="1479"/>
      <point x="-124" y="1430" type="curve"/>
      <point x="-126" y="1357"/>
      <point x="-119" y="1313"/>
      <point x="-100" y="1235" type="curve"/>
      <point x="52" y="1214" type="line"/>
      <point x="131" y="954"/>
      <point x="321" y="605"/>
      <point x="406" y="472" type="curve"/>
    </contour>
    <contour>
      <point x="612" y="0" type="move" name="top"/>
    </contour>
  </outline>
</glyph>
<glyph name="bracketleft" format="1">
  <advance width="746"/>
  <unicode hex="005B"/>
  <outline>
    <contour>
      <point x="187" y="-33" type="line" smooth="yes"/>
      <point x="191" y="-159"/>
      <point x="197" y="-292"/>
      <point x="367" y="-292" type="curve" smooth="yes"/>
      <point x="614" y="-292" type="line"/>
      <point x="640" y="-226"/>
      <point x="652" y="-184"/>
      <point x="652" y="-96" type="curve"/>
      <point x="627" y="-64"/>
      <point x="562" y="-28"/>
      <point x="470" y="-28" type="curve" smooth="yes"/>
      <point x="467" y="-28" type="line"/>
      <point x="477" y="1556" type="line"/>
      <point x="581" y="1581"/>
      <point x="652" y="1612"/>
      <point x="705" y="1657" type="curve"/>
      <point x="706" y="1720"/>
      <point x="699" y="1782"/>
      <point x="687" y="1845" type="curve"/>
      <point x="240" y="1832" type="line" smooth="yes"/>
      <point x="185" y="1830"/>
      <point x="126" y="1765"/>
      <point x="128" y="1710" type="curve" smooth="yes"/>
    </contour>
  </outline>
</glyph>
<glyph name="asciicircum" format="1">
  <advance width="1209"/>
  <unicode hex="005E"/>
  <outline>
    <contour>
      <point x="282" y="327" type="curve"/>
      <point x="576" y="956" type="line"/>
      <point x="920" y="327" type="line"/>
      <point x="997" y="336"/>
      <point x="1126" y="413"/>
      <point x="1150" y="470" type="curve"/>
      <point x="786" y="1449" type="line"/>
      <point x="767" y="1453"/>
      <point x="746" y="1454"/>
      <point x="726" y="1454" type="curve" smooth="yes"/>
      <point x="626" y="1454"/>
      <point x="479" y="1427"/>
      <point x="439" y="1392" type="curve"/>
      <point x="381" y="1299"/>
      <point x="95" y="583"/>
      <point x="56" y="460" type="curve"/>
      <point x="89" y="404"/>
      <point x="199" y="334"/>
    </contour>
  </outline>
</glyph>
<glyph name="a" format="1">
  <advance width="1160"/>
  <unicode hex="0061"/>
  <outline>
    <contour>
      <point x="65" y="320" type="curve" smooth="yes"/>
      <point x="65" y="101"/>
      <point x="215" y="-20"/>
      <point x="355" y="-20" type="curve" smooth="yes"/>
      <point x="466" y="-20"/>
      <point x="633" y="18"/>
      <point x="675" y="254" type="curve"/>
      <point x="705" y="245" type="line"/>
      <point x="696" y="214"/>
      <point x="692" y="184"/>
      <point x="692" y="156" type="curve" smooth="yes"/>
      <point x="692" y="58"/>
      <point x="745" y="-20"/>
      <point x="860" y="-20" type="curve" smooth="yes"/>
      <point x="1023" y="-20"/>
      <point x="1155" y="127"/>
      <point x="1178" y="175" type="curve"/>
      <point x="1169" y="260"/>
      <point x="1130" y="319"/>
      <point x="1098" y="353" type="curve"/>
      <point x="953" y="291" type="line"/>
      <point x="952" y="291"/>
      <point x="1031" y="579"/>
      <point x="1031" y="768" type="curve" smooth="yes"/>
      <point x="1031" y="1128"/>
      <point x="769" y="1185"/>
      <point x="527" y="1185" type="curve" smooth="yes"/>
      <point x="246" y="1185"/>
      <point x="117" y="1066"/>
      <point x="108" y="1059" type="curve"/>
      <point x="106" y="1046"/>
      <point x="105" y="1033"/>
      <point x="105" y="1021" type="curve" smooth="yes"/>
      <point x="105" y="930"/>
      <point x="151" y="841"/>
      <point x="195" y="768" type="curve"/>
      <point x="265" y="790"/>
      <point x="365" y="821"/>
      <point x="455" y="821" type="curve" smooth="yes"/>
      <point x="605" y="821"/>
      <point x="639" y="779"/>
      <point x="645" y="768" type="curve"/>
      <point x="649" y="750"/>
      <point x="651" y="685"/>
      <point x="651" y="649" type="curve" smooth="yes"/>
      <point x="651" y="618" type="line"/>
      <point x="578" y="639"/>
      <point x="473" y="659"/>
      <point x="389" y="659" type="curve" smooth="yes"/>
      <point x="180" y="659"/>
      <point x="65" y="543"/>
    </contour>
    <contour>
      <point x="435" y="365" type="curve" smooth="yes"/>
      <point x="435" y="404"/>
      <point x="452" y="428"/>
      <point x="467" y="445" type="curve"/>
      <point x="481" y="451"/>
      <point x="506" y="453"/>
      <point x="537" y="453" type="curve" smooth="yes"/>
      <point x="572" y="453"/>
      <point x="612" y="451"/>
      <point x="650" y="446" type="curve"/>
      <point x="656" y="422" type="line"/>
      <point x="645" y="361"/>
      <point x="553" y="287"/>
      <point x="503" y="278" type="curve"/>
      <point x="452" y="283"/>
      <point x="435" y="329"/>
    </contour>
    <contour>
      <point x="529" y="0" type="move" name="top"/>
    </contour>
  </outline>
</glyph>
<glyph name="b" format="1">
  <advance width="1233"/>
  <unicode hex="0062"/>
  <outline>
    <contour>
      <point x="129" y="34" type="curve"/>
      <point x="129" y="34"/>
      <point x="186" y="-20"/>
      <point x="353" y="-20" type="curve"/>
      <point x="373" y="-3"/>
      <point x="401" y="36"/>
      <point x="419" y="65" type="curve"/>
      <point x="566" y="0"/>
      <point x="679" y="-20"/>
      <point x="739" y="-20" type="curve" smooth="yes"/>
      <point x="925" y="-20"/>
      <point x="1044" y="97"/>
      <point x="1094" y="267" type="curve" smooth="yes"/>
      <point x="1147" y="448"/>
      <point x="1182" y="673"/>
      <point x="1182" y="842" type="curve" smooth="yes"/>
      <point x="1182" y="1015"/>
      <point x="1102" y="1185"/>
      <point x="871" y="1185" type="curve" smooth="yes"/>
      <point x="662" y="1185"/>
      <point x="539" y="996"/>
      <point x="481" y="771" type="curve" smooth="yes"/>
      <point x="447" y="639" type="line"/>
      <point x="415" y="650" type="line"/>
      <point x="443" y="820" type="line" smooth="yes"/>
      <point x="480" y="1042"/>
      <point x="495" y="1287"/>
      <point x="495" y="1367" type="curve" smooth="yes"/>
      <point x="495" y="1540"/>
      <point x="416" y="1623"/>
      <point x="252" y="1623" type="curve" smooth="yes"/>
      <point x="135" y="1623"/>
      <point x="17" y="1539"/>
      <point x="-8" y="1506" type="curve"/>
      <point x="-8" y="1438"/>
      <point x="-1" y="1373"/>
      <point x="16" y="1308" type="curve"/>
      <point x="129" y="1288" type="line"/>
      <point x="117" y="1090"/>
      <point x="110" y="840"/>
      <point x="110" y="605" type="curve" smooth="yes"/>
      <point x="110" y="383"/>
      <point x="116" y="175"/>
    </contour>
    <contour>
      <point x="483" y="331" type="curve"/>
      <point x="483" y="379" type="line"/>
      <point x="530" y="474"/>
      <point x="680" y="743"/>
      <point x="700" y="760" type="curve"/>
      <point x="729" y="760"/>
      <point x="752" y="749"/>
      <point x="766" y="731" type="curve"/>
      <point x="770" y="708"/>
      <point x="771" y="682"/>
      <point x="771" y="655" type="curve" smooth="yes"/>
      <point x="771" y="537"/>
      <point x="766" y="362"/>
      <point x="735" y="246" type="curve"/>
      <point x="732" y="244"/>
      <point x="727" y="244"/>
      <point x="720" y="244" type="curve" smooth="yes"/>
      <point x="676" y="244"/>
      <point x="563" y="276"/>
    </contour>
  </outline>
</glyph>
<glyph name="d" format="1">
  <advance width="1263"/>
  <unicode hex="0064"/>
  <outline>
    <contour>
      <point x="428" y="-20" type="curve" smooth="yes"/>
      <point x="593" y="-20"/>
      <point x="703" y="94"/>
      <point x="771" y="333" type="curve"/>
      <point x="801" y="324" type="line"/>
      <point x="792" y="293"/>
      <point x="773" y="184"/>
      <point x="773" y="156" type="curve" smooth="yes"/>
      <point x="773" y="58"/>
      <point x="830" y="-20"/>
      <point x="945" y="-20" type="curve" smooth="yes"/>
      <point x="1108" y="-20"/>
      <point x="1240" y="127"/>
      <point x="1263" y="175" type="curve"/>
      <point x="1254" y="260"/>
      <point x="1215" y="319"/>
      <point x="1183" y="353" type="curve"/>
      <point x="1067" y="303" type="line"/>
      <point x="1071" y="320" type="line"/>
      <point x="1109" y="549"/>
      <point x="1132" y="950"/>
      <point x="1132" y="1206" type="curve" smooth="yes"/>
      <point x="1132" y="1491"/>
      <point x="1098" y="1623"/>
      <point x="885" y="1623" type="curve" smooth="yes"/>
      <point x="768" y="1623"/>
      <point x="628" y="1596"/>
      <point x="543" y="1536" type="curve"/>
      <point x="534" y="1508"/>
      <point x="531" y="1477"/>
      <point x="531" y="1448" type="curve" smooth="yes"/>
      <point x="531" y="1400"/>
      <point x="541" y="1346"/>
      <point x="561" y="1321" type="curve"/>
      <point x="764" y="1308" type="line"/>
      <point x="781" y="1245"/>
      <point x="791" y="1166"/>
      <point x="793" y="1096" type="curve"/>
      <point x="777" y="1086" type="line"/>
      <point x="675" y="1157"/>
      <point x="576" y="1185"/>
      <point x="479" y="1185" type="curve" smooth="yes"/>
      <point x="185" y="1185"/>
      <point x="72" y="859"/>
      <point x="72" y="577" type="curve" smooth="yes"/>
      <point x="72" y="309"/>
      <point x="144" y="-20"/>
    </contour>
    <contour>
      <point x="521" y="287" type="curve"/>
      <point x="489" y="352"/>
      <point x="473" y="478"/>
      <point x="473" y="590" type="curve" smooth="yes"/>
      <point x="473" y="696"/>
      <point x="489" y="799"/>
      <point x="517" y="826" type="curve"/>
      <point x="529" y="828"/>
      <point x="548" y="831"/>
      <point x="573" y="831" type="curve" smooth="yes"/>
      <point x="616" y="831"/>
      <point x="696" y="821"/>
      <point x="756" y="778" type="curve"/>
      <point x="760" y="763"/>
      <point x="764" y="722"/>
      <point x="764" y="679" type="curve" smooth="yes"/>
      <point x="764" y="650"/>
      <point x="762" y="619"/>
      <point x="758" y="595" type="curve"/>
      <point x="698" y="458"/>
      <point x="553" y="287"/>
    </contour>
  </outline>
</glyph>
<glyph name="e" format="1">
  <advance width="1139"/>
  <unicode hex="0065"/>
  <outline>
    <contour>
      <point x="583" y="-20" type="curve" smooth="yes"/>
      <point x="823" y="-20"/>
      <point x="1019" y="153"/>
      <point x="1062" y="203" type="curve"/>
      <point x="1052" y="303"/>
      <point x="1028" y="341"/>
      <point x="981" y="388" type="curve"/>
      <point x="890" y="349"/>
      <point x="765" y="303"/>
      <point x="676" y="294" type="curve" smooth="yes"/>
      <point x="666" y="293"/>
      <point x="656" y="292"/>
      <point x="647" y="292" type="curve" smooth="yes"/>
      <point x="504" y="292"/>
      <point x="463" y="413"/>
      <point x="455" y="503" type="curve"/>
      <point x="522" y="493"/>
      <point x="641" y="480"/>
      <point x="757" y="480" type="curve" smooth="yes"/>
      <point x="787" y="480"/>
      <point x="816" y="481"/>
      <point x="844" y="483" type="curve"/>
      <point x="939" y="519"/>
      <point x="1042" y="610"/>
      <point x="1064" y="647" type="curve"/>
      <point x="1071" y="690"/>
      <point x="1075" y="735"/>
      <point x="1075" y="780" type="curve" smooth="yes"/>
      <point x="1075" y="901"/>
      <point x="1045" y="1019"/>
      <point x="959" y="1088" type="curve" smooth="yes"/>
      <point x="862" y="1164"/>
      <point x="716" y="1185"/>
      <point x="608" y="1185" type="curve" smooth="yes"/>
      <point x="230" y="1185"/>
      <point x="67" y="915"/>
      <point x="67" y="581" type="curve" smooth="yes"/>
      <point x="67" y="249"/>
      <point x="244" y="-20"/>
    </contour>
    <contour>
      <point x="458" y="675" type="line"/>
      <point x="464" y="734"/>
      <point x="479" y="784"/>
      <point x="501" y="827" type="curve"/>
      <point x="509" y="835"/>
      <point x="551" y="842"/>
      <point x="589" y="843" type="curve" smooth="yes"/>
      <point x="636" y="844"/>
      <point x="690" y="833"/>
      <point x="711" y="811" type="curve"/>
      <point x="725" y="701" type="line"/>
    </contour>
    <contour>
      <point x="604" y="0" type="move" name="top"/>
    </contour>
  </outline>
</glyph>
<glyph name="g" format="1">
  <advance width="1160"/>
  <unicode hex="0067"/>
  <outline>
    <contour>
      <point x="206" y="-20" type="curve"/>
      <point x="144" y="-59"/>
      <point x="102" y="-117"/>
      <point x="80" y="-194" type="curve"/>
      <point x="126" y="-397"/>
      <point x="341" y="-432"/>
      <point x="498" y="-432" type="curve" smooth="yes"/>
      <point x="807" y="-432"/>
      <point x="1135" y="-292"/>
      <point x="1135" y="23" type="curve" smooth="yes"/>
      <point x="1135" y="143"/>
      <point x="1089" y="246"/>
      <point x="980" y="272" type="curve" smooth="yes"/>
      <point x="926" y="285"/>
      <point x="850" y="289"/>
      <point x="771" y="289" type="curve" smooth="yes"/>
      <point x="748" y="289"/>
      <point x="726" y="288"/>
      <point x="703" y="288" type="curve" smooth="yes"/>
      <point x="628" y="287"/>
      <point x="553" y="274"/>
      <point x="485" y="261" type="curve"/>
      <point x="469" y="291"/>
      <point x="459" y="327"/>
      <point x="461" y="361" type="curve"/>
      <point x="497" y="357"/>
      <point x="531" y="355"/>
      <point x="565" y="355" type="curve" smooth="yes"/>
      <point x="931" y="355"/>
      <point x="1047" y="587"/>
      <point x="1047" y="812" type="curve" smooth="yes"/>
      <point x="1047" y="868"/>
      <point x="1034" y="921"/>
      <point x="1011" y="967" type="curve"/>
      <point x="1120" y="1060"/>
      <point x="1142" y="1236"/>
      <point x="1142" y="1311" type="curve" smooth="yes"/>
      <point x="1142" y="1326"/>
      <point x="1141" y="1338"/>
      <point x="1140" y="1343" type="curve"/>
      <point x="1099" y="1400"/>
      <point x="1014" y="1428"/>
      <point x="930" y="1428" type="curve" smooth="yes"/>
      <point x="874" y="1428"/>
      <point x="819" y="1416"/>
      <point x="778" y="1391" type="curve"/>
      <point x="821" y="1137" type="line"/>
      <point x="741" y="1172"/>
      <point x="645" y="1191"/>
      <point x="548" y="1191" type="curve" smooth="yes"/>
      <point x="347" y="1191"/>
      <point x="55" y="1108"/>
      <point x="55" y="787" type="curve" smooth="yes"/>
      <point x="55" y="573"/>
      <point x="168" y="458"/>
      <point x="306" y="401" type="curve"/>
      <point x="238" y="357"/>
      <point x="180" y="293"/>
      <point x="180" y="216" type="curve" smooth="yes"/>
      <point x="180" y="-64"/>
      <point x="576" y="3"/>
      <point x="783" y="-31" type="curve"/>
      <point x="791" y="-39"/>
      <point x="796" y="-47"/>
      <point x="796" y="-73" type="curve" smooth="yes"/>
      <point x="796" y="-91"/>
      <point x="791" y="-122"/>
      <point x="769" y="-144" type="curve"/>
      <point x="743" y="-152"/>
      <point x="704" y="-159"/>
      <point x="653" y="-159" type="curve" smooth="yes"/>
      <point x="546" y="-159"/>
      <point x="388" y="-129"/>
    </contour>
    <contour>
      <point x="433" y="629" type="curve"/>
      <point x="417" y="657"/>
      <point x="404" y="695"/>
      <point x="404" y="737" type="curve" smooth="yes"/>
      <point x="404" y="772"/>
      <point x="413" y="809"/>
      <point x="435" y="848" type="curve"/>
      <point x="449" y="853"/>
      <point x="483" y="856"/>
      <point x="522" y="856" type="curve" smooth="yes"/>
      <point x="584" y="856"/>
      <point x="657" y="849"/>
      <point x="676" y="833" type="curve"/>
      <point x="691" y="804"/>
      <point x="703" y="766"/>
      <point x="703" y="722" type="curve" smooth="yes"/>
      <point x="703" y="687"/>
      <point x="695" y="649"/>
      <point x="676" y="611" type="curve"/>
      <point x="668" y="605"/>
      <point x="634" y="602"/>
      <point x="592" y="602" type="curve" smooth="yes"/>
      <point x="535" y="602"/>
      <point x="465" y="609"/>
    </contour>
  </outline>
</glyph>
<glyph name="j" format="1">
  <advance width="686"/>
  <unicode hex="006A"/>
  <outline>
    <contour>
      <point x="352" y="1252" type="curve" smooth="yes"/>
      <point x="473" y="1252"/>
      <point x="593" y="1331"/>
      <point x="593" y="1435" type="curve" smooth="yes"/>
      <point x="593" y="1542"/>
      <point x="532" y="1633"/>
      <point x="352" y="1633" type="curve" smooth="yes"/>
      <point x="172" y="1633"/>
      <point x="111" y="1542"/>
      <point x="111" y="1435" type="curve" smooth="yes"/>
      <point x="111" y="1357"/>
      <point x="215" y="1252"/>
    </contour>
    <contour>
      <point x="19" y="-75" type="line"/>
      <point x="-37" y="-131"/>
      <point x="-56" y="-223"/>
      <point x="-57" y="-297" type="curve"/>
      <point x="-14" y="-390"/>
      <point x="104" y="-432"/>
      <point x="225" y="-432" type="curve" smooth="yes"/>
      <point x="351" y="-432"/>
      <point x="437" y="-395"/>
      <point x="495" y="-298" type="curve" smooth="yes"/>
      <point x="548" y="-210"/>
      <point x="558" y="10"/>
      <point x="567" y="242" type="curve" smooth="yes"/>
      <point x="578" y="535"/>
      <point x="605" y="740"/>
      <point x="605" y="926" type="curve" smooth="yes"/>
      <point x="605" y="1099"/>
      <point x="545" y="1185"/>
      <point x="364" y="1185" type="curve" smooth="yes"/>
      <point x="227" y="1185"/>
      <point x="79" y="1114"/>
      <point x="40" y="1065" type="curve"/>
      <point x="41" y="974"/>
      <point x="48" y="916"/>
      <point x="62" y="863" type="curve"/>
      <point x="209" y="842" type="line"/>
      <point x="207" y="794"/>
      <point x="206" y="745"/>
      <point x="206" y="696" type="curve" smooth="yes"/>
      <point x="206" y="646"/>
      <point x="213" y="277"/>
      <point x="222" y="107" type="curve" smooth="yes"/>
      <point x="228" y="0"/>
      <point x="231" y="-59"/>
      <point x="231" y="-100" type="curve" smooth="yes"/>
      <point x="231" y="-118"/>
      <point x="231" y="-132"/>
      <point x="229" y="-145" type="curve"/>
    </contour>
  </outline>
</glyph>
<glyph name="k" format="1">
  <advance width="1202"/>
  <unicode hex="006B"/>
  <outline>
    <contour>
      <point x="143" y="34" type="curve"/>
      <point x="178" y="-6"/>
      <point x="258" y="-20"/>
      <point x="322" y="-20" type="curve"/>
      <point x="358" y="-4"/>
      <point x="484" y="120"/>
      <point x="625" y="272" type="curve"/>
      <point x="659" y="108"/>
      <point x="725" y="-19"/>
      <point x="905" y="-19" type="curve" smooth="yes"/>
      <point x="1052" y="-19"/>
      <point x="1156" y="102"/>
      <point x="1165" y="346" type="curve"/>
      <point x="1042" y="439" type="line"/>
      <point x="1002" y="397"/>
      <point x="968" y="355"/>
      <point x="928" y="335" type="curve"/>
      <point x="887" y="379"/>
      <point x="847" y="430"/>
      <point x="811" y="481" type="curve"/>
      <point x="915" y="603"/>
      <point x="1009" y="721"/>
      <point x="1062" y="805" type="curve" smooth="yes"/>
      <point x="1098" y="862"/>
      <point x="1118" y="914"/>
      <point x="1118" y="977" type="curve" smooth="yes"/>
      <point x="1118" y="1099"/>
      <point x="1031" y="1185"/>
      <point x="887" y="1185" type="curve" smooth="yes"/>
      <point x="739" y="1185"/>
      <point x="656" y="1114"/>
      <point x="617" y="1065" type="curve"/>
      <point x="617" y="1029" type="line" smooth="yes"/>
      <point x="617" y="975"/>
      <point x="619" y="925"/>
      <point x="629" y="868" type="curve"/>
      <point x="715" y="847" type="line"/>
      <point x="657" y="694"/>
      <point x="550" y="504"/>
      <point x="447" y="362" type="curve"/>
      <point x="430" y="372" type="line"/>
      <point x="530" y="866"/>
      <point x="549" y="1268"/>
      <point x="549" y="1367" type="curve" smooth="yes"/>
      <point x="549" y="1566"/>
      <point x="430" y="1623"/>
      <point x="266" y="1623" type="curve" smooth="yes"/>
      <point x="149" y="1623"/>
      <point x="31" y="1539"/>
      <point x="6" y="1506" type="curve"/>
      <point x="6" y="1438"/>
      <point x="13" y="1373"/>
      <point x="30" y="1308" type="curve"/>
      <point x="143" y="1288" type="line"/>
      <point x="128" y="1143"/>
      <point x="125" y="868"/>
      <point x="125" y="646" type="curve" smooth="yes"/>
      <point x="125" y="413"/>
      <point x="128" y="235"/>
    </contour>
    <contour>
      <point x="584" y="0" type="move" name="btm"/>
    </contour>
  </outline>
</glyph>
<glyph name="l" format="1">
  <advance width="701"/>
  <unicode hex="006C"/>
  <outline>
    <contour>
      <point x="137" y="223" type="curve" smooth="yes"/>
      <point x="132" y="30"/>
      <point x="242" y="-20"/>
      <point x="356" y="-20" type="curve" smooth="yes"/>
      <point x="569" y="-20"/>
      <point x="688" y="175"/>
      <point x="688" y="175" type="curve"/>
      <point x="680" y="246"/>
      <point x="651" y="307"/>
      <point x="597" y="353" type="curve"/>
      <point x="449" y="291" type="line"/>
      <point x="447" y="293" type="line"/>
      <point x="523" y="641"/>
      <point x="566" y="1192"/>
      <point x="569" y="1364" type="curve" smooth="yes"/>
      <point x="573" y="1537"/>
      <point x="478" y="1623"/>
      <point x="310" y="1623" type="curve" smooth="yes"/>
      <point x="173" y="1623"/>
      <point x="56" y="1552"/>
      <point x="17" y="1503" type="curve"/>
      <point x="15" y="1430"/>
      <point x="22" y="1386"/>
      <point x="41" y="1308" type="curve"/>
      <point x="164" y="1287" type="line"/>
      <point x="134" y="843"/>
      <point x="141" y="404"/>
    </contour>
  </outline>
</glyph>
<glyph name="m" format="1">
  <advance width="1911"/>
  <unicode hex="006D"/>
  <outline>
    <contour>
      <point x="179" y="34" type="curve"/>
      <point x="179" y="34"/>
      <point x="211" y="-20"/>
      <point x="378" y="-20" type="curve" smooth="yes"/>
      <point x="492" y="-20"/>
      <point x="567" y="17"/>
      <point x="590" y="60" type="curve"/>
      <point x="561" y="157"/>
      <point x="538" y="285"/>
      <point x="538" y="352" type="curve" smooth="yes"/>
      <point x="538" y="362"/>
      <point x="539" y="372"/>
      <point x="540" y="379" type="curve"/>
      <point x="569" y="450"/>
      <point x="714" y="742"/>
      <point x="739" y="761" type="curve"/>
      <point x="761" y="760"/>
      <point x="775" y="755"/>
      <point x="786" y="746" type="curve"/>
      <point x="786" y="625"/>
      <point x="762" y="487"/>
      <point x="762" y="348" type="curve" smooth="yes"/>
      <point x="762" y="148"/>
      <point x="779" y="34"/>
      <point x="779" y="34" type="curve"/>
      <point x="779" y="34"/>
      <point x="801" y="-20"/>
      <point x="968" y="-20" type="curve" smooth="yes"/>
      <point x="1082" y="-20"/>
      <point x="1157" y="17"/>
      <point x="1180" y="60" type="curve"/>
      <point x="1162" y="120"/>
      <point x="1146" y="192"/>
      <point x="1137" y="254" type="curve"/>
      <point x="1157" y="378"/>
      <point x="1279" y="699"/>
      <point x="1343" y="761" type="curve"/>
      <point x="1365" y="760"/>
      <point x="1379" y="755"/>
      <point x="1390" y="746" type="curve"/>
      <point x="1375" y="586"/>
      <point x="1368" y="378"/>
      <point x="1368" y="205" type="curve" smooth="yes"/>
      <point x="1368" y="27"/>
      <point x="1472" y="-20"/>
      <point x="1583" y="-20" type="curve" smooth="yes"/>
      <point x="1796" y="-20"/>
      <point x="1915" y="175"/>
      <point x="1915" y="175" type="curve"/>
      <point x="1907" y="246"/>
      <point x="1878" y="307"/>
      <point x="1824" y="353" type="curve"/>
      <point x="1676" y="291" type="line"/>
      <point x="1674" y="293" type="line"/>
      <point x="1706" y="388"/>
      <point x="1787" y="613"/>
      <point x="1787" y="842" type="curve" smooth="yes"/>
      <point x="1787" y="1015"/>
      <point x="1720" y="1183"/>
      <point x="1503" y="1183" type="curve" smooth="yes"/>
      <point x="1232" y="1183"/>
      <point x="1178" y="855"/>
      <point x="1124" y="640" type="curve"/>
      <point x="1122" y="635"/>
      <point x="1117" y="633"/>
      <point x="1112" y="633" type="curve" smooth="yes"/>
      <point x="1102" y="633"/>
      <point x="1090" y="640"/>
      <point x="1090" y="647" type="curve"/>
      <point x="1112" y="727"/>
      <point x="1126" y="809"/>
      <point x="1126" y="885" type="curve" smooth="yes"/>
      <point x="1126" y="1050"/>
      <point x="1059" y="1183"/>
      <point x="858" y="1183" type="curve" smooth="yes"/>
      <point x="567" y="1183"/>
      <point x="550" y="861"/>
      <point x="496" y="646" type="curve"/>
      <point x="494" y="641"/>
      <point x="489" y="639"/>
      <point x="484" y="639" type="curve" smooth="yes"/>
      <point x="474" y="639"/>
      <point x="462" y="646"/>
      <point x="462" y="653" type="curve" smooth="yes"/>
      <point x="462" y="654"/>
      <point x="464" y="672"/>
      <point x="490" y="820" type="curve" smooth="yes"/>
      <point x="500" y="878"/>
      <point x="507" y="931"/>
      <point x="507" y="977" type="curve" smooth="yes"/>
      <point x="507" y="1108"/>
      <point x="453" y="1185"/>
      <point x="285" y="1185" type="curve" smooth="yes"/>
      <point x="168" y="1185"/>
      <point x="63" y="1125"/>
      <point x="38" y="1103" type="curve"/>
      <point x="38" y="1003"/>
      <point x="42" y="947"/>
      <point x="72" y="855" type="curve"/>
      <point x="187" y="840" type="line"/>
      <point x="163" y="613"/>
      <point x="162" y="552"/>
      <point x="162" y="348" type="curve" smooth="yes"/>
      <point x="162" y="148"/>
      <point x="179" y="34"/>
    </contour>
  </outline>
</glyph>
<glyph name="o" format="1">
  <advance width="1190"/>
  <unicode hex="006F"/>
  <outline>
    <contour>
      <point x="583" y="-20" type="curve" smooth="yes"/>
      <point x="947" y="-20"/>
      <point x="1123" y="244"/>
      <point x="1123" y="581" type="curve" smooth="yes"/>
      <point x="1123" y="936"/>
      <point x="1019" y="1185"/>
      <point x="604" y="1185" type="curve" smooth="yes"/>
      <point x="230" y="1185"/>
      <point x="64" y="942"/>
      <point x="67" y="581" type="curve" smooth="yes"/>
      <point x="70" y="251"/>
      <point x="199" y="-20"/>
    </contour>
    <contour>
      <point x="498" y="299" type="curve"/>
      <point x="477" y="374"/>
      <point x="459" y="480"/>
      <point x="459" y="582" type="curve" smooth="yes"/>
      <point x="459" y="672"/>
      <point x="473" y="759"/>
      <point x="509" y="821" type="curve"/>
      <point x="522" y="829"/>
      <point x="555" y="833"/>
      <point x="590" y="832" type="curve" smooth="yes"/>
      <point x="634" y="831"/>
      <point x="680" y="823"/>
      <point x="695" y="806" type="curve"/>
      <point x="720" y="753"/>
      <point x="733" y="653"/>
      <point x="733" y="552" type="curve" smooth="yes"/>
      <point x="733" y="445"/>
      <point x="718" y="336"/>
      <point x="686" y="281" type="curve"/>
      <point x="679" y="276"/>
      <point x="654" y="273"/>
      <point x="624" y="273" type="curve" smooth="yes"/>
      <point x="576" y="273"/>
      <point x="515" y="281"/>
    </contour>
    <contour>
      <point x="591" y="0" type="move" name="top"/>
    </contour>
  </outline>
</glyph>
<glyph name="q" format="1">
  <advance width="1261"/>
  <unicode hex="0071"/>
  <outline>
    <contour>
      <point x="428" y="-20" type="curve" smooth="yes"/>
      <point x="593" y="-20"/>
      <point x="703" y="94"/>
      <point x="771" y="333" type="curve"/>
      <point x="801" y="324" type="line"/>
      <point x="768" y="81"/>
      <point x="760" y="-24"/>
      <point x="758" y="-187" type="curve" smooth="yes"/>
      <point x="755" y="-380"/>
      <point x="863" y="-430"/>
      <point x="977" y="-430" type="curve" smooth="yes"/>
      <point x="1190" y="-430"/>
      <point x="1309" y="-238"/>
      <point x="1309" y="-238" type="curve"/>
      <point x="1310" y="-228"/>
      <point x="1311" y="-217"/>
      <point x="1311" y="-206" type="curve" smooth="yes"/>
      <point x="1311" y="-160"/>
      <point x="1300" y="-105"/>
      <point x="1258" y="-62" type="curve"/>
      <point x="1070" y="-119" type="line"/>
      <point x="1068" y="-117" type="line"/>
      <point x="1144" y="236"/>
      <point x="1181" y="780"/>
      <point x="1181" y="957" type="curve" smooth="yes"/>
      <point x="1181" y="1039"/>
      <point x="1172" y="1114"/>
      <point x="1163" y="1150" type="curve"/>
      <point x="1158" y="1150"/>
      <point x="1109" y="1185"/>
      <point x="942" y="1185" type="curve"/>
      <point x="906" y="1148"/>
      <point x="873" y="1087"/>
      <point x="853" y="1048" type="curve"/>
      <point x="833" y="1046" type="line"/>
      <point x="733" y="1149"/>
      <point x="576" y="1185"/>
      <point x="479" y="1185" type="curve" smooth="yes"/>
      <point x="185" y="1185"/>
      <point x="72" y="859"/>
      <point x="72" y="577" type="curve" smooth="yes"/>
      <point x="72" y="309"/>
      <point x="144" y="-20"/>
    </contour>
    <contour>
      <point x="521" y="287" type="curve"/>
      <point x="489" y="352"/>
      <point x="473" y="478"/>
      <point x="473" y="590" type="curve" smooth="yes"/>
      <point x="473" y="696"/>
      <point x="489" y="799"/>
      <point x="517" y="826" type="curve"/>
      <point x="529" y="828"/>
      <point x="548" y="831"/>
      <point x="573" y="831" type="curve" smooth="yes"/>
      <point x="605" y="831"/>
      <point x="678" y="821"/>
      <point x="756" y="778" type="curve"/>
      <point x="760" y="763"/>
      <point x="764" y="722"/>
      <point x="764" y="679" type="curve" smooth="yes"/>
      <point x="764" y="650"/>
      <point x="762" y="619"/>
      <point x="758" y="595" type="curve"/>
      <point x="699" y="460"/>
      <point x="552" y="284"/>
    </contour>
  </outline>
</glyph>
<glyph name="r" format="1">
  <advance width="1002"/>
  <unicode hex="0072"/>
  <outline>
    <contour>
      <point x="170" y="211" type="curve" smooth="yes"/>
      <point x="176" y="29"/>
      <point x="291" y="-19"/>
      <point x="403" y="-19" type="curve" smooth="yes"/>
      <point x="616" y="-19"/>
      <point x="735" y="146"/>
      <point x="735" y="146" type="curve"/>
      <point x="730" y="211"/>
      <point x="712" y="272"/>
      <point x="678" y="324" type="curve"/>
      <point x="484" y="278" type="line"/>
      <point x="485" y="330" type="line"/>
      <point x="537" y="451"/>
      <point x="645" y="643"/>
      <point x="736" y="740" type="curve"/>
      <point x="946" y="712" type="line"/>
      <point x="976" y="769"/>
      <point x="996" y="872"/>
      <point x="996" y="968" type="curve" smooth="yes"/>
      <point x="996" y="1031"/>
      <point x="987" y="1091"/>
      <point x="968" y="1133" type="curve"/>
      <point x="934" y="1161"/>
      <point x="864" y="1185"/>
      <point x="796" y="1185" type="curve" smooth="yes"/>
      <point x="704" y="1185"/>
      <point x="618" y="1117"/>
      <point x="561" y="901" type="curve" smooth="yes"/>
      <point x="501" y="675" type="line"/>
      <point x="465" y="681" type="line"/>
      <point x="485" y="734"/>
      <point x="512" y="891"/>
      <point x="512" y="977" type="curve" smooth="yes"/>
      <point x="512" y="1108"/>
      <point x="450" y="1185"/>
      <point x="286" y="1185" type="curve" smooth="yes"/>
      <point x="174" y="1185"/>
      <point x="73" y="1117"/>
      <point x="48" y="1095" type="curve"/>
      <point x="47" y="1084"/>
      <point x="47" y="1074"/>
      <point x="47" y="1063" type="curve" smooth="yes"/>
      <point x="47" y="997"/>
      <point x="56" y="934"/>
      <point x="82" y="855" type="curve"/>
      <point x="174" y="840" type="line"/>
      <point x="174" y="624"/>
      <point x="169" y="392"/>
      <point x="169" y="268" type="curve" smooth="yes"/>
      <point x="169" y="245"/>
      <point x="169" y="226"/>
    </contour>
    <contour>
      <point x="403" y="0" type="move" name="btm"/>
    </contour>
    <contour>
      <point x="546" y="0" type="move" name="top"/>
    </contour>
  </outline>
</glyph>
<glyph name="t" format="1">
  <advance width="805"/>
  <unicode hex="0074"/>
  <outline>
    <contour>
      <point x="156" y="223" type="curve" smooth="yes"/>
      <point x="166" y="30"/>
      <point x="264" y="-20"/>
      <point x="368" y="-20" type="curve" smooth="yes"/>
      <point x="625" y="-20"/>
      <point x="805" y="203"/>
      <point x="805" y="203" type="curve"/>
      <point x="796" y="274"/>
      <point x="771" y="345"/>
      <point x="716" y="391" type="curve"/>
      <point x="481" y="318" type="line"/>
      <point x="479" y="320" type="line"/>
      <point x="492" y="407"/>
      <point x="530" y="648"/>
      <point x="546" y="833" type="curve"/>
      <point x="634" y="835"/>
      <point x="698" y="842"/>
      <point x="727" y="847" type="curve"/>
      <point x="742" y="884"/>
      <point x="774" y="955"/>
      <point x="774" y="1036" type="curve" smooth="yes"/>
      <point x="774" y="1081"/>
      <point x="764" y="1128"/>
      <point x="737" y="1175" type="curve"/>
      <point x="561" y="1143" type="line"/>
      <point x="565" y="1195"/>
      <point x="568" y="1253"/>
      <point x="568" y="1306" type="curve" smooth="yes"/>
      <point x="568" y="1334"/>
      <point x="567" y="1361"/>
      <point x="565" y="1384" type="curve"/>
      <point x="524" y="1403"/>
      <point x="466" y="1415"/>
      <point x="407" y="1415" type="curve" smooth="yes"/>
      <point x="342" y="1415"/>
      <point x="277" y="1401"/>
      <point x="233" y="1367" type="curve"/>
      <point x="205" y="1316"/>
      <point x="178" y="1190"/>
      <point x="172" y="1112" type="curve"/>
      <point x="27" y="1080" type="line"/>
      <point x="27" y="1070"/>
      <point x="22" y="1046"/>
      <point x="22" y="1037" type="curve" smooth="yes"/>
      <point x="22" y="979"/>
      <point x="28" y="935"/>
      <point x="45" y="868" type="curve"/>
      <point x="154" y="849" type="line"/>
      <point x="150" y="742"/>
      <point x="149" y="642"/>
      <point x="149" y="552" type="curve" smooth="yes"/>
      <point x="149" y="410"/>
      <point x="152" y="293"/>
    </contour>
  </outline>
</glyph>
<glyph name="y" format="1">
  <advance width="1205"/>
  <unicode hex="0079"/>
  <outline>
    <contour>
      <point x="142" y="-145" type="curve" smooth="yes"/>
      <point x="142" y="-348"/>
      <point x="298" y="-432"/>
      <point x="493" y="-432" type="curve" smooth="yes"/>
      <point x="651" y="-432"/>
      <point x="775" y="-354"/>
      <point x="841" y="-290" type="curve"/>
      <point x="845" y="-271"/>
      <point x="847" y="-252"/>
      <point x="847" y="-235" type="curve" smooth="yes"/>
      <point x="847" y="-162"/>
      <point x="813" y="-107"/>
      <point x="779" y="-69" type="curve"/>
      <point x="706" y="-86"/>
      <point x="640" y="-97"/>
      <point x="574" y="-97" type="curve" smooth="yes"/>
      <point x="556" y="-97"/>
      <point x="539" y="-96"/>
      <point x="521" y="-94" type="curve"/>
      <point x="513" y="-61" type="line"/>
      <point x="949" y="123"/>
      <point x="1165" y="527"/>
      <point x="1165" y="926" type="curve" smooth="yes"/>
      <point x="1165" y="1099"/>
      <point x="1078" y="1185"/>
      <point x="907" y="1185" type="curve" smooth="yes"/>
      <point x="770" y="1185"/>
      <point x="663" y="1114"/>
      <point x="624" y="1065" type="curve"/>
      <point x="624" y="983"/>
      <point x="631" y="925"/>
      <point x="646" y="868" type="curve"/>
      <point x="771" y="849" type="line"/>
      <point x="769" y="652"/>
      <point x="728" y="406"/>
      <point x="675" y="289" type="curve"/>
      <point x="653" y="285" type="line"/>
      <point x="644" y="474"/>
      <point x="623" y="657"/>
      <point x="585" y="808" type="curve"/>
      <point x="542" y="986"/>
      <point x="474" y="1185"/>
      <point x="270" y="1185" type="curve" smooth="yes"/>
      <point x="149" y="1185"/>
      <point x="58" y="1092"/>
      <point x="26" y="1002" type="curve"/>
      <point x="32" y="932"/>
      <point x="40" y="862"/>
      <point x="60" y="805" type="curve"/>
      <point x="152" y="789" type="line"/>
      <point x="222" y="686"/>
      <point x="384" y="274"/>
      <point x="422" y="125" type="curve"/>
      <point x="292" y="62"/>
      <point x="142" y="-4"/>
    </contour>
    <contour>
      <point x="618" y="0" type="move" name="top"/>
    </contour>
  </outline>
</glyph>
<glyph name="bar" format="1">
  <advance width="636"/>
  <unicode hex="007C"/>
  <outline>
    <contour>
      <point x="202" y="-293" type="line"/>
      <point x="243" y="-307"/>
      <point x="286" y="-314"/>
      <point x="330" y="-314" type="curve" smooth="yes"/>
      <point x="379" y="-314"/>
      <point x="430" y="-305"/>
      <point x="482" y="-289" type="curve"/>
      <point x="492" y="1838" type="line"/>
      <point x="466" y="1845"/>
      <point x="431" y="1849"/>
      <point x="394" y="1849" type="curve" smooth="yes"/>
      <point x="301" y="1849"/>
      <point x="190" y="1828"/>
      <point x="144" y="1796" type="curve"/>
    </contour>
  </outline>
</glyph>
<glyph name="asciitilde" format="1">
  <advance width="1168"/>
  <unicode hex="007E"/>
  <outline>
    <contour>
      <point x="158" y="371" type="curve"/>
      <point x="340" y="503" type="line"/>
      <point x="493" y="401"/>
      <point x="614" y="368"/>
      <point x="769" y="368" type="curve" smooth="yes"/>
      <point x="921" y="368"/>
      <point x="1087" y="486"/>
      <point x="1123" y="699" type="curve"/>
      <point x="1089" y="753"/>
      <point x="1047" y="799"/>
      <point x="1002" y="821" type="curve"/>
      <point x="827" y="692" type="line"/>
      <point x="665" y="765"/>
      <point x="534" y="829"/>
      <point x="390" y="829" type="curve" smooth="yes"/>
      <point x="238" y="829"/>
      <point x="62" y="672"/>
      <point x="37" y="498" type="curve"/>
      <point x="71" y="446"/>
      <point x="111" y="396"/>
    </contour>
  </outline>
</glyph>
<glyph name="copyright" format="1">
  <advance width="1669"/>
  <unicode hex="00A9"/>
  <outline>
    <contour>
      <point x="67" y="767" type="curve" smooth="yes"/>
      <point x="67" y="254"/>
      <point x="364" y="-1"/>
      <point x="836" y="-1" type="curve" smooth="yes"/>
      <point x="1258" y="-1"/>
      <point x="1602" y="323"/>
      <point x="1602" y="767" type="curve" smooth="yes"/>
      <point x="1602" y="1321"/>
      <point x="1266" y="1534"/>
      <point x="836" y="1534" type="curve" smooth="yes"/>
      <point x="412" y="1534"/>
      <point x="67" y="1209"/>
    </contour>
    <contour>
      <point x="352" y="730" type="curve" smooth="yes"/>
      <point x="352" y="1013"/>
      <point x="511" y="1279"/>
      <point x="881" y="1279" type="curve" smooth="yes"/>
      <point x="954" y="1279"/>
      <point x="1087" y="1269"/>
      <point x="1157" y="1251" type="curve"/>
      <point x="1205" y="1220"/>
      <point x="1240" y="1194"/>
      <point x="1271" y="1155" type="curve"/>
      <point x="1267" y="1043"/>
      <point x="1225" y="810"/>
      <point x="1188" y="752" type="curve"/>
      <point x="1168" y="745"/>
      <point x="1136" y="741"/>
      <point x="1102" y="741" type="curve" smooth="yes"/>
      <point x="1073" y="741"/>
      <point x="1041" y="744"/>
      <point x="1020" y="749" type="curve"/>
      <point x="1000" y="933" type="line"/>
      <point x="960" y="974"/>
      <point x="792" y="999"/>
      <point x="747" y="990" type="curve"/>
      <point x="714" y="913"/>
      <point x="696" y="833"/>
      <point x="696" y="760" type="curve" smooth="yes"/>
      <point x="696" y="621"/>
      <point x="762" y="510"/>
      <point x="918" y="510" type="curve" smooth="yes"/>
      <point x="1023" y="510"/>
      <point x="1111" y="556"/>
      <point x="1200" y="602" type="curve"/>
      <point x="1231" y="566"/>
      <point x="1254" y="525"/>
      <point x="1264" y="459" type="curve"/>
      <point x="1209" y="398"/>
      <point x="1073" y="252"/>
      <point x="854" y="252" type="curve" smooth="yes"/>
      <point x="541" y="252"/>
      <point x="352" y="441"/>
    </contour>
  </outline>
</glyph>
<glyph name="registered" format="1">
  <advance width="1390"/>
  <unicode hex="00AE"/>
  <outline>
    <contour>
      <point x="683" y="345" type="curve" smooth="yes"/>
      <point x="1080" y="345"/>
      <point x="1242" y="566"/>
      <point x="1248" y="946" type="curve" smooth="yes"/>
      <point x="1253" y="1312"/>
      <point x="1100" y="1550"/>
      <point x="704" y="1550" type="curve" smooth="yes"/>
      <point x="289" y="1550"/>
      <point x="149" y="1332"/>
      <point x="142" y="946" type="curve" smooth="yes"/>
      <point x="135" y="588"/>
      <point x="305" y="345"/>
    </contour>
    <contour>
      <point x="461" y="568" type="curve"/>
      <point x="443" y="650"/>
      <point x="437" y="772"/>
      <point x="437" y="920" type="curve"/>
      <point x="436" y="921" type="line"/>
      <point x="436" y="996"/>
      <point x="437" y="1078"/>
      <point x="441" y="1148" type="curve"/>
      <point x="358" y="1160" type="line"/>
      <point x="348" y="1186"/>
      <point x="344" y="1217"/>
      <point x="344" y="1242" type="curve" smooth="yes"/>
      <point x="344" y="1254"/>
      <point x="345" y="1267"/>
      <point x="346" y="1278" type="curve"/>
      <point x="437" y="1305"/>
      <point x="632" y="1320"/>
      <point x="743" y="1320" type="curve" smooth="yes"/>
      <point x="861" y="1320"/>
      <point x="1000" y="1307"/>
      <point x="1000" y="1130" type="curve" smooth="yes"/>
      <point x="1000" y="1031"/>
      <point x="936" y="908"/>
      <point x="872" y="844" type="curve"/>
      <point x="886" y="812"/>
      <point x="901" y="778"/>
      <point x="949" y="710" type="curve"/>
      <point x="1018" y="740" type="line"/>
      <point x="1043" y="716"/>
      <point x="1058" y="688"/>
      <point x="1063" y="651" type="curve"/>
      <point x="1063" y="651"/>
      <point x="1000" y="556"/>
      <point x="894" y="556" type="curve" smooth="yes"/>
      <point x="858" y="556"/>
      <point x="820" y="565"/>
      <point x="791" y="599" type="curve" smooth="yes"/>
      <point x="754" y="643"/>
      <point x="743" y="714"/>
      <point x="736" y="764" type="curve"/>
      <point x="699" y="765"/>
      <point x="647" y="772"/>
      <point x="624" y="770" type="curve"/>
      <point x="633" y="696"/>
      <point x="648" y="632"/>
      <point x="656" y="585" type="curve"/>
      <point x="626" y="568"/>
      <point x="553" y="557"/>
      <point x="519" y="557" type="curve" smooth="yes"/>
      <point x="496" y="557"/>
      <point x="478" y="561"/>
    </contour>
    <contour>
      <point x="622" y="879" type="curve"/>
      <point x="661" y="881"/>
      <point x="721" y="885"/>
      <point x="746" y="887" type="curve"/>
      <point x="773" y="960"/>
      <point x="783" y="1041"/>
      <point x="792" y="1129" type="curve"/>
      <point x="788" y="1134"/>
      <point x="757" y="1140"/>
      <point x="708" y="1140" type="curve" smooth="yes"/>
      <point x="688" y="1140"/>
      <point x="661" y="1137"/>
      <point x="634" y="1133" type="curve"/>
      <point x="632" y="1065"/>
      <point x="628" y="951"/>
    </contour>
  </outline>
</glyph>
<glyph name="degree" format="1">
  <advance width="876"/>
  <unicode hex="00B0"/>
  <outline>
    <contour>
      <point x="430" y="823" type="curve" smooth="yes"/>
      <point x="692" y="823"/>
      <point x="833" y="1029"/>
      <point x="833" y="1228" type="curve" smooth="yes"/>
      <point x="833" y="1416"/>
      <point x="708" y="1599"/>
      <point x="445" y="1599" type="curve" smooth="yes"/>
      <point x="181" y="1599"/>
      <point x="46" y="1398"/>
      <point x="46" y="1201" type="curve" smooth="yes"/>
      <point x="46" y="1010"/>
      <point x="172" y="823"/>
    </contour>
    <contour>
      <point x="367" y="1076" type="curve"/>
      <point x="351" y="1101"/>
      <point x="342" y="1152"/>
      <point x="342" y="1204" type="curve" smooth="yes"/>
      <point x="342" y="1252"/>
      <point x="349" y="1302"/>
      <point x="366" y="1336" type="curve"/>
      <point x="379" y="1336"/>
      <point x="390" y="1337"/>
      <point x="401" y="1337" type="curve" smooth="yes"/>
      <point x="433" y="1337"/>
      <point x="460" y="1333"/>
      <point x="498" y="1320" type="curve"/>
      <point x="514" y="1298"/>
      <point x="523" y="1244"/>
      <point x="523" y="1188" type="curve" smooth="yes"/>
      <point x="523" y="1139"/>
      <point x="516" y="1089"/>
      <point x="503" y="1059" type="curve"/>
      <point x="488" y="1054"/>
      <point x="471" y="1052"/>
      <point x="455" y="1052" type="curve" smooth="yes"/>
      <point x="420" y="1052"/>
      <point x="387" y="1062"/>
    </contour>
  </outline>
</glyph>
<glyph name="plusminus" format="1">
  <advance width="1140"/>
  <unicode hex="00B1"/>
  <outline>
    <contour>
      <point x="424" y="360" type="line"/>
      <point x="481" y="343"/>
      <point x="529" y="333"/>
      <point x="565" y="333" type="curve" smooth="yes"/>
      <point x="622" y="333"/>
      <point x="673" y="355"/>
      <point x="718" y="407" type="curve"/>
      <point x="718" y="563" type="line"/>
      <point x="952" y="563" type="line"/>
      <point x="996" y="640"/>
      <point x="1030" y="729"/>
      <point x="1030" y="806" type="curve" smooth="yes"/>
      <point x="1030" y="828"/>
      <point x="1027" y="849"/>
      <point x="1021" y="875" type="curve"/>
      <point x="706" y="851" type="line"/>
      <point x="739" y="1085" type="line"/>
      <point x="709" y="1113"/>
      <point x="661" y="1126"/>
      <point x="606" y="1126" type="curve" smooth="yes"/>
      <point x="509" y="1126"/>
      <point x="419" y="1087"/>
      <point x="372" y="1012" type="curve"/>
      <point x="408" y="828" type="line"/>
      <point x="170" y="810" type="line"/>
      <point x="125" y="751"/>
      <point x="107" y="703"/>
      <point x="107" y="628" type="curve" smooth="yes"/>
      <point x="107" y="612"/>
      <point x="108" y="589"/>
      <point x="111" y="562" type="curve"/>
      <point x="421" y="562" type="line"/>
    </contour>
    <contour>
      <point x="108" y="32" type="curve" smooth="yes"/>
      <point x="108" y="14"/>
      <point x="109" y="-6"/>
      <point x="111" y="-26" type="curve"/>
      <point x="267" y="-35"/>
      <point x="448" y="-39"/>
      <point x="623" y="-39" type="curve" smooth="yes"/>
      <point x="725" y="-39"/>
      <point x="825" y="-38"/>
      <point x="917" y="-35" type="curve"/>
      <point x="960" y="49"/>
      <point x="992" y="142"/>
      <point x="992" y="225" type="curve" smooth="yes"/>
      <point x="992" y="247"/>
      <point x="990" y="268"/>
      <point x="985" y="288" type="curve"/>
      <point x="167" y="243" type="line"/>
      <point x="129" y="179"/>
      <point x="108" y="115"/>
    </contour>
  </outline>
</glyph>
<glyph name="threesuperior" format="1">
  <advance width="1130"/>
  <unicode hex="00B3"/>
  <outline>
    <contour>
      <point x="523" y="561" type="curve" smooth="yes"/>
      <point x="791" y="561"/>
      <point x="1025" y="683"/>
      <point x="1025" y="919" type="curve" smooth="yes"/>
      <point x="1025" y="1023"/>
      <point x="979" y="1089"/>
      <point x="913" y="1122" type="curve" smooth="yes"/>
      <point x="880" y="1139"/>
      <point x="841" y="1147"/>
      <point x="801" y="1147" type="curve" smooth="yes"/>
      <point x="754" y="1147"/>
      <point x="705" y="1136"/>
      <point x="659" y="1114" type="curve" smooth="yes"/>
      <point x="654" y="1111"/>
      <point x="649" y="1110"/>
      <point x="643" y="1108" type="curve"/>
      <point x="845" y="1268" type="line"/>
      <point x="896" y="1270"/>
      <point x="933" y="1268"/>
      <point x="985" y="1282" type="curve"/>
      <point x="996" y="1305"/>
      <point x="1001" y="1333"/>
      <point x="1001" y="1364" type="curve" smooth="yes"/>
      <point x="1001" y="1459"/>
      <point x="951" y="1576"/>
      <point x="880" y="1607" type="curve"/>
      <point x="792" y="1603"/>
      <point x="666" y="1539"/>
      <point x="624" y="1492" type="curve"/>
      <point x="535" y="1553"/>
      <point x="374" y="1607"/>
      <point x="269" y="1607" type="curve" smooth="yes"/>
      <point x="162" y="1607"/>
      <point x="78" y="1523"/>
      <point x="78" y="1425" type="curve" smooth="yes"/>
      <point x="78" y="1327"/>
      <point x="118" y="1262"/>
      <point x="155" y="1236" type="curve"/>
      <point x="546" y="1292" type="line"/>
      <point x="505" y="1163" type="line"/>
      <point x="412" y="1195" type="line"/>
      <point x="354" y="1162"/>
      <point x="333" y="1099"/>
      <point x="333" y="1056" type="curve" smooth="yes"/>
      <point x="333" y="993"/>
      <point x="378" y="926"/>
      <point x="425" y="911" type="curve"/>
      <point x="463" y="918"/>
      <point x="504" y="942"/>
      <point x="534" y="971" type="curve"/>
      <point x="614" y="960"/>
      <point x="678" y="941"/>
      <point x="708" y="913" type="curve"/>
      <point x="715" y="901"/>
      <point x="715" y="873"/>
      <point x="710" y="857" type="curve"/>
      <point x="691" y="833"/>
      <point x="633" y="819"/>
      <point x="588" y="819" type="curve" smooth="yes"/>
      <point x="505" y="819"/>
      <point x="370" y="845"/>
      <point x="211" y="940" type="curve"/>
      <point x="157" y="906"/>
      <point x="121" y="835"/>
      <point x="102" y="769" type="curve"/>
      <point x="142" y="592"/>
      <point x="386" y="561"/>
    </contour>
  </outline>
</glyph>
<glyph name="acute" format="1">
  <advance width="0"/>
  <unicode hex="00B4"/>
  <outline>
    <contour>
      <point x="-178" y="1264" type="curve"/>
      <point x="-17" y="1312"/>
      <point x="166" y="1410"/>
      <point x="292" y="1527" type="curve"/>
      <point x="269" y="1618"/>
      <point x="199" y="1718"/>
      <point x="41" y="1793" type="curve"/>
      <point x="-292" y="1421" type="line"/>
      <point x="-276" y="1363"/>
      <point x="-225" y="1294"/>
    </contour>
    <contour>
      <point x="0" y="0" type="move" name="_top"/>
    </contour>
  </outline>
</glyph>
<glyph name="paragraph" format="1">
  <advance width="1348"/>
  <unicode hex="00B6"/>
  <outline>
    <contour>
      <point x="343" y="-136" type="curve"/>
      <point x="439" y="-244"/>
      <point x="620" y="-264"/>
      <point x="740" y="-264" type="curve" smooth="yes"/>
      <point x="1029" y="-264"/>
      <point x="1120" y="-169"/>
      <point x="1148" y="83" type="curve" smooth="yes"/>
      <point x="1168" y="258"/>
      <point x="1178" y="705"/>
      <point x="1187" y="904" type="curve" smooth="yes"/>
      <point x="1191" y="1000"/>
      <point x="1201" y="1331"/>
      <point x="1205" y="1468" type="curve"/>
      <point x="1152" y="1530" type="line"/>
      <point x="802" y="1530" type="line"/>
      <point x="790" y="1151" type="line"/>
      <point x="803" y="340" type="line" smooth="yes"/>
      <point x="804" y="282"/>
      <point x="805" y="232"/>
      <point x="805" y="184" type="curve" smooth="yes"/>
      <point x="805" y="129"/>
      <point x="804" y="78"/>
      <point x="802" y="25" type="curve"/>
      <point x="674" y="36"/>
      <point x="537" y="58"/>
      <point x="409" y="88" type="curve"/>
      <point x="360" y="28"/>
      <point x="344" y="-62"/>
    </contour>
    <contour>
      <point x="540" y="332" type="curve"/>
      <point x="584" y="335" type="line"/>
      <point x="583" y="1075" type="line"/>
      <point x="576" y="1226"/>
      <point x="566" y="1377"/>
      <point x="550" y="1528" type="curve"/>
      <point x="539" y="1528"/>
      <point x="529" y="1528"/>
      <point x="519" y="1528" type="curve" smooth="yes"/>
      <point x="321" y="1528"/>
      <point x="216" y="1474"/>
      <point x="160" y="1391" type="curve" smooth="yes"/>
      <point x="98" y="1299"/>
      <point x="70" y="1182"/>
      <point x="70" y="1058" type="curve" smooth="yes"/>
      <point x="70" y="753"/>
      <point x="245" y="412"/>
    </contour>
  </outline>
</glyph>
<glyph name="cedilla" format="1">
  <advance width="0"/>
  <unicode hex="00B8"/>
  <outline>
    <contour>
      <point x="-4" y="82" type="line"/>
      <point x="-59" y="44"/>
      <point x="-90" y="-39"/>
      <point x="-90" y="-113" type="curve" smooth="yes"/>
      <point x="-90" y="-134"/>
      <point x="-88" y="-155"/>
      <point x="-83" y="-173" type="curve"/>
      <point x="-41" y="-211"/>
      <point x="36" y="-204"/>
      <point x="100" y="-217" type="curve"/>
      <point x="116" y="-234"/>
      <point x="107" y="-267"/>
      <point x="93" y="-280" type="curve"/>
      <point x="78" y="-285"/>
      <point x="66" y="-289"/>
      <point x="51" y="-289" type="curve" smooth="yes"/>
      <point x="19" y="-289"/>
      <point x="-25" y="-272"/>
      <point x="-127" y="-211" type="curve"/>
      <point x="-161" y="-233"/>
      <point x="-184" y="-256"/>
      <point x="-197" y="-298" type="curve"/>
      <point x="-172" y="-413"/>
      <point x="-51" y="-432"/>
      <point x="37" y="-432" type="curve" smooth="yes"/>
      <point x="167" y="-432"/>
      <point x="298" y="-342"/>
      <point x="298" y="-177" type="curve" smooth="yes"/>
      <point x="298" y="-68"/>
      <point x="192" y="-46"/>
      <point x="174" y="-46" type="curve"/>
      <point x="159" y="-47"/>
      <point x="104" y="-55"/>
      <point x="80" y="-64" type="curve"/>
      <point x="78" y="-59"/>
      <point x="77" y="-48"/>
      <point x="77" y="-35" type="curve" smooth="yes"/>
      <point x="77" y="-2"/>
      <point x="82" y="45"/>
      <point x="82" y="59" type="curve"/>
    </contour>
    <contour>
      <point x="0" y="0" type="move" name="_btm"/>
    </contour>
  </outline>
</glyph>
<glyph name="onequarter" format="1">
  <advance width="2113"/>
  <unicode hex="00BC"/>
  <outline>
    <contour>
      <point x="1036" y="401" type="curve" smooth="yes"/>
      <point x="1036" y="310"/>
      <point x="1105" y="220"/>
      <point x="1176" y="201" type="curve"/>
      <point x="1272" y="208"/>
      <point x="1329" y="258"/>
      <point x="1373" y="334" type="curve"/>
      <point x="1372" y="335" type="line"/>
      <point x="1668" y="243" type="line"/>
      <point x="1665" y="7" type="line"/>
      <point x="1708" y="-10"/>
      <point x="1748" y="-20"/>
      <point x="1797" y="-20" type="curve" smooth="yes"/>
      <point x="1851" y="-20"/>
      <point x="1889" y="-8"/>
      <point x="1937" y="18" type="curve"/>
      <point x="1977" y="321"/>
      <point x="2008" y="577"/>
      <point x="2014" y="808" type="curve"/>
      <point x="1966" y="840"/>
      <point x="1906" y="853"/>
      <point x="1846" y="853" type="curve" smooth="yes"/>
      <point x="1778" y="853"/>
      <point x="1709" y="834"/>
      <point x="1656" y="800" type="curve"/>
      <point x="1661" y="672"/>
      <point x="1658" y="622"/>
      <point x="1667" y="511" type="curve"/>
      <point x="1431" y="529" type="line"/>
      <point x="1523" y="738"/>
      <point x="1571" y="906"/>
      <point x="1599" y="1114" type="curve"/>
      <point x="1566" y="1175"/>
      <point x="1474" y="1185"/>
      <point x="1438" y="1185" type="curve" smooth="yes"/>
      <point x="1347" y="1185"/>
      <point x="1251" y="1155"/>
      <point x="1197" y="1085" type="curve"/>
      <point x="1201" y="949"/>
      <point x="1211" y="836"/>
      <point x="1211" y="722" type="curve" smooth="yes"/>
      <point x="1211" y="675"/>
      <point x="1210" y="627"/>
      <point x="1205" y="578" type="curve"/>
      <point x="1159" y="588"/>
      <point x="1111" y="597"/>
      <point x="1098" y="597" type="curve"/>
      <point x="1046" y="551"/>
      <point x="1036" y="472"/>
    </contour>
    <component base="one" xScale="0.87" yScale="0.87" xOffset="-5" yOffset="790"/>
    <component base="fraction" xOffset="110"/>
  </outline>
</glyph>
<glyph name="AE" format="1">
  <advance width="1944"/>
  <unicode hex="00C6"/>
  <outline>
    <contour>
      <point x="-21" y="92" type="curve"/>
      <point x="30" y="32"/>
      <point x="164" y="-21"/>
      <point x="289" y="-21" type="curve" smooth="yes"/>
      <point x="491" y="-21"/>
      <point x="503" y="87"/>
      <point x="578" y="423" type="curve"/>
      <point x="633" y="419"/>
      <point x="693" y="417"/>
      <point x="754" y="417" type="curve" smooth="yes"/>
      <point x="806" y="417"/>
      <point x="858" y="418"/>
      <point x="907" y="421" type="curve"/>
      <point x="932" y="287" type="line"/>
      <point x="920" y="29" type="line"/>
      <point x="949" y="-8"/>
      <point x="1050" y="-20"/>
      <point x="1110" y="-20" type="curve" smooth="yes"/>
      <point x="1243" y="-20"/>
      <point x="1338" y="9"/>
      <point x="1349" y="125" type="curve"/>
      <point x="1442" y="53"/>
      <point x="1565" y="-20"/>
      <point x="1675" y="-20" type="curve" smooth="yes"/>
      <point x="1785" y="-20"/>
      <point x="1904" y="67"/>
      <point x="1904" y="245" type="curve" smooth="yes"/>
      <point x="1904" y="313"/>
      <point x="1888" y="375"/>
      <point x="1868" y="393" type="curve"/>
      <point x="1357" y="355" type="line"/>
      <point x="1334" y="355" type="line"/>
      <point x="1316" y="434"/>
      <point x="1298" y="515"/>
      <point x="1278" y="598" type="curve"/>
      <point x="1344" y="581"/>
      <point x="1415" y="574"/>
      <point x="1483" y="574" type="curve" smooth="yes"/>
      <point x="1529" y="574"/>
      <point x="1574" y="577"/>
      <point x="1614" y="583" type="curve"/>
      <point x="1637" y="608"/>
      <point x="1665" y="683"/>
      <point x="1665" y="764" type="curve" smooth="yes"/>
      <point x="1665" y="813"/>
      <point x="1654" y="865"/>
      <point x="1625" y="909" type="curve"/>
      <point x="1494" y="895"/>
      <point x="1363" y="872"/>
      <point x="1215" y="845" type="curve"/>
      <point x="1183" y="968"/>
      <point x="1149" y="1091"/>
      <point x="1114" y="1208" type="curve"/>
      <point x="1374" y="1215"/>
      <point x="1399" y="1217"/>
      <point x="1418" y="1217" type="curve" smooth="yes"/>
      <point x="1483" y="1217"/>
      <point x="1551" y="1213"/>
      <point x="1594" y="1206" type="curve"/>
      <point x="1622" y="1009" type="line"/>
      <point x="1651" y="992"/>
      <point x="1687" y="983"/>
      <point x="1732" y="983" type="curve" smooth="yes"/>
      <point x="1787" y="983"/>
      <point x="1820" y="990"/>
      <point x="1850" y="1005" type="curve"/>
      <point x="1906" y="1068"/>
      <point x="1953" y="1243"/>
      <point x="1953" y="1384" type="curve"/>
      <point x="1900" y="1455"/>
      <point x="1844" y="1495"/>
      <point x="1781" y="1533" type="curve"/>
      <point x="1707" y="1548"/>
      <point x="1567" y="1550"/>
      <point x="1490" y="1550" type="curve" smooth="yes"/>
      <point x="1350" y="1550"/>
      <point x="1169" y="1540"/>
      <point x="1012" y="1514" type="curve"/>
      <point x="950" y="1550" type="line"/>
      <point x="901" y="1551"/>
      <point x="852" y="1551"/>
      <point x="803" y="1551" type="curve" smooth="yes"/>
      <point x="668" y="1551"/>
      <point x="361" y="1540"/>
      <point x="143" y="1498" type="curve"/>
      <point x="134" y="1461"/>
      <point x="129" y="1420"/>
      <point x="129" y="1379" type="curve" smooth="yes"/>
      <point x="129" y="1330"/>
      <point x="136" y="1280"/>
      <point x="152" y="1236" type="curve"/>
      <point x="393" y="1210" type="line"/>
      <point x="312" y="863"/>
      <point x="225" y="502"/>
      <point x="172" y="289" type="curve"/>
      <point x="125" y="300"/>
      <point x="100" y="308"/>
      <point x="61" y="321" type="curve"/>
      <point x="8" y="283"/>
      <point x="-21" y="183"/>
    </contour>
    <contour>
      <point x="644" y="708" type="line"/>
      <point x="716" y="1201" type="line"/>
      <point x="762" y="1201" type="line"/>
      <point x="868" y="708" type="line"/>
    </contour>
    <contour>
      <point x="1065" y="0" type="move" name="top"/>
    </contour>
  </outline>
</glyph>
<glyph name="Thorn" format="1">
  <advance width="1332"/>
  <unicode hex="00DE"/>
  <outline>
    <contour>
      <point x="193" y="10" type="curve"/>
      <point x="242" y="-10"/>
      <point x="298" y="-21"/>
      <point x="355" y="-21" type="curve" smooth="yes"/>
      <point x="417" y="-21"/>
      <point x="481" y="-7"/>
      <point x="535" y="23" type="curve"/>
      <point x="536" y="43"/>
      <point x="537" y="64"/>
      <point x="537" y="88" type="curve" smooth="yes"/>
      <point x="537" y="136"/>
      <point x="535" y="191"/>
      <point x="535" y="252" type="curve"/>
      <point x="540" y="252" type="line" smooth="yes"/>
      <point x="598" y="252"/>
      <point x="736" y="254"/>
      <point x="887" y="278" type="curve" smooth="yes"/>
      <point x="959" y="290"/>
      <point x="1019" y="334"/>
      <point x="1067" y="392" type="curve" smooth="yes"/>
      <point x="1173" y="521"/>
      <point x="1282" y="804"/>
      <point x="1282" y="975" type="curve" smooth="yes"/>
      <point x="1282" y="1335"/>
      <point x="1002" y="1360"/>
      <point x="823" y="1360" type="curve" smooth="yes"/>
      <point x="736" y="1360"/>
      <point x="652" y="1351"/>
      <point x="573" y="1335" type="curve"/>
      <point x="573" y="1483"/>
      <point x="463" y="1550"/>
      <point x="315" y="1550" type="curve" smooth="yes"/>
      <point x="178" y="1550"/>
      <point x="21" y="1479"/>
      <point x="-18" y="1430" type="curve"/>
      <point x="-20" y="1357"/>
      <point x="-13" y="1313"/>
      <point x="6" y="1235" type="curve"/>
      <point x="169" y="1214" type="line"/>
      <point x="163" y="1095"/>
      <point x="161" y="969"/>
      <point x="161" y="841" type="curve" smooth="yes"/>
      <point x="161" y="554"/>
      <point x="174" y="259"/>
    </contour>
    <contour>
      <point x="537" y="516" type="line"/>
      <point x="549" y="660"/>
      <point x="557" y="863"/>
      <point x="561" y="1001" type="curve"/>
      <point x="599" y="1003"/>
      <point x="650" y="1005"/>
      <point x="688" y="1005" type="curve" smooth="yes"/>
      <point x="791" y="1005"/>
      <point x="852" y="993"/>
      <point x="858" y="982" type="curve"/>
      <point x="855" y="858"/>
      <point x="849" y="678"/>
      <point x="815" y="533" type="curve"/>
    </contour>
  </outline>
</glyph>
<glyph name="igrave" format="1">
  <advance width="716"/>
  <unicode hex="00EC"/>
  <outline>
    <contour>
      <point x="456" y="1269" type="curve"/>
      <point x="508" y="1293"/>
      <point x="574" y="1363"/>
      <point x="590" y="1421" type="curve"/>
      <point x="317" y="1793" type="line"/>
      <point x="176" y="1748"/>
      <point x="89" y="1617"/>
      <point x="66" y="1526" type="curve"/>
      <point x="174" y="1415"/>
      <point x="332" y="1314"/>
    </contour>
    <component base="dotlessi"/>
  </outline>
</glyph>
<glyph name="iacute" format="1">
  <advance width="716"/>
  <unicode hex="00ED"/>
  <outline>
    <contour>
      <point x="260" y="1264" type="curve"/>
      <point x="375" y="1305"/>
      <point x="570" y="1415"/>
      <point x="678" y="1526" type="curve"/>
      <point x="655" y="1617"/>
      <point x="560" y="1748"/>
      <point x="419" y="1793" type="curve"/>
      <point x="146" y="1421" type="line"/>
      <point x="162" y="1363"/>
      <point x="213" y="1294"/>
    </contour>
    <component base="idotless"/>
  </outline>
</glyph>
<glyph name="idieresis" format="1">
  <advance width="716"/>
  <unicode hex="00EF"/>
  <outline>
    <contour>
      <point x="570" y="1254" type="curve" smooth="yes"/>
      <point x="675" y="1254"/>
      <point x="766" y="1357"/>
      <point x="770" y="1462" type="curve" smooth="yes"/>
      <point x="773" y="1552"/>
      <point x="729" y="1633"/>
      <point x="589" y="1633" type="curve" smooth="yes"/>
      <point x="462" y="1633"/>
      <point x="389" y="1578"/>
      <point x="389" y="1454" type="curve" smooth="yes"/>
      <point x="389" y="1352"/>
      <point x="463" y="1254"/>
    </contour>
    <contour>
      <point x="127" y="1254" type="curve" smooth="yes"/>
      <point x="232" y="1254"/>
      <point x="320" y="1357"/>
      <point x="327" y="1462" type="curve" smooth="yes"/>
      <point x="333" y="1552"/>
      <point x="289" y="1633"/>
      <point x="146" y="1633" type="curve" smooth="yes"/>
      <point x="19" y="1633"/>
      <point x="-54" y="1578"/>
      <point x="-54" y="1454" type="curve" smooth="yes"/>
      <point x="-54" y="1343"/>
      <point x="15" y="1254"/>
    </contour>
    <component base="dotlessi"/>
  </outline>
</glyph>
<glyph name="thorn" format="1">
  <advance width="1231"/>
  <unicode hex="00FE"/>
  <outline>
    <contour>
      <point x="116" y="-203" type="curve" smooth="yes"/>
      <point x="116" y="-385"/>
      <point x="219" y="-432"/>
      <point x="331" y="-432" type="curve" smooth="yes"/>
      <point x="544" y="-432"/>
      <point x="660" y="-304"/>
      <point x="660" y="-304" type="curve"/>
      <point x="654" y="-269"/>
      <point x="646" y="-179"/>
      <point x="612" y="-130" type="curve"/>
      <point x="421" y="-143" type="line"/>
      <point x="419" y="-141" type="line"/>
      <point x="459" y="48" type="line"/>
      <point x="600" y="-6"/>
      <point x="679" y="-21"/>
      <point x="739" y="-21" type="curve" smooth="yes"/>
      <point x="925" y="-21"/>
      <point x="1044" y="97"/>
      <point x="1094" y="267" type="curve" smooth="yes"/>
      <point x="1147" y="448"/>
      <point x="1182" y="673"/>
      <point x="1182" y="842" type="curve" smooth="yes"/>
      <point x="1182" y="1015"/>
      <point x="1102" y="1185"/>
      <point x="871" y="1185" type="curve" smooth="yes"/>
      <point x="662" y="1185"/>
      <point x="541" y="996"/>
      <point x="481" y="771" type="curve" smooth="yes"/>
      <point x="469" y="727"/>
      <point x="459" y="685"/>
      <point x="449" y="646" type="curve"/>
      <point x="415" y="653" type="line"/>
      <point x="443" y="820" type="line" smooth="yes"/>
      <point x="480" y="1042"/>
      <point x="495" y="1287"/>
      <point x="495" y="1367" type="curve" smooth="yes"/>
      <point x="495" y="1540"/>
      <point x="416" y="1623"/>
      <point x="252" y="1623" type="curve" smooth="yes"/>
      <point x="135" y="1623"/>
      <point x="17" y="1539"/>
      <point x="-8" y="1506" type="curve"/>
      <point x="-8" y="1438"/>
      <point x="-1" y="1373"/>
      <point x="16" y="1308" type="curve"/>
      <point x="129" y="1288" type="line"/>
      <point x="114" y="1143"/>
      <point x="111" y="872"/>
      <point x="111" y="650" type="curve" smooth="yes"/>
      <point x="111" y="521"/>
      <point x="112" y="408"/>
      <point x="112" y="348" type="curve" smooth="yes"/>
      <point x="112" y="175"/>
      <point x="116" y="-61"/>
    </contour>
    <contour>
      <point x="483" y="331" type="curve"/>
      <point x="483" y="379" type="line"/>
      <point x="530" y="474"/>
      <point x="680" y="743"/>
      <point x="700" y="760" type="curve"/>
      <point x="729" y="760"/>
      <point x="752" y="749"/>
      <point x="766" y="731" type="curve"/>
      <point x="770" y="708"/>
      <point x="771" y="682"/>
      <point x="771" y="655" type="curve" smooth="yes"/>
      <point x="771" y="537"/>
      <point x="766" y="362"/>
      <point x="735" y="246" type="curve"/>
      <point x="710" y="235"/>
      <point x="575" y="268"/>
    </contour>
  </outline>
</glyph>
<glyph name="Dcroat" format="1">
  <advance width="1339"/>
  <unicode hex="0110"/>
  <outline>
    <contour>
      <point x="183" y="-20" type="curve"/>
      <point x="284" y="-16"/>
      <point x="418" y="74"/>
      <point x="456" y="131" type="curve"/>
      <point x="520" y="86"/>
      <point x="599" y="32"/>
      <point x="742" y="3" type="curve" smooth="yes"/>
      <point x="774" y="-3"/>
      <point x="802" y="-7"/>
      <point x="827" y="-7" type="curve" smooth="yes"/>
      <point x="915" y="-7"/>
      <point x="970" y="30"/>
      <point x="1020" y="86" type="curve"/>
      <point x="1092" y="158"/>
      <point x="1129" y="262"/>
      <point x="1155" y="349" type="curve" smooth="yes"/>
      <point x="1247" y="659"/>
      <point x="1304" y="943"/>
      <point x="1304" y="1165" type="curve" smooth="yes"/>
      <point x="1304" y="1525"/>
      <point x="1035" y="1550"/>
      <point x="793" y="1550" type="curve" smooth="yes"/>
      <point x="568" y="1550"/>
      <point x="182" y="1535"/>
      <point x="22" y="1464" type="curve"/>
      <point x="19" y="1441"/>
      <point x="17" y="1417"/>
      <point x="17" y="1394" type="curve" smooth="yes"/>
      <point x="17" y="1340"/>
      <point x="26" y="1276"/>
      <point x="44" y="1225" type="curve"/>
      <point x="197" y="1204" type="line"/>
      <point x="198" y="1204" type="line"/>
      <point x="193" y="1117"/>
      <point x="191" y="1013"/>
      <point x="190" y="917" type="curve"/>
      <point x="189" y="895"/>
      <point x="189" y="874"/>
      <point x="189" y="853" type="curve"/>
      <point x="95" y="848" type="line"/>
      <point x="80" y="828"/>
      <point x="76" y="790"/>
      <point x="76" y="752" type="curve" smooth="yes"/>
      <point x="76" y="709"/>
      <point x="82" y="664"/>
      <point x="86" y="641" type="curve"/>
      <point x="189" y="638" type="line"/>
      <point x="190" y="535"/>
      <point x="192" y="439"/>
      <point x="197" y="350" type="curve"/>
      <point x="142" y="348"/>
      <point x="86" y="337"/>
      <point x="52" y="327" type="curve"/>
      <point x="41" y="292"/>
      <point x="35" y="256"/>
      <point x="35" y="222" type="curve" smooth="yes"/>
      <point x="35" y="113"/>
      <point x="90" y="15"/>
    </contour>
    <contour>
      <point x="529" y="339" type="curve"/>
      <point x="531" y="397"/>
      <point x="536" y="480"/>
      <point x="545" y="628" type="curve"/>
      <point x="735" y="623" type="line"/>
      <point x="765" y="656"/>
      <point x="787" y="744"/>
      <point x="787" y="811" type="curve" smooth="yes"/>
      <point x="787" y="841"/>
      <point x="783" y="867"/>
      <point x="772" y="883" type="curve"/>
      <point x="560" y="872" type="line"/>
      <point x="567" y="982"/>
      <point x="574" y="1087"/>
      <point x="577" y="1173" type="curve"/>
      <point x="604" y="1177"/>
      <point x="632" y="1178"/>
      <point x="657" y="1178" type="curve" smooth="yes"/>
      <point x="682" y="1178"/>
      <point x="706" y="1177"/>
      <point x="725" y="1177" type="curve" smooth="yes"/>
      <point x="828" y="1177"/>
      <point x="879" y="1155"/>
      <point x="885" y="1144" type="curve"/>
      <point x="875" y="977"/>
      <point x="859" y="598"/>
      <point x="810" y="358" type="curve"/>
      <point x="718" y="344"/>
      <point x="629" y="338"/>
    </contour>
  </outline>
</glyph>
<glyph name="Ldot" format="1">
  <advance width="1281"/>
  <unicode hex="013F"/>
  <outline>
    <contour>
      <point x="197" y="-20" type="curve"/>
      <point x="320" y="-11"/>
      <point x="392" y="53"/>
      <point x="448" y="150" type="curve"/>
      <point x="544" y="72"/>
      <point x="743" y="-20"/>
      <point x="866" y="-20" type="curve" smooth="yes"/>
      <point x="936" y="-20"/>
      <point x="1054" y="16"/>
      <point x="1105" y="84" type="curve" smooth="yes"/>
      <point x="1140" y="132"/>
      <point x="1153" y="209"/>
      <point x="1153" y="289" type="curve" smooth="yes"/>
      <point x="1153" y="409"/>
      <point x="1125" y="537"/>
      <point x="1104" y="593" type="curve"/>
      <point x="1044" y="615"/>
      <point x="952" y="627"/>
      <point x="892" y="625" type="curve"/>
      <point x="788" y="363" type="line"/>
      <point x="533" y="377" type="line"/>
      <point x="576" y="647"/>
      <point x="640" y="1031"/>
      <point x="640" y="1275" type="curve" smooth="yes"/>
      <point x="640" y="1306"/>
      <point x="639" y="1334"/>
      <point x="637" y="1360" type="curve" smooth="yes"/>
      <point x="625" y="1496"/>
      <point x="532" y="1550"/>
      <point x="384" y="1550" type="curve" smooth="yes"/>
      <point x="268" y="1550"/>
      <point x="89" y="1506"/>
      <point x="22" y="1430" type="curve"/>
      <point x="20" y="1357"/>
      <point x="27" y="1313"/>
      <point x="46" y="1235" type="curve"/>
      <point x="209" y="1214" type="line"/>
      <point x="209" y="1210"/>
      <point x="208" y="1206"/>
      <point x="208" y="1202" type="curve"/>
      <point x="209" y="1202" type="line"/>
      <point x="203" y="1085"/>
      <point x="201" y="955"/>
      <point x="201" y="825" type="curve" smooth="yes"/>
      <point x="201" y="680"/>
      <point x="203" y="534"/>
      <point x="206" y="405" type="curve"/>
      <point x="152" y="419"/>
      <point x="99" y="428"/>
      <point x="77" y="428" type="curve"/>
      <point x="51" y="369"/>
      <point x="40" y="309"/>
      <point x="40" y="253" type="curve" smooth="yes"/>
      <point x="40" y="111"/>
      <point x="111" y="-6"/>
    </contour>
    <component base="period" xOffset="729" yOffset="723"/>
  </outline>
</glyph>
<glyph name="ldot" format="1">
  <advance width="984"/>
  <unicode hex="0140"/>
  <outline>
    <contour>
      <point x="612" y="800" type="curve" smooth="yes"/>
      <point x="612" y="689"/>
      <point x="710" y="588"/>
      <point x="822" y="588" type="curve" smooth="yes"/>
      <point x="911" y="588"/>
      <point x="1033" y="682"/>
      <point x="1033" y="798" type="curve" smooth="yes"/>
      <point x="1033" y="897"/>
      <point x="992" y="979"/>
      <point x="822" y="979" type="curve" smooth="yes"/>
      <point x="695" y="979"/>
      <point x="612" y="924"/>
    </contour>
    <component base="l"/>
  </outline>
</glyph>
<glyph name="Lslash" format="1">
  <advance width="1175"/>
  <unicode hex="0141"/>
  <outline>
    <contour>
      <point x="227" y="-20" type="curve"/>
      <point x="350" y="-11"/>
      <point x="422" y="53"/>
      <point x="478" y="150" type="curve"/>
      <point x="574" y="72"/>
      <point x="773" y="-20"/>
      <point x="896" y="-20" type="curve" smooth="yes"/>
      <point x="966" y="-20"/>
      <point x="1031" y="12"/>
      <point x="1082" y="80" type="curve" smooth="yes"/>
      <point x="1128" y="143"/>
      <point x="1144" y="249"/>
      <point x="1144" y="349" type="curve" smooth="yes"/>
      <point x="1144" y="441"/>
      <point x="1131" y="528"/>
      <point x="1114" y="573" type="curve"/>
      <point x="1054" y="595"/>
      <point x="982" y="607"/>
      <point x="922" y="605" type="curve"/>
      <point x="838" y="363" type="line"/>
      <point x="563" y="377" type="line"/>
      <point x="578" y="475"/>
      <point x="594" y="587"/>
      <point x="608" y="702" type="curve"/>
      <point x="1012" y="862" type="line"/>
      <point x="1016" y="875"/>
      <point x="1018" y="889"/>
      <point x="1018" y="906" type="curve" smooth="yes"/>
      <point x="1018" y="1004"/>
      <point x="954" y="1154"/>
      <point x="911" y="1154" type="curve"/>
      <point x="642" y="1012" type="line"/>
      <point x="649" y="1096"/>
      <point x="653" y="1176"/>
      <point x="653" y="1246" type="curve" smooth="yes"/>
      <point x="653" y="1283"/>
      <point x="651" y="1317"/>
      <point x="649" y="1347" type="curve" smooth="yes"/>
      <point x="637" y="1483"/>
      <point x="533" y="1550"/>
      <point x="385" y="1550" type="curve" smooth="yes"/>
      <point x="248" y="1550"/>
      <point x="91" y="1479"/>
      <point x="52" y="1430" type="curve"/>
      <point x="50" y="1357"/>
      <point x="57" y="1313"/>
      <point x="76" y="1235" type="curve"/>
      <point x="239" y="1214" type="line"/>
      <point x="239" y="1210"/>
      <point x="238" y="1206"/>
      <point x="238" y="1202" type="curve"/>
      <point x="239" y="1202" type="line"/>
      <point x="233" y="1097"/>
      <point x="231" y="982"/>
      <point x="231" y="866" type="curve" smooth="yes"/>
      <point x="231" y="844"/>
      <point x="231" y="822"/>
      <point x="231" y="800" type="curve"/>
      <point x="48" y="709" type="line"/>
      <point x="43" y="692"/>
      <point x="40" y="671"/>
      <point x="40" y="650" type="curve" smooth="yes"/>
      <point x="40" y="588"/>
      <point x="62" y="520"/>
      <point x="96" y="504" type="curve"/>
      <point x="234" y="555" type="line"/>
      <point x="237" y="386" type="line"/>
      <point x="182" y="396"/>
      <point x="129" y="398"/>
      <point x="107" y="398" type="curve"/>
      <point x="81" y="339"/>
      <point x="70" y="282"/>
      <point x="70" y="229" type="curve" smooth="yes"/>
      <point x="70" y="96"/>
      <point x="141" y="-6"/>
    </contour>
  </outline>
</glyph>
<glyph name="lslash" format="1">
  <advance width="845"/>
  <unicode hex="0142"/>
  <outline>
    <contour>
      <point x="171" y="223" type="curve"/>
      <point x="166" y="30"/>
      <point x="276" y="-20"/>
      <point x="390" y="-20" type="curve" smooth="yes"/>
      <point x="603" y="-20"/>
      <point x="810" y="196"/>
      <point x="810" y="196" type="curve"/>
      <point x="802" y="267"/>
      <point x="773" y="328"/>
      <point x="719" y="374" type="curve"/>
      <point x="483" y="291" type="line"/>
      <point x="481" y="293" type="line"/>
      <point x="510" y="429"/>
      <point x="535" y="597"/>
      <point x="555" y="760" type="curve"/>
      <point x="693" y="829"/>
      <point x="784" y="897"/>
      <point x="862" y="946" type="curve"/>
      <point x="869" y="1038"/>
      <point x="792" y="1144"/>
      <point x="730" y="1174" type="curve"/>
      <point x="684" y="1144"/>
      <point x="633" y="1114"/>
      <point x="580" y="1080" type="curve"/>
      <point x="595" y="1203"/>
      <point x="602" y="1305"/>
      <point x="603" y="1364" type="curve" smooth="yes"/>
      <point x="606" y="1537"/>
      <point x="512" y="1623"/>
      <point x="344" y="1623" type="curve" smooth="yes"/>
      <point x="207" y="1623"/>
      <point x="90" y="1552"/>
      <point x="51" y="1503" type="curve"/>
      <point x="49" y="1430"/>
      <point x="56" y="1386"/>
      <point x="75" y="1308" type="curve"/>
      <point x="198" y="1287" type="line"/>
      <point x="187" y="1128"/>
      <point x="181" y="970"/>
      <point x="178" y="824" type="curve"/>
      <point x="-26" y="693" type="line"/>
      <point x="-20" y="631"/>
      <point x="17" y="515"/>
      <point x="60" y="491" type="curve"/>
      <point x="88" y="500"/>
      <point x="127" y="520"/>
      <point x="173" y="545" type="curve"/>
      <point x="172" y="407"/>
      <point x="172" y="295"/>
    </contour>
  </outline>
</glyph>
<glyph name="OE" format="1">
  <advance width="1996"/>
  <unicode hex="0152"/>
  <outline>
    <contour>
      <point x="701" y="-20" type="curve" smooth="yes"/>
      <point x="897" y="-20"/>
      <point x="1038" y="37"/>
      <point x="1136" y="135" type="curve"/>
      <point x="1258" y="61"/>
      <point x="1611" y="-20"/>
      <point x="1727" y="-20" type="curve" smooth="yes"/>
      <point x="1797" y="-20"/>
      <point x="1863" y="11"/>
      <point x="1913" y="80" type="curve" smooth="yes"/>
      <point x="1944" y="123"/>
      <point x="1956" y="186"/>
      <point x="1956" y="245" type="curve" smooth="yes"/>
      <point x="1956" y="313"/>
      <point x="1940" y="375"/>
      <point x="1920" y="393" type="curve"/>
      <point x="1270" y="355" type="line"/>
      <point x="1298" y="433"/>
      <point x="1315" y="519"/>
      <point x="1323" y="611" type="curve"/>
      <point x="1418" y="578"/>
      <point x="1530" y="562"/>
      <point x="1626" y="562" type="curve" smooth="yes"/>
      <point x="1662" y="562"/>
      <point x="1696" y="564"/>
      <point x="1726" y="569" type="curve"/>
      <point x="1749" y="594"/>
      <point x="1777" y="673"/>
      <point x="1777" y="756" type="curve" smooth="yes"/>
      <point x="1777" y="808"/>
      <point x="1766" y="861"/>
      <point x="1737" y="905" type="curve"/>
      <point x="1606" y="891"/>
      <point x="1477" y="871"/>
      <point x="1328" y="846" type="curve"/>
      <point x="1322" y="982"/>
      <point x="1304" y="1107"/>
      <point x="1262" y="1213" type="curve"/>
      <point x="1377" y="1216"/>
      <point x="1434" y="1217"/>
      <point x="1448" y="1217" type="curve" smooth="yes"/>
      <point x="1513" y="1217"/>
      <point x="1581" y="1213"/>
      <point x="1624" y="1206" type="curve"/>
      <point x="1652" y="1009" type="line"/>
      <point x="1681" y="992"/>
      <point x="1717" y="983"/>
      <point x="1762" y="983" type="curve" smooth="yes"/>
      <point x="1817" y="983"/>
      <point x="1850" y="990"/>
      <point x="1880" y="1005" type="curve"/>
      <point x="1936" y="1068"/>
      <point x="1983" y="1243"/>
      <point x="1983" y="1384" type="curve"/>
      <point x="1930" y="1455"/>
      <point x="1874" y="1496"/>
      <point x="1811" y="1534" type="curve"/>
      <point x="1810" y="1533" type="line"/>
      <point x="1736" y="1548"/>
      <point x="1597" y="1550"/>
      <point x="1520" y="1550" type="curve" smooth="yes"/>
      <point x="1376" y="1550"/>
      <point x="1192" y="1521"/>
      <point x="1033" y="1479" type="curve"/>
      <point x="947" y="1524"/>
      <point x="839" y="1550"/>
      <point x="701" y="1550" type="curve" smooth="yes"/>
      <point x="219" y="1550"/>
      <point x="77" y="1194"/>
      <point x="77" y="756" type="curve" smooth="yes"/>
      <point x="77" y="321"/>
      <point x="219" y="-20"/>
    </contour>
    <contour>
      <point x="558" y="330" type="curve"/>
      <point x="530" y="423"/>
      <point x="506" y="624"/>
      <point x="506" y="811" type="curve" smooth="yes"/>
      <point x="506" y="961"/>
      <point x="521" y="1101"/>
      <point x="562" y="1171" type="curve"/>
      <point x="578" y="1180"/>
      <point x="618" y="1185"/>
      <point x="663" y="1185" type="curve" smooth="yes"/>
      <point x="735" y="1184"/>
      <point x="810" y="1172"/>
      <point x="845" y="1144" type="curve"/>
      <point x="878" y="1076"/>
      <point x="896" y="889"/>
      <point x="896" y="707" type="curve" smooth="yes"/>
      <point x="896" y="536"/>
      <point x="880" y="369"/>
      <point x="845" y="308" type="curve"/>
      <point x="837" y="302"/>
      <point x="798" y="299"/>
      <point x="751" y="299" type="curve" smooth="yes"/>
      <point x="675" y="299"/>
      <point x="578" y="308"/>
    </contour>
  </outline>
</glyph>
<glyph name="oe" format="1">
  <advance width="1785"/>
  <unicode hex="0153"/>
  <outline>
    <contour>
      <point x="583" y="-20" type="curve" smooth="yes"/>
      <point x="727" y="-20"/>
      <point x="845" y="41"/>
      <point x="920" y="141" type="curve"/>
      <point x="972" y="54"/>
      <point x="1096" y="-20"/>
      <point x="1229" y="-20" type="curve" smooth="yes"/>
      <point x="1469" y="-20"/>
      <point x="1665" y="153"/>
      <point x="1708" y="203" type="curve"/>
      <point x="1698" y="303"/>
      <point x="1662" y="353"/>
      <point x="1615" y="400" type="curve"/>
      <point x="1524" y="361"/>
      <point x="1399" y="315"/>
      <point x="1310" y="306" type="curve" smooth="yes"/>
      <point x="1299" y="305"/>
      <point x="1289" y="304"/>
      <point x="1279" y="304" type="curve" smooth="yes"/>
      <point x="1139" y="304"/>
      <point x="1108" y="413"/>
      <point x="1101" y="503" type="curve"/>
      <point x="1205" y="483"/>
      <point x="1280" y="475"/>
      <point x="1362" y="475" type="curve" smooth="yes"/>
      <point x="1400" y="475"/>
      <point x="1439" y="477"/>
      <point x="1483" y="480" type="curve"/>
      <point x="1578" y="516"/>
      <point x="1657" y="582"/>
      <point x="1710" y="647" type="curve"/>
      <point x="1717" y="689"/>
      <point x="1721" y="733"/>
      <point x="1721" y="777" type="curve" smooth="yes"/>
      <point x="1721" y="899"/>
      <point x="1689" y="1021"/>
      <point x="1593" y="1097" type="curve" smooth="yes"/>
      <point x="1508" y="1164"/>
      <point x="1399" y="1184"/>
      <point x="1294" y="1184" type="curve" smooth="yes"/>
      <point x="1169" y="1184"/>
      <point x="1012" y="1132"/>
      <point x="941" y="1050" type="curve"/>
      <point x="867" y="1135"/>
      <point x="757" y="1185"/>
      <point x="604" y="1185" type="curve" smooth="yes"/>
      <point x="230" y="1185"/>
      <point x="64" y="942"/>
      <point x="67" y="581" type="curve" smooth="yes"/>
      <point x="70" y="251"/>
      <point x="199" y="-20"/>
    </contour>
    <contour>
      <point x="1104" y="675" type="line"/>
      <point x="1110" y="734"/>
      <point x="1125" y="784"/>
      <point x="1147" y="827" type="curve"/>
      <point x="1155" y="835"/>
      <point x="1197" y="842"/>
      <point x="1235" y="843" type="curve" smooth="yes"/>
      <point x="1282" y="844"/>
      <point x="1336" y="833"/>
      <point x="1357" y="811" type="curve"/>
      <point x="1371" y="701" type="line"/>
    </contour>
    <contour>
      <point x="498" y="299" type="curve"/>
      <point x="477" y="374"/>
      <point x="459" y="480"/>
      <point x="459" y="582" type="curve" smooth="yes"/>
      <point x="459" y="672"/>
      <point x="473" y="759"/>
      <point x="509" y="821" type="curve"/>
      <point x="522" y="829"/>
      <point x="555" y="833"/>
      <point x="590" y="832" type="curve" smooth="yes"/>
      <point x="634" y="831"/>
      <point x="680" y="823"/>
      <point x="695" y="806" type="curve"/>
      <point x="720" y="753"/>
      <point x="733" y="653"/>
      <point x="733" y="552" type="curve" smooth="yes"/>
      <point x="733" y="445"/>
      <point x="718" y="336"/>
      <point x="686" y="281" type="curve"/>
      <point x="679" y="276"/>
      <point x="654" y="273"/>
      <point x="624" y="273" type="curve" smooth="yes"/>
      <point x="576" y="273"/>
      <point x="515" y="281"/>
    </contour>
  </outline>
</glyph>
<glyph name="florin" format="1">
  <advance width="891"/>
  <unicode hex="0192"/>
  <outline>
    <contour>
      <point x="-21" y="-92" type="line"/>
      <point x="-77" y="-151"/>
      <point x="-109" y="-239"/>
      <point x="-110" y="-316" type="curve"/>
      <point x="-57" y="-406"/>
      <point x="95" y="-432"/>
      <point x="175" y="-432" type="curve" smooth="yes"/>
      <point x="284" y="-432"/>
      <point x="340" y="-402"/>
      <point x="402" y="-326" type="curve"/>
      <point x="450" y="-263"/>
      <point x="471" y="-178"/>
      <point x="485" y="-87" type="curve"/>
      <point x="514" y="88"/>
      <point x="528" y="293"/>
      <point x="546" y="492" type="curve" smooth="yes"/>
      <point x="556" y="596"/>
      <point x="567" y="697"/>
      <point x="574" y="788" type="curve"/>
      <point x="632" y="771"/>
      <point x="691" y="764"/>
      <point x="751" y="764" type="curve" smooth="yes"/>
      <point x="764" y="764"/>
      <point x="776" y="764"/>
      <point x="789" y="765" type="curve"/>
      <point x="816" y="794"/>
      <point x="842" y="889"/>
      <point x="842" y="977" type="curve" smooth="yes"/>
      <point x="842" y="1024"/>
      <point x="835" y="1070"/>
      <point x="815" y="1101" type="curve"/>
      <point x="516" y="1050" type="line"/>
      <point x="509" y="1079"/>
      <point x="505" y="1159"/>
      <point x="505" y="1225" type="curve" smooth="yes"/>
      <point x="505" y="1262"/>
      <point x="506" y="1294"/>
      <point x="509" y="1310" type="curve"/>
      <point x="619" y="1300"/>
      <point x="736" y="1271"/>
      <point x="846" y="1234" type="curve"/>
      <point x="890" y="1306"/>
      <point x="918" y="1416"/>
      <point x="918" y="1503" type="curve" smooth="yes"/>
      <point x="918" y="1532"/>
      <point x="915" y="1557"/>
      <point x="909" y="1579" type="curve"/>
      <point x="754" y="1623"/>
      <point x="641" y="1623"/>
      <point x="579" y="1623" type="curve" smooth="yes"/>
      <point x="342" y="1623"/>
      <point x="178" y="1530"/>
      <point x="161" y="1354" type="curve" smooth="yes"/>
      <point x="159" y="1337"/>
      <point x="159" y="1321"/>
      <point x="159" y="1305" type="curve" smooth="yes"/>
      <point x="159" y="1211"/>
      <point x="185" y="1129"/>
      <point x="220" y="1062" type="curve"/>
      <point x="217" y="1046" type="line"/>
      <point x="154" y="1031"/>
      <point x="87" y="1011"/>
      <point x="38" y="985" type="curve"/>
      <point x="36" y="956"/>
      <point x="34" y="930"/>
      <point x="34" y="905" type="curve" smooth="yes"/>
      <point x="34" y="865"/>
      <point x="38" y="828"/>
      <point x="48" y="788" type="curve"/>
      <point x="199" y="770" type="line"/>
      <point x="198" y="746" type="line"/>
      <point x="177" y="523"/>
      <point x="169" y="163"/>
      <point x="166" y="-28" type="curve"/>
      <point x="166" y="-68"/>
      <point x="160" y="-116"/>
      <point x="148" y="-145" type="curve"/>
    </contour>
  </outline>
</glyph>
<glyph name="circumflex" format="1">
  <advance width="0"/>
  <unicode hex="02C6"/>
  <outline>
    <contour>
      <point x="253" y="1264" type="curve"/>
      <point x="318" y="1293"/>
      <point x="373" y="1344"/>
      <point x="413" y="1397" type="curve"/>
      <point x="157" y="1736" type="line"/>
      <point x="119" y="1743"/>
      <point x="62" y="1746"/>
      <point x="4" y="1746" type="curve" smooth="yes"/>
      <point x="-63" y="1746"/>
      <point x="-131" y="1741"/>
      <point x="-174" y="1729" type="curve"/>
      <point x="-412" y="1399" type="line"/>
      <point x="-382" y="1347"/>
      <point x="-336" y="1295"/>
      <point x="-273" y="1264" type="curve"/>
      <point x="-182" y="1310"/>
      <point x="-89" y="1383"/>
      <point x="-12" y="1469" type="curve"/>
      <point x="75" y="1385"/>
      <point x="154" y="1320"/>
    </contour>
    <contour>
      <point x="-17" y="0" type="move" name="_top"/>
    </contour>
    <contour>
      <point x="0" y="0" type="move" name="_top"/>
    </contour>
  </outline>
</glyph>
<glyph name="caron" format="1">
  <advance width="0"/>
  <unicode hex="02C7"/>
  <outline>
    <contour>
      <point x="8" y="1294" type="curve" smooth="yes"/>
      <point x="47" y="1294"/>
      <point x="83" y="1296"/>
      <point x="105" y="1300" type="curve"/>
      <point x="391" y="1629" type="line"/>
      <point x="367" y="1678"/>
      <point x="293" y="1744"/>
      <point x="241" y="1767" type="curve"/>
      <point x="140" y="1698"/>
      <point x="101" y="1649"/>
      <point x="13" y="1541" type="curve"/>
      <point x="-139" y="1748" type="line"/>
      <point x="-234" y="1755"/>
      <point x="-386" y="1595"/>
      <point x="-390" y="1519" type="curve"/>
      <point x="-137" y="1305" type="line"/>
      <point x="-106" y="1298"/>
      <point x="-46" y="1294"/>
    </contour>
    <contour>
      <point x="-24" y="0" type="move" name="_top"/>
    </contour>
    <contour>
      <point x="0" y="0" type="move" name="_top"/>
    </contour>
  </outline>
</glyph>
<glyph name="dotaccent" format="1">
  <advance width="682"/>
  <unicode hex="02D9"/>
  <outline>
    <contour>
      <point x="354" y="1252" type="curve" smooth="yes"/>
      <point x="475" y="1252"/>
      <point x="595" y="1331"/>
      <point x="595" y="1435" type="curve" smooth="yes"/>
      <point x="595" y="1542"/>
      <point x="534" y="1633"/>
      <point x="354" y="1633" type="curve" smooth="yes"/>
      <point x="174" y="1633"/>
      <point x="113" y="1542"/>
      <point x="113" y="1435" type="curve" smooth="yes"/>
      <point x="113" y="1357"/>
      <point x="217" y="1252"/>
    </contour>
  </outline>
</glyph>
<glyph name="ring" format="1">
  <advance width="0"/>
  <unicode hex="02DA"/>
  <outline>
    <contour>
      <point x="1" y="1259" type="curve" smooth="yes"/>
      <point x="181" y="1259"/>
      <point x="296" y="1375"/>
      <point x="296" y="1544" type="curve" smooth="yes"/>
      <point x="296" y="1715"/>
      <point x="167" y="1778"/>
      <point x="7" y="1778" type="curve" smooth="yes"/>
      <point x="-169" y="1778"/>
      <point x="-296" y="1706"/>
      <point x="-296" y="1539" type="curve" smooth="yes"/>
      <point x="-296" y="1364"/>
      <point x="-174" y="1259"/>
    </contour>
    <contour>
      <point x="-7" y="1458" type="curve" smooth="yes"/>
      <point x="-54" y="1458"/>
      <point x="-90" y="1481"/>
      <point x="-90" y="1527" type="curve" smooth="yes"/>
      <point x="-90" y="1538"/>
      <point x="-89" y="1551"/>
      <point x="-83" y="1559" type="curve"/>
      <point x="-68" y="1563"/>
      <point x="-32" y="1566"/>
      <point x="-1" y="1566" type="curve" smooth="yes"/>
      <point x="56" y="1566"/>
      <point x="81" y="1545"/>
      <point x="82" y="1512" type="curve" smooth="yes"/>
      <point x="83" y="1495"/>
      <point x="77" y="1480"/>
      <point x="74" y="1468" type="curve"/>
      <point x="56" y="1461"/>
      <point x="26" y="1458"/>
    </contour>
    <contour>
      <point x="0" y="0" type="move" name="_top"/>
    </contour>
  </outline>
</glyph>
<glyph name="uni0304" format="1">
  <advance width="0"/>
  <unicode hex="0304"/>
  <outline>
    <contour>
      <point x="13" y="1290" type="curve" smooth="yes"/>
      <point x="157" y="1290"/>
      <point x="265" y="1293"/>
      <point x="306" y="1297" type="curve"/>
      <point x="338" y="1359"/>
      <point x="354" y="1434"/>
      <point x="354" y="1501" type="curve" smooth="yes"/>
      <point x="354" y="1529"/>
      <point x="351" y="1555"/>
      <point x="346" y="1578" type="curve"/>
      <point x="-305" y="1564" type="line"/>
      <point x="-336" y="1511"/>
      <point x="-354" y="1429"/>
      <point x="-354" y="1350" type="curve" smooth="yes"/>
      <point x="-354" y="1332"/>
      <point x="-353" y="1314"/>
      <point x="-351" y="1297" type="curve"/>
      <point x="-218" y="1292"/>
      <point x="-93" y="1290"/>
    </contour>
    <contour>
      <point x="0" y="0" type="move" name="_top"/>
    </contour>
  </outline>
</glyph>
<glyph name="uni0307" format="1">
  <advance width="0"/>
  <unicode hex="0307"/>
  <outline>
    <contour>
      <point x="0" y="1252" type="curve" smooth="yes"/>
      <point x="121" y="1252"/>
      <point x="241" y="1331"/>
      <point x="241" y="1435" type="curve" smooth="yes"/>
      <point x="241" y="1542"/>
      <point x="180" y="1633"/>
      <point x="0" y="1633" type="curve" smooth="yes"/>
      <point x="-180" y="1633"/>
      <point x="-241" y="1542"/>
      <point x="-241" y="1435" type="curve" smooth="yes"/>
      <point x="-241" y="1357"/>
      <point x="-137" y="1252"/>
    </contour>
    <contour>
      <point x="-4" y="3" type="move" name="_top"/>
    </contour>
  </outline>
</glyph>
<glyph name="uni0308" format="1">
  <advance width="0"/>
  <unicode hex="0308"/>
  <outline>
    <contour>
      <point x="255" y="1252" type="curve" smooth="yes"/>
      <point x="344" y="1252"/>
      <point x="476" y="1336"/>
      <point x="476" y="1452" type="curve" smooth="yes"/>
      <point x="476" y="1551"/>
      <point x="425" y="1633"/>
      <point x="255" y="1633" type="curve" smooth="yes"/>
      <point x="128" y="1633"/>
      <point x="35" y="1578"/>
      <point x="35" y="1454" type="curve" smooth="yes"/>
      <point x="35" y="1343"/>
      <point x="143" y="1252"/>
    </contour>
    <contour>
      <point x="-255" y="1252" type="curve" smooth="yes"/>
      <point x="-166" y="1252"/>
      <point x="-34" y="1336"/>
      <point x="-34" y="1452" type="curve" smooth="yes"/>
      <point x="-34" y="1551"/>
      <point x="-85" y="1633"/>
      <point x="-255" y="1633" type="curve" smooth="yes"/>
      <point x="-382" y="1633"/>
      <point x="-475" y="1578"/>
      <point x="-475" y="1454" type="curve" smooth="yes"/>
      <point x="-475" y="1343"/>
      <point x="-367" y="1252"/>
    </contour>
    <contour>
      <point x="0" y="0" type="move" name="_top"/>
    </contour>
    <contour>
      <point x="0" y="0" type="move" name="_top"/>
    </contour>
  </outline>
</glyph>
<glyph name="uni030A" format="1">
  <advance width="0"/>
  <unicode hex="030A"/>
  <outline>
    <contour>
      <point x="1" y="1259" type="curve" smooth="yes"/>
      <point x="181" y="1259"/>
      <point x="296" y="1375"/>
      <point x="296" y="1544" type="curve" smooth="yes"/>
      <point x="296" y="1715"/>
      <point x="167" y="1778"/>
      <point x="7" y="1778" type="curve" smooth="yes"/>
      <point x="-169" y="1778"/>
      <point x="-296" y="1706"/>
      <point x="-296" y="1539" type="curve" smooth="yes"/>
      <point x="-296" y="1364"/>
      <point x="-174" y="1259"/>
    </contour>
    <contour>
      <point x="-7" y="1458" type="curve" smooth="yes"/>
      <point x="-54" y="1458"/>
      <point x="-90" y="1481"/>
      <point x="-90" y="1527" type="curve" smooth="yes"/>
      <point x="-90" y="1538"/>
      <point x="-89" y="1551"/>
      <point x="-83" y="1559" type="curve"/>
      <point x="-68" y="1563"/>
      <point x="-32" y="1566"/>
      <point x="-1" y="1566" type="curve" smooth="yes"/>
      <point x="56" y="1566"/>
      <point x="81" y="1545"/>
      <point x="82" y="1512" type="curve" smooth="yes"/>
      <point x="83" y="1495"/>
      <point x="77" y="1480"/>
      <point x="74" y="1468" type="curve"/>
      <point x="56" y="1461"/>
      <point x="26" y="1458"/>
    </contour>
    <contour>
      <point x="0" y="0" type="move" name="_top"/>
    </contour>
  </outline>
</glyph>
<glyph name="uni0312" format="1">
  <advance width="0"/>
  <unicode hex="0312"/>
  <outline>
    <contour>
      <point x="19" y="1295" type="curve" name="hr00"/>
      <point x="71" y="1295"/>
      <point x="122" y="1304"/>
      <point x="160" y="1319" type="curve"/>
      <point x="169" y="1450"/>
      <point x="186" y="1550"/>
      <point x="224" y="1694" type="curve"/>
      <point x="82" y="1751" type="line"/>
      <point x="-40" y="1695"/>
      <point x="-207" y="1515"/>
      <point x="-224" y="1406" type="curve"/>
      <point x="-190" y="1328"/>
      <point x="-83" y="1295"/>
    </contour>
    <contour>
      <point x="11" y="1530" type="move" name="_top"/>
    </contour>
    <contour>
      <point x="10" y="0" type="move" name="_top"/>
    </contour>
  </outline>
</glyph>
<glyph name="uni0313" format="1">
  <advance width="0"/>
  <unicode hex="0313"/>
  <outline>
    <contour>
      <point x="-19" y="1751" type="curve" smooth="yes" name="hr00"/>
      <point x="-71" y="1751"/>
      <point x="-122" y="1742"/>
      <point x="-160" y="1727" type="curve"/>
      <point x="-169" y="1596"/>
      <point x="-186" y="1496"/>
      <point x="-224" y="1352" type="curve"/>
      <point x="-82" y="1295" type="line"/>
      <point x="40" y="1351"/>
      <point x="207" y="1531"/>
      <point x="224" y="1640" type="curve"/>
      <point x="190" y="1718"/>
      <point x="83" y="1751"/>
    </contour>
    <contour>
      <point x="11" y="1530" type="move" name="_top"/>
    </contour>
    <contour>
      <point x="10" y="0" type="move" name="_top"/>
    </contour>
  </outline>
</glyph>
<glyph name="dotbelowcomb" format="1">
  <advance width="0"/>
  <unicode hex="0323"/>
  <outline>
    <contour>
      <point x="0" y="-469" type="curve" smooth="yes"/>
      <point x="121" y="-469"/>
      <point x="241" y="-390"/>
      <point x="241" y="-286" type="curve" smooth="yes"/>
      <point x="241" y="-179"/>
      <point x="180" y="-88"/>
      <point x="0" y="-88" type="curve" smooth="yes"/>
      <point x="-180" y="-88"/>
      <point x="-241" y="-179"/>
      <point x="-241" y="-286" type="curve" smooth="yes"/>
      <point x="-241" y="-364"/>
      <point x="-137" y="-469"/>
    </contour>
    <contour>
      <point x="0" y="0" type="move" name="_btm"/>
    </contour>
  </outline>
</glyph>
<glyph name="uni0323" format="1">
  <advance width="0"/>
  <unicode hex="0323"/>
  <outline>
    <contour>
      <point x="0" y="-469" type="curve" smooth="yes"/>
      <point x="121" y="-469"/>
      <point x="241" y="-390"/>
      <point x="241" y="-286" type="curve" smooth="yes"/>
      <point x="241" y="-179"/>
      <point x="180" y="-88"/>
      <point x="0" y="-88" type="curve" smooth="yes"/>
      <point x="-180" y="-88"/>
      <point x="-241" y="-179"/>
      <point x="-241" y="-286" type="curve" smooth="yes"/>
      <point x="-241" y="-364"/>
      <point x="-137" y="-469"/>
    </contour>
    <contour>
      <point x="0" y="0" type="move" name="_btm"/>
    </contour>
  </outline>
</glyph>
<glyph name="uni0326" format="1">
  <advance width="0"/>
  <unicode hex="0326"/>
  <outline>
    <contour>
      <point x="-19" y="-84" type="curve" smooth="yes"/>
      <point x="-71" y="-84"/>
      <point x="-122" y="-93"/>
      <point x="-160" y="-108" type="curve"/>
      <point x="-169" y="-239"/>
      <point x="-186" y="-339"/>
      <point x="-224" y="-483" type="curve"/>
      <point x="-82" y="-540" type="line"/>
      <point x="40" y="-484"/>
      <point x="207" y="-304"/>
      <point x="224" y="-195" type="curve"/>
      <point x="190" y="-117"/>
      <point x="83" y="-84"/>
    </contour>
    <contour>
      <point x="10" y="0" type="move" name="_btm"/>
    </contour>
  </outline>
</glyph>
<glyph name="uni0331" format="1">
  <advance width="0"/>
  <unicode hex="0331"/>
  <outline>
    <contour>
      <point x="13" y="-524" type="curve" smooth="yes" name="hr00"/>
      <point x="157" y="-524"/>
      <point x="265" y="-521"/>
      <point x="306" y="-517" type="curve"/>
      <point x="338" y="-455"/>
      <point x="354" y="-380"/>
      <point x="354" y="-313" type="curve" smooth="yes"/>
      <point x="354" y="-285"/>
      <point x="351" y="-259"/>
      <point x="346" y="-236" type="curve"/>
      <point x="-305" y="-250" type="line"/>
      <point x="-336" y="-303"/>
      <point x="-354" y="-385"/>
      <point x="-354" y="-464" type="curve" smooth="yes"/>
      <point x="-354" y="-482"/>
      <point x="-353" y="-500"/>
      <point x="-351" y="-517" type="curve"/>
      <point x="-218" y="-522"/>
      <point x="-93" y="-524"/>
    </contour>
    <contour>
      <point x="0" y="-15" type="move" name="_btm"/>
    </contour>
  </outline>
</glyph>
<glyph name="uni03BC" format="1">
  <advance width="1280"/>
  <unicode hex="03BC"/>
  <outline>
    <contour>
      <point x="109" y="-43" type="curve" smooth="yes"/>
      <point x="109" y="-149"/>
      <point x="112" y="-251"/>
      <point x="122" y="-352" type="curve"/>
      <point x="143" y="-409"/>
      <point x="215" y="-433"/>
      <point x="265" y="-433" type="curve" smooth="yes"/>
      <point x="351" y="-433"/>
      <point x="444" y="-385"/>
      <point x="488" y="-313" type="curve"/>
      <point x="355" y="104" type="line"/>
      <point x="384" y="112" type="line"/>
      <point x="394" y="47"/>
      <point x="460" y="-20"/>
      <point x="540" y="-20" type="curve" smooth="yes"/>
      <point x="674" y="-20"/>
      <point x="776" y="94"/>
      <point x="844" y="333" type="curve"/>
      <point x="872" y="324" type="line"/>
      <point x="863" y="293"/>
      <point x="844" y="184"/>
      <point x="844" y="156" type="curve" smooth="yes"/>
      <point x="844" y="58"/>
      <point x="871" y="-20"/>
      <point x="990" y="-20" type="curve" smooth="yes"/>
      <point x="1109" y="-20"/>
      <point x="1241" y="127"/>
      <point x="1264" y="175" type="curve"/>
      <point x="1255" y="260"/>
      <point x="1216" y="319"/>
      <point x="1184" y="353" type="curve"/>
      <point x="1069" y="303" type="line"/>
      <point x="1115" y="476"/>
      <point x="1186" y="768"/>
      <point x="1186" y="926" type="curve" smooth="yes"/>
      <point x="1186" y="1099"/>
      <point x="1099" y="1185"/>
      <point x="928" y="1185" type="curve" smooth="yes"/>
      <point x="791" y="1185"/>
      <point x="694" y="1114"/>
      <point x="655" y="1065" type="curve"/>
      <point x="655" y="1055"/>
      <point x="654" y="1046"/>
      <point x="654" y="1037" type="curve" smooth="yes"/>
      <point x="654" y="979"/>
      <point x="660" y="935"/>
      <point x="677" y="868" type="curve"/>
      <point x="782" y="847" type="line"/>
      <point x="772" y="760"/>
      <point x="765" y="651"/>
      <point x="760" y="564" type="curve"/>
      <point x="692" y="437"/>
      <point x="553" y="284"/>
      <point x="529" y="283" type="curve"/>
      <point x="514" y="287"/>
      <point x="499" y="295"/>
      <point x="487" y="308" type="curve"/>
      <point x="507" y="485"/>
      <point x="538" y="776"/>
      <point x="538" y="969" type="curve" smooth="yes"/>
      <point x="538" y="1029"/>
      <point x="533" y="1079"/>
      <point x="519" y="1114" type="curve"/>
      <point x="486" y="1150"/>
      <point x="401" y="1185"/>
      <point x="328" y="1185" type="curve" smooth="yes"/>
      <point x="260" y="1185"/>
      <point x="168" y="1161"/>
      <point x="108" y="1114" type="curve"/>
      <point x="110" y="1001" type="line"/>
      <point x="110" y="1001"/>
      <point x="109" y="787"/>
      <point x="109" y="590" type="curve" smooth="yes"/>
      <point x="109" y="491"/>
      <point x="109" y="397"/>
      <point x="110" y="336" type="curve" smooth="yes"/>
      <point x="111" y="299"/>
      <point x="111" y="264"/>
      <point x="111" y="229" type="curve" smooth="yes"/>
      <point x="111" y="133"/>
      <point x="109" y="43"/>
    </contour>
  </outline>
</glyph>
<glyph name="endash" format="1">
  <advance width="1323"/>
  <unicode hex="2013"/>
  <outline>
    <contour>
      <point x="112" y="417" type="curve"/>
      <point x="258" y="412"/>
      <point x="434" y="410"/>
      <point x="601" y="410" type="curve" smooth="yes"/>
      <point x="867" y="410"/>
      <point x="1108" y="415"/>
      <point x="1159" y="419" type="curve"/>
      <point x="1188" y="490"/>
      <point x="1208" y="573"/>
      <point x="1208" y="649" type="curve" smooth="yes"/>
      <point x="1208" y="686"/>
      <point x="1203" y="722"/>
      <point x="1192" y="754" type="curve"/>
      <point x="140" y="689" type="line"/>
      <point x="115" y="637"/>
      <point x="100" y="584"/>
      <point x="100" y="521" type="curve" smooth="yes"/>
      <point x="100" y="489"/>
      <point x="104" y="455"/>
    </contour>
  </outline>
</glyph>
<glyph name="ellipsis" format="1">
  <advance width="2044"/>
  <unicode hex="2026"/>
  <outline>
    <contour>
      <point x="1450" y="183" type="curve" smooth="yes"/>
      <point x="1450" y="101"/>
      <point x="1559" y="-20"/>
      <point x="1703" y="-20" type="curve" smooth="yes"/>
      <point x="1830" y="-20"/>
      <point x="1956" y="73"/>
      <point x="1956" y="183" type="curve" smooth="yes"/>
      <point x="1956" y="295"/>
      <point x="1892" y="401"/>
      <point x="1703" y="401" type="curve" smooth="yes"/>
      <point x="1514" y="401"/>
      <point x="1450" y="295"/>
    </contour>
    <contour>
      <point x="769" y="183" type="curve" smooth="yes"/>
      <point x="769" y="101"/>
      <point x="878" y="-20"/>
      <point x="1022" y="-20" type="curve" smooth="yes"/>
      <point x="1149" y="-20"/>
      <point x="1275" y="73"/>
      <point x="1275" y="183" type="curve" smooth="yes"/>
      <point x="1275" y="295"/>
      <point x="1211" y="401"/>
      <point x="1022" y="401" type="curve" smooth="yes"/>
      <point x="833" y="401"/>
      <point x="769" y="295"/>
    </contour>
    <contour>
      <point x="88" y="183" type="curve" smooth="yes"/>
      <point x="88" y="101"/>
      <point x="197" y="-20"/>
      <point x="341" y="-20" type="curve" smooth="yes"/>
      <point x="468" y="-20"/>
      <point x="594" y="73"/>
      <point x="594" y="183" type="curve" smooth="yes"/>
      <point x="594" y="295"/>
      <point x="530" y="401"/>
      <point x="341" y="401" type="curve" smooth="yes"/>
      <point x="152" y="401"/>
      <point x="88" y="295"/>
    </contour>
  </outline>
</glyph>
<glyph name="guilsinglleft" format="1">
  <advance width="778"/>
  <unicode hex="2039"/>
  <outline>
    <contour>
      <point x="120" y="360" type="curve"/>
      <point x="569" y="7" type="line"/>
      <point x="627" y="40"/>
      <point x="703" y="113"/>
      <point x="738" y="185" type="curve"/>
      <point x="670" y="277"/>
      <point x="524" y="449"/>
      <point x="426" y="539" type="curve"/>
      <point x="524" y="641"/>
      <point x="666" y="831"/>
      <point x="702" y="937" type="curve"/>
      <point x="684" y="1007"/>
      <point x="582" y="1090"/>
      <point x="524" y="1114" type="curve"/>
      <point x="87" y="688" type="line"/>
      <point x="80" y="656"/>
      <point x="76" y="613"/>
      <point x="76" y="568" type="curve" smooth="yes"/>
      <point x="76" y="496"/>
      <point x="87" y="417"/>
    </contour>
  </outline>
</glyph>
<glyph name="fraction" format="1">
  <advance width="1237"/>
  <unicode hex="2044"/>
  <outline>
    <contour>
      <point x="37" y="20" type="line"/>
      <point x="56" y="-46"/>
      <point x="186" y="-109"/>
      <point x="250" y="-111" type="curve"/>
      <point x="1334" y="1630" type="line"/>
      <point x="1274" y="1700"/>
      <point x="1093" y="1773"/>
      <point x="1015" y="1771" type="curve"/>
    </contour>
  </outline>
</glyph>
<glyph name="minus" format="1">
  <advance width="1024"/>
  <unicode hex="2212"/>
  <outline>
    <contour>
      <point x="112" y="420" type="curve"/>
      <point x="269" y="411"/>
      <point x="426" y="407"/>
      <point x="584" y="407" type="curve" smooth="yes"/>
      <point x="675" y="407"/>
      <point x="767" y="408"/>
      <point x="859" y="411" type="curve"/>
      <point x="888" y="483"/>
      <point x="908" y="561"/>
      <point x="908" y="634" type="curve" smooth="yes"/>
      <point x="908" y="669"/>
      <point x="904" y="703"/>
      <point x="893" y="734" type="curve"/>
      <point x="140" y="689" type="line"/>
      <point x="115" y="637"/>
      <point x="100" y="586"/>
      <point x="100" y="524" type="curve" smooth="yes"/>
      <point x="100" y="493"/>
      <point x="104" y="458"/>
    </contour>
  </outline>
</glyph>
<glyph name="commaaccent" format="1">
  <advance width="0"/>
  <unicode hex="F6C3"/>
  <outline>
    <contour>
      <point x="-29" y="-84" type="curve" smooth="yes"/>
      <point x="-81" y="-84"/>
      <point x="-132" y="-93"/>
      <point x="-170" y="-108" type="curve"/>
      <point x="-179" y="-239"/>
      <point x="-196" y="-339"/>
      <point x="-234" y="-483" type="curve"/>
      <point x="-92" y="-540" type="line"/>
      <point x="30" y="-484"/>
      <point x="197" y="-304"/>
      <point x="214" y="-195" type="curve"/>
      <point x="180" y="-117"/>
      <point x="73" y="-84"/>
    </contour>
    <contour>
      <point x="0" y="0" type="move" name="_btm"/>
    </contour>
  </outline>
</glyph>
<glyph name="caron.cap" format="1">
  <advance width="0"/>
  <outline>
    <contour>
      <point x="-59" y="1628" type="curve" smooth="yes"/>
      <point x="16" y="1628"/>
      <point x="104" y="1633"/>
      <point x="135" y="1642" type="curve"/>
      <point x="374" y="1888" type="line"/>
      <point x="351" y="1935"/>
      <point x="264" y="1998"/>
      <point x="214" y="2020" type="curve"/>
      <point x="134" y="1967"/>
      <point x="74" y="1912"/>
      <point x="20" y="1841" type="curve"/>
      <point x="-148" y="2002" type="line"/>
      <point x="-239" y="2009"/>
      <point x="-370" y="1877"/>
      <point x="-374" y="1804" type="curve"/>
      <point x="-169" y="1634" type="line"/>
      <point x="-149" y="1630"/>
      <point x="-106" y="1628"/>
    </contour>
    <contour>
      <point x="22" y="0" type="move" name="_top"/>
    </contour>
    <contour>
      <point x="0" y="0" type="move" name="_top"/>
    </contour>
  </outline>
</glyph>
<glyph name="circumflex.cap" format="1">
  <advance width="0"/>
  <outline>
    <contour>
      <point x="204" y="1609" type="curve"/>
      <point x="271" y="1626"/>
      <point x="355" y="1711"/>
      <point x="373" y="1756" type="curve"/>
      <point x="171" y="2004" type="line"/>
      <point x="141" y="2011"/>
      <point x="69" y="2015"/>
      <point x="16" y="2015" type="curve" smooth="yes"/>
      <point x="-51" y="2015"/>
      <point x="-140" y="2008"/>
      <point x="-170" y="1994" type="curve"/>
      <point x="-373" y="1752" type="line"/>
      <point x="-346" y="1703"/>
      <point x="-288" y="1639"/>
      <point x="-230" y="1613" type="curve"/>
      <point x="-175" y="1644"/>
      <point x="-93" y="1700"/>
      <point x="-31" y="1765" type="curve"/>
      <point x="43" y="1699"/>
      <point x="121" y="1649"/>
    </contour>
    <contour>
      <point x="-7" y="0" type="move" name="_top"/>
    </contour>
    <contour>
      <point x="0" y="0" type="move" name="_top"/>
    </contour>
  </outline>
</glyph>
<glyph name="dieresis.cap" format="1">
  <advance width="0"/>
  <outline>
    <contour>
      <point x="255" y="1600" type="curve" smooth="yes"/>
      <point x="344" y="1600"/>
      <point x="476" y="1684"/>
      <point x="476" y="1800" type="curve" smooth="yes"/>
      <point x="476" y="1899"/>
      <point x="425" y="1981"/>
      <point x="255" y="1981" type="curve" smooth="yes"/>
      <point x="128" y="1981"/>
      <point x="35" y="1926"/>
      <point x="35" y="1802" type="curve" smooth="yes"/>
      <point x="35" y="1691"/>
      <point x="143" y="1600"/>
    </contour>
    <contour>
      <point x="-255" y="1600" type="curve" smooth="yes"/>
      <point x="-166" y="1600"/>
      <point x="-34" y="1684"/>
      <point x="-34" y="1800" type="curve" smooth="yes"/>
      <point x="-34" y="1899"/>
      <point x="-85" y="1981"/>
      <point x="-255" y="1981" type="curve" smooth="yes"/>
      <point x="-382" y="1981"/>
      <point x="-475" y="1926"/>
      <point x="-475" y="1802" type="curve" smooth="yes"/>
      <point x="-475" y="1691"/>
      <point x="-367" y="1600"/>
    </contour>
    <contour>
      <point x="0" y="0" type="move" name="_top"/>
    </contour>
    <contour>
      <point x="0" y="0" type="move" name="_top"/>
    </contour>
  </outline>
</glyph>
<glyph name="dotaccent.cap" format="1">
  <advance width="682"/>
  <outline>
    <contour>
      <point x="356" y="1600" type="curve" smooth="yes"/>
      <point x="445" y="1600"/>
      <point x="587" y="1684"/>
      <point x="587" y="1800" type="curve" smooth="yes"/>
      <point x="587" y="1899"/>
      <point x="526" y="1981"/>
      <point x="356" y="1981" type="curve" smooth="yes"/>
      <point x="229" y="1981"/>
      <point x="126" y="1926"/>
      <point x="126" y="1802" type="curve" smooth="yes"/>
      <point x="126" y="1691"/>
      <point x="244" y="1600"/>
    </contour>
    <contour>
      <point x="353" y="0" type="move" name="_top"/>
    </contour>
  </outline>
</glyph>
<glyph name="grave.cap" format="1">
  <advance width="0"/>
  <outline>
    <contour>
      <point x="152" y="1625" type="curve" smooth="yes"/>
      <point x="175" y="1625"/>
      <point x="197" y="1627"/>
      <point x="216" y="1629" type="curve"/>
      <point x="263" y="1667"/>
      <point x="287" y="1733"/>
      <point x="280" y="1796" type="curve"/>
      <point x="-105" y="2020" type="line"/>
      <point x="-212" y="1955"/>
      <point x="-277" y="1839"/>
      <point x="-281" y="1737" type="curve"/>
      <point x="-171" y="1664"/>
      <point x="19" y="1625"/>
    </contour>
    <contour>
      <point x="60" y="0" type="move" name="_top"/>
    </contour>
    <contour>
      <point x="0" y="0" type="move" name="_top"/>
    </contour>
  </outline>
</glyph>
<glyph name="i.cy" format="1">
  <advance width="716"/>
  <outline>
    <contour>
      <point x="354" y="1252" type="curve" smooth="yes"/>
      <point x="475" y="1252"/>
      <point x="595" y="1331"/>
      <point x="595" y="1435" type="curve" smooth="yes"/>
      <point x="595" y="1542"/>
      <point x="534" y="1633"/>
      <point x="354" y="1633" type="curve" smooth="yes"/>
      <point x="174" y="1633"/>
      <point x="113" y="1542"/>
      <point x="113" y="1435" type="curve" smooth="yes"/>
      <point x="113" y="1357"/>
      <point x="217" y="1252"/>
    </contour>
    <contour>
      <point x="156" y="210" type="curve" smooth="yes"/>
      <point x="156" y="28"/>
      <point x="259" y="-20"/>
      <point x="371" y="-20" type="curve" smooth="yes"/>
      <point x="584" y="-20"/>
      <point x="699" y="175"/>
      <point x="699" y="175" type="curve"/>
      <point x="691" y="246"/>
      <point x="666" y="299"/>
      <point x="612" y="345" type="curve"/>
      <point x="464" y="291" type="line"/>
      <point x="462" y="293" type="line"/>
      <point x="507" y="395"/>
      <point x="593" y="756"/>
      <point x="593" y="926" type="curve" smooth="yes"/>
      <point x="593" y="1099"/>
      <point x="526" y="1185"/>
      <point x="335" y="1185" type="curve" smooth="yes"/>
      <point x="198" y="1185"/>
      <point x="81" y="1114"/>
      <point x="42" y="1065" type="curve"/>
      <point x="42" y="1055"/>
      <point x="41" y="1046"/>
      <point x="41" y="1037" type="curve" smooth="yes"/>
      <point x="41" y="979"/>
      <point x="47" y="930"/>
      <point x="64" y="863" type="curve"/>
      <point x="189" y="842" type="line"/>
      <point x="165" y="623"/>
      <point x="156" y="390"/>
    </contour>
  </outline>
</glyph>
<glyph name="uni0304.cap" format="1">
  <advance width="0"/>
  <outline>
    <contour>
      <point x="13" y="1620" type="curve" smooth="yes"/>
      <point x="157" y="1620"/>
      <point x="265" y="1623"/>
      <point x="306" y="1627" type="curve"/>
      <point x="338" y="1689"/>
      <point x="354" y="1764"/>
      <point x="354" y="1831" type="curve" smooth="yes"/>
      <point x="354" y="1859"/>
      <point x="351" y="1885"/>
      <point x="346" y="1908" type="curve"/>
      <point x="-305" y="1894" type="line"/>
      <point x="-336" y="1841"/>
      <point x="-354" y="1759"/>
      <point x="-354" y="1680" type="curve" smooth="yes"/>
      <point x="-354" y="1662"/>
      <point x="-353" y="1644"/>
      <point x="-351" y="1627" type="curve"/>
      <point x="-218" y="1622"/>
      <point x="-93" y="1620"/>
    </contour>
    <contour>
      <point x="0" y="0" type="move" name="_top"/>
    </contour>
  </outline>
</glyph>
